{"glyphs":{"0":{"ha":547,"x_min":17,"x_max":556,"o":"m 224 -18 q 107 10 156 -17 q 38 98 58 38 q 31 258 17 158 l 78 592 q 168 772 94 714 q 346 831 242 831 q 501 772 446 831 q 539 592 556 714 l 492 260 q 440 96 478 157 q 346 8 401 35 q 224 -18 290 -18 m 236 78 q 290 102 267 78 q 319 175 313 126 l 383 636 q 374 709 390 685 q 328 733 358 733 q 276 709 300 733 q 244 636 253 685 l 181 175 q 190 102 174 126 q 236 78 207 78 z "},"1":{"ha":382,"x_min":61,"x_max":392,"o":"m 113 0 l 201 622 l 61 622 l 74 714 l 113 715 q 192 744 161 719 q 250 821 222 768 l 392 821 l 275 0 l 113 0 z "},"2":{"ha":539,"x_min":-14,"x_max":556,"o":"m -14 0 q -1 83 -7 42 q 10 167 4 125 q 45 285 21 242 q 112 358 69 329 q 218 415 154 386 q 287 452 254 432 q 343 503 319 472 q 374 581 367 533 l 376 603 q 372 679 382 649 q 322 710 361 710 q 264 677 285 710 q 235 581 243 644 l 226 524 l 65 524 l 79 626 q 160 776 94 726 q 342 825 226 825 q 477 801 429 825 q 540 728 525 778 q 543 596 556 678 q 513 484 535 532 q 456 401 492 436 q 367 338 421 365 q 299 304 331 321 q 244 268 268 288 q 206 218 219 249 q 185 178 194 200 q 172 132 176 157 l 481 132 l 461 0 l -14 0 z "},"3":{"ha":539,"x_min":0,"x_max":556,"o":"m 217 -10 q 87 15 136 -10 q 19 84 38 39 q 8 193 0 129 l 22 288 l 185 288 l 176 236 q 179 140 168 174 q 231 106 190 107 q 288 135 267 106 q 315 210 310 164 l 328 289 q 305 354 333 335 q 218 375 276 374 l 153 375 l 165 464 l 233 464 q 283 471 260 464 q 324 490 306 478 q 351 520 343 504 q 363 554 360 536 l 371 611 q 365 681 376 651 q 315 710 353 710 q 256 676 275 710 q 229 585 238 643 l 225 551 l 63 551 l 72 628 q 151 775 86 725 q 333 825 215 825 q 507 779 458 825 q 543 642 556 733 l 535 579 q 483 465 525 508 q 372 414 440 422 q 469 367 439 410 q 490 253 500 324 l 482 193 q 442 78 472 124 q 358 12 413 33 q 217 -10 303 -10 z "},"4":{"ha":538,"x_min":-14,"x_max":511,"o":"m 228 0 l 251 161 l -14 161 l 4 289 l 349 821 l 506 821 l 428 269 l 511 269 l 496 161 l 413 161 l 389 0 l 228 0 m 129 269 l 267 269 l 306 546 l 129 269 z "},"5":{"ha":546,"x_min":6,"x_max":558,"o":"m 225 -11 q 88 6 138 -11 q 22 71 39 24 q 18 207 6 118 l 28 278 l 190 278 l 182 221 q 187 130 172 154 q 240 106 201 106 q 297 133 278 106 q 326 224 317 160 l 344 358 q 347 407 349 385 q 331 442 344 429 q 288 456 318 456 q 235 438 257 456 q 206 388 214 419 l 44 388 l 106 821 l 558 821 l 542 706 l 249 706 l 221 503 q 273 545 239 526 q 368 564 307 564 q 495 526 460 564 q 517 397 531 489 l 490 203 q 445 73 479 119 q 356 8 411 26 q 225 -11 301 -11 z "},"6":{"ha":549,"x_min":14,"x_max":557,"o":"m 222 -15 q 99 10 147 -15 q 33 87 51 36 q 24 210 14 138 l 83 629 q 167 778 97 729 q 342 828 238 828 q 504 781 451 828 q 542 632 557 733 l 533 576 l 374 576 l 383 650 q 376 711 390 693 q 329 729 361 729 q 274 708 296 729 q 246 649 253 686 l 221 461 q 288 508 247 493 q 368 522 328 522 q 481 485 439 522 q 514 375 524 447 l 488 190 q 444 81 479 128 q 353 10 410 35 q 222 -15 297 -15 m 239 81 q 293 101 269 81 q 324 165 317 121 l 349 349 q 333 405 354 389 q 285 421 311 421 q 234 405 256 421 q 207 363 213 389 l 179 165 q 190 102 174 122 q 239 81 207 82 z "},"7":{"ha":454,"x_min":-3,"x_max":499,"o":"m -3 0 l 321 707 l 63 707 l 79 821 l 499 821 l 482 704 l 158 0 l -3 0 z "},"8":{"ha":538,"x_min":7,"x_max":550,"o":"m 222 -11 q 93 13 142 -11 q 26 84 44 38 q 15 194 7 131 l 22 244 q 40 321 28 286 q 75 379 53 356 q 125 412 93 397 q 206 431 157 426 q 138 442 160 432 q 100 469 117 451 q 77 533 78 493 q 82 614 76 572 l 86 646 q 121 747 94 707 q 200 806 147 786 q 339 825 253 825 q 472 806 425 825 q 534 747 518 786 q 542 646 550 707 l 536 614 q 513 527 529 565 q 463 465 496 489 q 374 431 429 440 q 448 408 422 426 q 484 363 474 390 q 493 305 494 336 q 488 243 492 274 l 481 193 q 444 91 474 138 q 359 17 414 44 q 222 -11 304 -11 m 231 82 q 289 103 268 82 q 314 161 310 125 l 331 279 q 323 338 336 315 q 271 361 310 360 q 213 335 233 361 q 188 278 193 310 l 171 161 q 181 104 167 126 q 231 82 194 82 m 288 483 q 340 506 317 483 q 369 574 364 528 l 379 640 q 374 709 385 681 q 324 738 363 738 q 266 708 285 738 q 242 642 247 679 l 232 575 q 242 506 225 528 q 288 483 260 483 z "},"9":{"ha":546,"x_min":7,"x_max":550,"o":"m 221 -15 q 59 32 111 -15 q 21 181 7 79 l 32 250 l 192 250 l 179 163 q 188 102 174 121 q 233 83 201 83 q 289 105 267 83 q 317 164 311 126 l 344 361 q 278 315 318 329 q 197 300 239 300 q 115 319 150 300 q 64 380 79 338 q 57 492 49 422 l 75 622 q 119 732 85 686 q 210 803 153 778 q 342 828 267 828 q 465 802 417 828 q 531 726 513 776 q 539 603 550 676 l 481 183 q 397 34 467 83 q 221 -15 326 -15 m 279 401 q 329 417 307 401 q 358 460 351 433 l 383 647 q 374 710 390 690 q 324 732 357 731 q 269 712 293 732 q 240 647 246 692 l 215 474 q 231 417 210 433 q 279 401 253 401 z "},"\r":{"ha":833,"x_min":0,"x_max":0,"o":""}," ":{"ha":231,"x_min":0,"x_max":0,"o":""}," ":{"ha":231,"x_min":0,"x_max":0,"o":""},"A":{"ha":547,"x_min":-43,"x_max":479,"o":"m -43 0 l 219 821 l 451 821 l 479 0 l 299 0 l 296 151 l 176 151 l 131 0 l -43 0 m 189 232 l 304 232 l 311 678 l 189 232 z "},"А":{"ha":547,"x_min":-43,"x_max":479,"o":"m -43 0 l 219 821 l 451 821 l 479 0 l 299 0 l 296 151 l 176 151 l 131 0 l -43 0 m 189 232 l 304 232 l 311 678 l 189 232 z "},"Æ":{"ha":782,"x_min":-47,"x_max":788,"o":"m -47 0 l 315 821 l 788 821 l 771 707 l 533 707 l 506 488 l 717 488 l 699 361 l 490 361 l 458 111 l 704 111 l 686 0 l 265 0 l 288 151 l 190 151 l 126 0 l -47 0 m 214 232 l 308 232 l 382 649 l 389 678 l 379 650 l 214 232 z "},"Á":{"ha":547,"x_min":-43,"x_max":521,"o":"m -43 0 l 219 821 l 451 821 l 479 0 l 299 0 l 296 151 l 176 151 l 131 0 l -43 0 m 189 232 l 304 232 l 311 678 l 189 232 m 249 881 l 375 1011 l 521 1011 l 339 881 l 249 881 z "},"Ă":{"ha":547,"x_min":-43,"x_max":525,"o":"m -43 0 l 219 821 l 451 821 l 479 0 l 299 0 l 296 151 l 176 151 l 131 0 l -43 0 m 189 232 l 304 232 l 311 678 l 189 232 m 346 874 q 268 888 297 874 q 226 924 239 903 q 211 969 214 946 q 210 1013 208 993 l 296 1013 q 313 965 294 981 q 358 950 331 950 q 409 965 388 950 q 439 1013 431 979 l 525 1013 q 499 945 519 976 q 440 894 478 914 q 346 874 403 874 z "},"Ắ":{"ha":547,"x_min":-43,"x_max":508,"o":"m -43 0 l 219 821 l 451 821 l 479 0 l 299 0 l 296 151 l 176 151 l 131 0 l -43 0 m 189 232 l 304 232 l 311 678 l 189 232 m 346 875 q 269 893 292 875 q 242 936 246 911 q 239 982 238 961 l 324 982 q 331 957 319 965 q 357 949 342 949 q 385 956 372 949 q 401 982 399 964 l 486 982 q 446 906 481 936 q 346 875 411 875 m 297 1013 l 360 1117 l 508 1117 l 396 1013 l 297 1013 z "},"Ặ":{"ha":547,"x_min":-43,"x_max":525,"o":"m -43 0 l 219 821 l 451 821 l 479 0 l 299 0 l 296 151 l 176 151 l 131 0 l -43 0 m 189 232 l 304 232 l 311 678 l 189 232 m 207 -179 q 159 -160 178 -179 q 140 -115 140 -142 q 159 -71 140 -89 q 207 -53 178 -53 q 253 -71 235 -53 q 271 -115 271 -89 q 253 -160 271 -142 q 207 -179 235 -179 m 346 874 q 268 888 297 874 q 226 924 239 903 q 211 969 214 946 q 210 1013 208 993 l 296 1013 q 313 965 294 981 q 358 950 331 950 q 409 965 388 950 q 439 1013 431 979 l 525 1013 q 499 945 519 976 q 440 894 478 914 q 346 874 403 874 z "},"Ằ":{"ha":547,"x_min":-43,"x_max":486,"o":"m -43 0 l 219 821 l 451 821 l 479 0 l 299 0 l 296 151 l 176 151 l 131 0 l -43 0 m 189 232 l 304 232 l 311 678 l 189 232 m 346 875 q 270 893 293 875 q 242 936 247 911 q 240 982 238 961 l 324 982 q 332 957 321 965 q 358 949 343 949 q 388 956 375 949 q 403 982 400 964 l 488 982 q 447 906 482 936 q 346 875 413 875 m 325 1013 l 235 1117 l 382 1117 l 424 1013 l 325 1013 z "},"Ẳ":{"ha":547,"x_min":-43,"x_max":486,"o":"m -43 0 l 219 821 l 451 821 l 479 0 l 299 0 l 296 151 l 176 151 l 131 0 l -43 0 m 189 232 l 304 232 l 311 678 l 189 232 m 346 875 q 269 893 292 875 q 242 936 246 911 q 239 982 238 961 l 324 982 q 331 957 319 965 q 357 949 342 949 q 385 956 372 949 q 401 982 399 964 l 486 982 q 446 906 481 936 q 346 875 411 875 m 324 1000 l 328 1022 q 339 1044 331 1038 q 357 1056 347 1050 q 367 1071 367 1061 l 369 1082 q 370 1093 371 1089 q 363 1097 369 1097 q 351 1078 353 1097 l 283 1088 q 378 1151 294 1151 q 442 1133 422 1151 q 463 1078 463 1114 l 463 1074 q 449 1044 457 1051 q 432 1035 440 1036 q 418 1031 424 1033 q 410 1017 413 1028 l 408 1000 l 324 1000 z "},"Ẵ":{"ha":547,"x_min":-43,"x_max":506,"o":"m -43 0 l 219 821 l 451 821 l 479 0 l 299 0 l 296 151 l 176 151 l 131 0 l -43 0 m 189 232 l 304 232 l 311 678 l 189 232 m 346 875 q 270 893 293 875 q 242 936 247 911 q 240 982 238 961 l 324 982 q 332 957 321 965 q 358 949 343 949 q 388 956 375 949 q 403 982 400 964 l 488 982 q 447 906 482 936 q 346 875 413 875 m 415 1010 q 384 1016 399 1010 q 356 1031 369 1022 q 338 1041 347 1036 q 314 1046 328 1046 q 292 1035 300 1046 q 281 1011 283 1024 l 240 1011 q 270 1086 247 1057 q 324 1115 293 1115 q 356 1110 342 1115 q 383 1097 371 1106 q 404 1088 393 1092 q 425 1083 415 1083 q 449 1093 442 1083 q 460 1113 457 1103 l 506 1113 q 469 1036 499 1063 q 415 1010 440 1010 z "},"Ǎ":{"ha":547,"x_min":-43,"x_max":546,"o":"m -43 0 l 219 821 l 451 821 l 479 0 l 299 0 l 296 151 l 176 151 l 131 0 l -43 0 m 189 232 l 304 232 l 311 678 l 189 232 m 301 876 l 189 1015 l 290 1015 l 358 946 l 446 1014 l 546 1014 l 390 876 l 301 876 z "},"Â":{"ha":547,"x_min":-43,"x_max":528,"o":"m -43 0 l 219 821 l 451 821 l 479 0 l 299 0 l 296 151 l 176 151 l 131 0 l -43 0 m 189 232 l 304 232 l 311 678 l 189 232 m 171 876 l 324 1015 l 414 1015 l 528 876 l 428 876 l 360 946 l 272 876 l 171 876 z "},"Ấ":{"ha":547,"x_min":-43,"x_max":692,"o":"m -43 0 l 219 821 l 451 821 l 479 0 l 299 0 l 296 151 l 176 151 l 131 0 l -43 0 m 189 232 l 304 232 l 311 678 l 189 232 m 208 869 l 321 983 l 406 983 l 486 869 l 396 869 l 356 918 l 301 869 l 208 869 m 479 936 l 544 1040 l 692 1040 l 579 936 l 479 936 z "},"Ậ":{"ha":547,"x_min":-43,"x_max":528,"o":"m -43 0 l 219 821 l 451 821 l 479 0 l 299 0 l 296 151 l 176 151 l 131 0 l -43 0 m 189 232 l 304 232 l 311 678 l 189 232 m 207 -179 q 159 -160 178 -179 q 140 -115 140 -142 q 159 -71 140 -89 q 207 -53 178 -53 q 253 -71 235 -53 q 271 -115 271 -89 q 253 -160 271 -142 q 207 -179 235 -179 m 171 876 l 324 1015 l 414 1015 l 528 876 l 428 876 l 360 946 l 272 876 l 171 876 z "},"Ầ":{"ha":547,"x_min":-43,"x_max":607,"o":"m -43 0 l 219 821 l 451 821 l 479 0 l 299 0 l 296 151 l 176 151 l 131 0 l -43 0 m 189 232 l 304 232 l 311 678 l 189 232 m 208 869 l 321 983 l 406 983 l 486 869 l 396 869 l 356 918 l 301 869 l 208 869 m 507 936 l 417 1040 l 565 1040 l 607 936 l 507 936 z "},"Ẩ":{"ha":547,"x_min":-43,"x_max":646,"o":"m -43 0 l 219 821 l 451 821 l 479 0 l 299 0 l 296 151 l 176 151 l 131 0 l -43 0 m 189 232 l 304 232 l 311 678 l 189 232 m 208 869 l 321 983 l 406 983 l 486 869 l 396 869 l 356 918 l 301 869 l 208 869 m 507 924 l 511 947 q 522 968 514 963 q 540 979 531 974 q 550 994 550 985 l 553 1007 q 553 1017 554 1013 q 547 1022 553 1022 q 533 1003 536 1022 l 467 1013 q 497 1060 474 1044 q 560 1075 519 1075 q 626 1057 606 1075 q 640 1003 646 1039 l 639 997 q 629 968 636 976 q 614 958 622 960 q 600 954 606 957 q 593 940 594 951 l 590 924 l 507 924 z "},"Ẫ":{"ha":547,"x_min":-43,"x_max":507,"o":"m -43 0 l 219 821 l 451 821 l 479 0 l 299 0 l 296 151 l 176 151 l 131 0 l -43 0 m 189 232 l 304 232 l 311 678 l 189 232 m 208 869 l 321 983 l 406 983 l 486 869 l 396 869 l 356 918 l 301 869 l 208 869 m 414 1004 q 384 1011 399 1004 q 358 1025 369 1018 q 335 1036 346 1032 q 313 1040 325 1040 q 293 1030 301 1040 q 282 1006 285 1019 l 240 1006 q 271 1083 247 1056 q 325 1111 294 1111 q 354 1106 340 1111 q 382 1093 368 1100 q 405 1082 394 1088 q 426 1076 415 1076 q 449 1086 440 1076 q 460 1107 457 1096 l 506 1107 q 485 1051 501 1074 q 450 1016 469 1028 q 414 1004 431 1004 z "},"Ä":{"ha":547,"x_min":-43,"x_max":508,"o":"m -43 0 l 219 821 l 451 821 l 479 0 l 299 0 l 296 151 l 176 151 l 131 0 l -43 0 m 189 232 l 304 232 l 311 678 l 189 232 m 275 885 q 228 903 247 885 q 210 949 210 922 q 228 993 210 975 q 275 1011 247 1011 q 322 993 304 1011 q 340 949 340 975 q 322 903 340 922 q 275 885 304 885 m 443 885 q 395 903 414 885 q 376 949 376 922 q 395 993 376 975 q 443 1011 414 1011 q 489 993 471 1011 q 507 949 507 975 q 489 903 507 922 q 443 885 471 885 z "},"Ạ":{"ha":547,"x_min":-43,"x_max":479,"o":"m -43 0 l 219 821 l 451 821 l 479 0 l 299 0 l 296 151 l 176 151 l 131 0 l -43 0 m 189 232 l 304 232 l 311 678 l 189 232 m 207 -179 q 159 -160 178 -179 q 140 -115 140 -142 q 159 -71 140 -89 q 207 -53 178 -53 q 253 -71 235 -53 q 271 -115 271 -89 q 253 -160 271 -142 q 207 -179 235 -179 z "},"À":{"ha":547,"x_min":-43,"x_max":479,"o":"m -43 0 l 219 821 l 451 821 l 479 0 l 299 0 l 296 151 l 176 151 l 131 0 l -43 0 m 189 232 l 304 232 l 311 678 l 189 232 m 328 881 l 174 1007 l 322 1007 l 428 881 l 328 881 z "},"Ả":{"ha":547,"x_min":-43,"x_max":479,"o":"m -43 0 l 219 821 l 451 821 l 479 0 l 299 0 l 296 151 l 176 151 l 131 0 l -43 0 m 189 232 l 304 232 l 311 678 l 189 232 m 304 857 l 308 888 q 326 917 311 908 q 354 932 340 925 q 369 957 368 939 l 372 969 q 370 991 374 982 q 351 1000 367 1000 q 324 971 331 1000 l 253 982 q 290 1039 263 1019 q 367 1058 318 1058 q 445 1034 421 1058 q 461 965 469 1010 l 460 960 q 447 919 457 931 q 424 905 436 908 q 402 897 411 901 q 392 879 393 893 l 389 857 l 304 857 z "},"Ā":{"ha":547,"x_min":-43,"x_max":506,"o":"m -43 0 l 219 821 l 451 821 l 479 0 l 299 0 l 296 151 l 176 151 l 131 0 l -43 0 m 189 232 l 304 232 l 311 678 l 189 232 m 210 897 l 219 978 l 506 978 l 496 897 l 210 897 z "},"Ą":{"ha":547,"x_min":-43,"x_max":479,"o":"m -43 0 l 219 821 l 451 821 l 479 0 l 299 0 l 296 151 l 176 151 l 131 0 l -43 0 m 189 232 l 304 232 l 311 678 l 189 232 m 368 -200 q 290 -173 318 -200 q 267 -111 263 -146 q 309 -39 274 -72 q 393 1 344 -6 l 457 0 q 397 -39 418 -12 q 372 -89 376 -65 q 385 -129 369 -115 q 418 -143 400 -143 q 436 -140 428 -143 q 447 -137 444 -137 l 461 -179 q 431 -192 451 -183 q 368 -200 410 -200 z "},"Å":{"ha":547,"x_min":-43,"x_max":489,"o":"m -43 0 l 219 821 l 451 821 l 479 0 l 299 0 l 296 151 l 176 151 l 131 0 l -43 0 m 189 232 l 304 232 l 311 678 l 189 232 m 346 863 q 265 896 294 863 q 242 975 235 929 q 286 1057 247 1024 q 378 1090 325 1090 q 459 1057 429 1090 q 482 975 489 1024 q 435 896 476 929 q 346 863 394 863 m 354 926 q 395 940 378 926 q 415 975 413 954 q 405 1013 418 999 q 368 1028 392 1028 q 328 1013 344 1028 q 308 975 313 999 q 319 940 307 954 q 354 926 332 926 z "},"Ã":{"ha":547,"x_min":-43,"x_max":526,"o":"m -43 0 l 219 821 l 451 821 l 479 0 l 299 0 l 296 151 l 176 151 l 131 0 l -43 0 m 189 232 l 304 232 l 311 678 l 189 232 m 414 885 q 376 892 393 885 q 343 911 360 900 q 315 928 329 921 q 283 935 300 935 q 254 922 267 935 q 236 886 242 908 l 189 886 q 226 974 197 940 q 296 1008 256 1008 q 335 1001 318 1008 q 369 982 353 993 q 398 967 385 974 q 426 961 411 961 q 458 973 447 961 q 475 1004 469 985 l 528 1004 q 483 916 518 947 q 414 885 449 885 z "},"B":{"ha":564,"x_min":10,"x_max":567,"o":"m 10 0 l 125 821 l 417 821 q 531 784 494 821 q 557 682 567 747 l 544 589 q 524 523 539 553 q 486 472 510 493 q 442 449 467 457 q 397 439 418 440 l 396 438 q 441 432 419 438 q 481 410 463 426 q 510 360 500 392 q 513 283 519 329 l 499 171 q 460 67 489 104 q 387 15 431 29 q 285 0 343 0 l 10 0 m 183 85 l 258 85 q 294 92 279 85 q 319 121 308 100 q 336 182 331 142 l 350 279 q 341 352 358 335 q 293 369 324 369 l 224 369 l 183 85 m 238 471 l 304 471 q 358 493 336 471 q 386 571 379 515 l 399 653 q 392 715 406 696 q 353 733 378 733 l 274 733 l 238 471 z "},"Б":{"ha":539,"x_min":10,"x_max":531,"o":"m 10 0 l 126 821 l 531 821 l 514 707 l 268 707 l 254 606 l 376 606 q 456 592 422 606 q 506 542 490 578 q 513 442 522 507 l 481 215 q 452 103 471 146 q 407 38 433 60 q 346 8 381 17 q 268 0 311 0 l 10 0 m 244 83 q 283 93 269 83 q 305 122 297 103 q 315 167 313 142 l 351 426 q 353 469 356 450 q 340 497 351 488 q 301 507 328 507 l 239 507 l 181 83 l 244 83 z "},"C":{"ha":553,"x_min":17,"x_max":563,"o":"m 231 -17 q 111 -1 161 -17 q 39 66 61 15 q 31 217 17 117 l 92 647 q 138 761 103 721 q 228 817 172 801 q 351 833 283 833 q 469 817 421 833 q 540 760 517 800 q 551 647 563 719 l 528 478 l 367 478 l 390 654 q 390 705 396 688 q 369 728 383 722 q 336 733 356 733 q 301 728 317 733 q 276 705 286 722 q 260 654 265 688 l 190 157 q 192 108 186 125 q 211 84 197 90 q 244 78 225 78 q 279 84 264 78 q 306 108 294 90 q 321 157 318 125 l 344 319 l 506 319 l 490 218 q 442 66 476 117 q 354 -1 407 15 q 231 -17 301 -17 z "},"Ć":{"ha":553,"x_min":17,"x_max":563,"o":"m 231 -17 q 111 -1 161 -17 q 39 66 61 15 q 31 217 17 117 l 92 647 q 138 761 103 721 q 228 817 172 801 q 351 833 283 833 q 469 817 421 833 q 540 760 517 800 q 551 647 563 719 l 528 478 l 367 478 l 390 654 q 390 705 396 688 q 369 728 383 722 q 336 733 356 733 q 301 728 317 733 q 276 705 286 722 q 260 654 265 688 l 190 157 q 192 108 186 125 q 211 84 197 90 q 244 78 225 78 q 279 84 264 78 q 306 108 294 90 q 321 157 318 125 l 344 319 l 506 319 l 490 218 q 442 66 476 117 q 354 -1 407 15 q 231 -17 301 -17 m 251 881 l 378 1011 l 524 1011 l 342 881 l 251 881 z "},"Č":{"ha":553,"x_min":17,"x_max":563,"o":"m 231 -17 q 111 -1 161 -17 q 39 66 61 15 q 31 217 17 117 l 92 647 q 138 761 103 721 q 228 817 172 801 q 351 833 283 833 q 469 817 421 833 q 540 760 517 800 q 551 647 563 719 l 528 478 l 367 478 l 390 654 q 390 705 396 688 q 369 728 383 722 q 336 733 356 733 q 301 728 317 733 q 276 705 286 722 q 260 654 265 688 l 190 157 q 192 108 186 125 q 211 84 197 90 q 244 78 225 78 q 279 84 264 78 q 306 108 294 90 q 321 157 318 125 l 344 319 l 506 319 l 490 218 q 442 66 476 117 q 354 -1 407 15 q 231 -17 301 -17 m 304 876 l 192 1015 l 293 1015 l 361 946 l 449 1014 l 549 1014 l 393 876 l 304 876 z "},"Ç":{"ha":553,"x_min":17,"x_max":563,"o":"m 231 -17 q 111 -1 161 -17 q 39 66 61 15 q 31 217 17 117 l 92 647 q 138 761 103 721 q 228 817 172 801 q 351 833 283 833 q 469 817 421 833 q 540 760 517 800 q 551 647 563 719 l 528 478 l 367 478 l 390 654 q 390 705 396 688 q 369 728 383 722 q 336 733 356 733 q 301 728 317 733 q 276 705 286 722 q 260 654 265 688 l 190 157 q 192 108 186 125 q 211 84 197 90 q 244 78 225 78 q 279 84 264 78 q 306 108 294 90 q 321 157 318 125 l 344 319 l 506 319 l 490 218 q 442 66 476 117 q 354 -1 407 15 q 231 -17 301 -17 m 189 -219 q 140 -209 161 -219 q 110 -193 119 -199 l 139 -143 q 161 -156 146 -150 q 190 -162 176 -162 q 225 -151 213 -162 q 239 -125 238 -140 q 211 -94 244 -94 q 195 -98 203 -94 q 182 -106 188 -101 l 142 -81 l 197 0 l 258 0 l 211 -67 l 204 -62 q 227 -53 214 -57 q 256 -50 240 -50 q 314 -74 297 -50 q 328 -126 331 -97 q 285 -192 322 -165 q 189 -219 247 -219 z "},"Ċ":{"ha":553,"x_min":17,"x_max":563,"o":"m 231 -17 q 111 -1 161 -17 q 39 66 61 15 q 31 217 17 117 l 92 647 q 138 761 103 721 q 228 817 172 801 q 351 833 283 833 q 469 817 421 833 q 540 760 517 800 q 551 647 563 719 l 528 478 l 367 478 l 390 654 q 390 705 396 688 q 369 728 383 722 q 336 733 356 733 q 301 728 317 733 q 276 705 286 722 q 260 654 265 688 l 190 157 q 192 108 186 125 q 211 84 197 90 q 244 78 225 78 q 279 84 264 78 q 306 108 294 90 q 321 157 318 125 l 344 319 l 506 319 l 490 218 q 442 66 476 117 q 354 -1 407 15 q 231 -17 301 -17 m 379 876 q 322 899 346 876 q 297 954 299 922 q 322 1011 297 988 q 381 1035 347 1035 q 439 1011 415 1035 q 463 954 463 988 q 439 899 464 922 q 379 876 414 876 z "},"Ч":{"ha":543,"x_min":38,"x_max":553,"o":"m 274 0 l 307 225 q 253 199 290 213 q 178 186 217 186 q 80 208 111 186 q 43 272 49 231 q 46 371 38 313 l 110 821 l 268 821 l 204 371 q 209 314 199 333 q 254 294 219 294 q 295 301 279 294 q 318 314 311 308 l 390 821 l 553 821 l 436 0 l 274 0 z "},"D":{"ha":567,"x_min":10,"x_max":572,"o":"m 10 0 l 126 821 l 414 821 q 508 804 472 821 q 558 753 543 788 q 564 668 572 719 l 494 176 q 456 69 486 108 q 381 15 426 31 q 275 0 335 0 l 10 0 m 190 83 l 261 83 q 307 100 289 83 q 332 163 325 117 l 400 650 q 393 713 407 696 q 351 729 379 729 l 281 729 l 190 83 z "},"Ď":{"ha":567,"x_min":10,"x_max":572,"o":"m 10 0 l 126 821 l 414 821 q 508 804 472 821 q 558 753 543 788 q 564 668 572 719 l 494 176 q 456 69 486 108 q 381 15 426 31 q 275 0 335 0 l 10 0 m 190 83 l 261 83 q 307 100 289 83 q 332 163 325 117 l 400 650 q 393 713 407 696 q 351 729 379 729 l 281 729 l 190 83 m 311 876 l 199 1015 l 300 1015 l 368 946 l 456 1014 l 556 1014 l 400 876 l 311 876 z "},"Đ":{"ha":619,"x_min":11,"x_max":608,"o":"m 25 0 l 142 821 l 451 821 q 544 804 508 821 q 594 753 579 788 q 600 668 608 719 l 532 176 q 494 69 524 108 q 418 15 464 31 q 311 0 372 0 l 25 0 m 11 356 l 24 450 l 313 450 l 299 356 l 11 356 m 206 83 l 288 83 q 342 100 322 83 q 369 163 363 117 l 438 650 q 428 713 444 696 q 378 729 413 729 l 296 729 l 206 83 z "},"Д":{"ha":808,"x_min":-51,"x_max":751,"o":"m -51 -158 l -14 103 l 60 103 q 114 136 88 106 q 153 217 140 167 q 183 335 167 269 q 215 469 199 400 q 246 604 231 538 q 272 727 261 671 q 290 821 283 783 l 713 821 l 613 103 l 751 103 l 714 -158 l 581 -158 l 599 -31 l 100 -31 l 82 -158 l -51 -158 m 258 103 l 454 103 l 538 707 l 425 707 l 321 235 q 297 158 311 197 q 258 103 282 118 z "},"Δ":{"ha":771,"x_min":1,"x_max":692,"o":"m 1 0 l 346 813 l 510 813 l 692 0 l 1 0 m 204 122 l 510 122 l 396 621 l 204 122 z "},"Ђ":{"ha":644,"x_min":64,"x_max":622,"o":"m 94 0 l 194 707 l 64 707 l 81 821 l 503 821 l 488 707 l 356 707 l 329 513 q 385 555 344 535 q 478 575 425 575 q 559 560 525 575 q 608 510 593 546 q 613 410 622 474 l 588 225 q 556 100 576 146 q 506 33 535 54 q 443 6 478 11 q 367 0 408 0 q 333 4 351 0 q 304 14 314 8 l 315 86 q 331 84 322 85 q 344 83 339 83 q 397 108 379 83 q 422 182 415 132 l 453 397 q 447 458 457 439 q 394 476 436 476 q 344 464 363 476 q 318 436 326 451 l 256 0 l 94 0 z "},"Ѕ":{"ha":543,"x_min":6,"x_max":554,"o":"m 233 -10 q 97 11 150 -10 q 25 85 44 32 q 18 233 6 138 l 25 282 l 193 282 l 185 219 q 182 141 178 168 q 201 103 186 114 q 236 93 215 93 q 288 116 267 93 q 319 206 310 139 q 315 283 328 257 q 269 324 301 308 q 185 364 238 340 q 112 414 139 385 q 76 488 85 443 q 75 596 67 532 q 115 726 86 676 q 198 799 144 776 q 338 822 251 822 q 502 774 450 822 q 540 631 554 726 l 526 532 q 446 532 486 532 q 365 532 406 532 l 374 582 q 371 669 382 644 q 322 694 360 694 q 267 672 285 694 q 242 600 250 650 q 249 533 236 558 q 287 494 261 508 q 351 464 313 479 q 445 416 410 440 q 492 349 481 392 q 493 228 504 307 q 443 87 481 139 q 351 13 406 35 q 233 -10 297 -10 z "},"Џ":{"ha":578,"x_min":10,"x_max":586,"o":"m 169 -137 l 188 0 l 10 0 l 125 821 l 293 821 l 194 114 l 319 114 l 418 821 l 586 821 l 471 0 l 292 0 l 274 -137 l 169 -137 z "},"E":{"ha":465,"x_min":10,"x_max":504,"o":"m 10 0 l 126 821 l 504 821 l 488 707 l 278 707 l 247 488 l 425 488 l 407 361 l 229 361 l 194 111 l 404 111 l 388 0 l 10 0 z "},"É":{"ha":465,"x_min":10,"x_max":504,"o":"m 10 0 l 126 821 l 504 821 l 488 707 l 278 707 l 247 488 l 425 488 l 407 361 l 229 361 l 194 111 l 404 111 l 388 0 l 10 0 m 219 881 l 346 1011 l 492 1011 l 310 881 l 219 881 z "},"Ě":{"ha":465,"x_min":10,"x_max":517,"o":"m 10 0 l 126 821 l 504 821 l 488 707 l 278 707 l 247 488 l 425 488 l 407 361 l 229 361 l 194 111 l 404 111 l 388 0 l 10 0 m 272 876 l 160 1015 l 261 1015 l 329 946 l 417 1014 l 517 1014 l 361 876 l 272 876 z "},"Ê":{"ha":465,"x_min":10,"x_max":504,"o":"m 10 0 l 126 821 l 504 821 l 488 707 l 278 707 l 247 488 l 425 488 l 407 361 l 229 361 l 194 111 l 404 111 l 388 0 l 10 0 m 142 876 l 294 1015 l 385 1015 l 499 876 l 399 876 l 331 946 l 243 876 l 142 876 z "},"Ế":{"ha":465,"x_min":10,"x_max":663,"o":"m 10 0 l 126 821 l 504 821 l 488 707 l 278 707 l 247 488 l 425 488 l 407 361 l 229 361 l 194 111 l 404 111 l 388 0 l 10 0 m 179 869 l 292 983 l 376 983 l 457 869 l 367 869 l 326 918 l 272 869 l 179 869 m 450 936 l 515 1040 l 663 1040 l 550 936 l 450 936 z "},"Ệ":{"ha":465,"x_min":10,"x_max":504,"o":"m 10 0 l 126 821 l 504 821 l 488 707 l 278 707 l 247 488 l 425 488 l 407 361 l 229 361 l 194 111 l 404 111 l 388 0 l 10 0 m 169 -179 q 122 -160 140 -179 q 103 -115 103 -142 q 122 -71 103 -89 q 169 -53 140 -53 q 215 -71 197 -53 q 233 -115 233 -89 q 215 -160 233 -142 q 169 -179 197 -179 m 142 876 l 294 1015 l 385 1015 l 499 876 l 399 876 l 331 946 l 243 876 l 142 876 z "},"Ề":{"ha":465,"x_min":10,"x_max":578,"o":"m 10 0 l 126 821 l 504 821 l 488 707 l 278 707 l 247 488 l 425 488 l 407 361 l 229 361 l 194 111 l 404 111 l 388 0 l 10 0 m 179 869 l 292 983 l 376 983 l 457 869 l 367 869 l 326 918 l 272 869 l 179 869 m 478 936 l 388 1040 l 536 1040 l 578 936 l 478 936 z "},"Ể":{"ha":465,"x_min":10,"x_max":617,"o":"m 10 0 l 126 821 l 504 821 l 488 707 l 278 707 l 247 488 l 425 488 l 407 361 l 229 361 l 194 111 l 404 111 l 388 0 l 10 0 m 179 869 l 292 983 l 376 983 l 457 869 l 367 869 l 326 918 l 272 869 l 179 869 m 478 924 l 482 947 q 493 968 485 963 q 511 979 501 974 q 521 994 521 985 l 524 1007 q 524 1017 525 1013 q 518 1022 524 1022 q 504 1003 507 1022 l 438 1013 q 467 1060 444 1044 q 531 1075 490 1075 q 597 1057 576 1075 q 611 1003 617 1039 l 610 997 q 600 968 607 976 q 585 958 593 960 q 571 954 576 957 q 564 940 565 951 l 561 924 l 478 924 z "},"Ễ":{"ha":465,"x_min":10,"x_max":504,"o":"m 10 0 l 126 821 l 504 821 l 488 707 l 278 707 l 247 488 l 425 488 l 407 361 l 229 361 l 194 111 l 404 111 l 388 0 l 10 0 m 179 869 l 292 983 l 376 983 l 457 869 l 367 869 l 326 918 l 272 869 l 179 869 m 385 1004 q 355 1011 369 1004 q 329 1025 340 1018 q 306 1036 317 1032 q 283 1040 296 1040 q 264 1030 272 1040 q 253 1006 256 1019 l 211 1006 q 242 1083 218 1056 q 296 1111 265 1111 q 325 1106 311 1111 q 353 1093 339 1100 q 376 1082 365 1088 q 397 1076 386 1076 q 419 1086 411 1076 q 431 1107 428 1096 l 476 1107 q 456 1051 472 1074 q 421 1016 440 1028 q 385 1004 401 1004 z "},"Ë":{"ha":465,"x_min":10,"x_max":504,"o":"m 10 0 l 126 821 l 504 821 l 488 707 l 278 707 l 247 488 l 425 488 l 407 361 l 229 361 l 194 111 l 404 111 l 388 0 l 10 0 m 246 885 q 199 903 218 885 q 181 949 181 922 q 199 993 181 975 q 246 1011 218 1011 q 293 993 275 1011 q 311 949 311 975 q 293 903 311 922 q 246 885 275 885 m 414 885 q 366 903 385 885 q 347 949 347 922 q 366 993 347 975 q 414 1011 385 1011 q 460 993 442 1011 q 478 949 478 975 q 460 903 478 922 q 414 885 442 885 z "},"Ė":{"ha":465,"x_min":10,"x_max":504,"o":"m 10 0 l 126 821 l 504 821 l 488 707 l 278 707 l 247 488 l 425 488 l 407 361 l 229 361 l 194 111 l 404 111 l 388 0 l 10 0 m 347 876 q 290 899 314 876 q 265 954 267 922 q 290 1011 265 988 q 349 1035 315 1035 q 407 1011 383 1035 q 431 954 431 988 q 407 899 432 922 q 347 876 382 876 z "},"Ẹ":{"ha":465,"x_min":10,"x_max":504,"o":"m 10 0 l 126 821 l 504 821 l 488 707 l 278 707 l 247 488 l 425 488 l 407 361 l 229 361 l 194 111 l 404 111 l 388 0 l 10 0 m 169 -179 q 122 -160 140 -179 q 103 -115 103 -142 q 122 -71 103 -89 q 169 -53 140 -53 q 215 -71 197 -53 q 233 -115 233 -89 q 215 -160 233 -142 q 169 -179 197 -179 z "},"Ф":{"ha":740,"x_min":17,"x_max":740,"o":"m 238 -37 l 257 99 l 210 99 q 64 139 111 99 q 31 278 17 179 l 71 554 q 130 670 81 629 q 274 711 179 711 l 343 711 l 358 821 l 517 821 l 501 711 l 569 711 q 702 671 664 711 q 731 553 740 631 l 692 279 q 618 138 676 176 q 461 99 560 99 l 415 99 l 397 -37 l 238 -37 m 247 182 l 268 182 l 331 619 l 310 619 q 256 601 276 619 q 229 538 236 582 l 192 265 q 199 201 185 221 q 247 182 214 182 m 447 182 q 501 200 481 182 q 528 265 522 218 l 567 536 q 558 601 574 583 q 508 619 542 619 l 490 619 l 428 182 l 447 182 z "},"È":{"ha":465,"x_min":10,"x_max":504,"o":"m 10 0 l 126 821 l 504 821 l 488 707 l 278 707 l 247 488 l 425 488 l 407 361 l 229 361 l 194 111 l 404 111 l 388 0 l 10 0 m 299 881 l 144 1007 l 293 1007 l 399 881 l 299 881 z "},"Ẻ":{"ha":465,"x_min":10,"x_max":504,"o":"m 10 0 l 126 821 l 504 821 l 488 707 l 278 707 l 247 488 l 425 488 l 407 361 l 229 361 l 194 111 l 404 111 l 388 0 l 10 0 m 275 857 l 279 888 q 297 917 282 908 q 325 932 311 925 q 340 957 339 939 l 343 969 q 341 991 344 982 q 322 1000 338 1000 q 294 971 301 1000 l 224 982 q 261 1039 233 1019 q 338 1058 289 1058 q 416 1034 392 1058 q 432 965 440 1010 l 431 960 q 417 919 428 931 q 394 905 407 908 q 373 897 382 901 q 363 879 364 893 l 360 857 l 275 857 z "},"Л":{"ha":625,"x_min":-44,"x_max":633,"o":"m -44 0 l -32 83 q 20 114 -6 83 q 56 189 46 144 l 190 821 l 633 821 l 517 0 l 356 0 l 454 707 l 332 707 l 211 147 q 199 97 206 122 q 177 49 192 71 q 134 15 163 28 q 58 0 106 1 l -44 0 z "},"М":{"ha":746,"x_min":10,"x_max":754,"o":"m 10 0 l 126 821 l 328 821 l 365 290 l 554 821 l 754 821 l 638 0 l 496 0 l 582 614 l 378 0 l 268 0 l 238 614 l 151 0 l 10 0 z "},"Ē":{"ha":465,"x_min":10,"x_max":504,"o":"m 10 0 l 126 821 l 504 821 l 488 707 l 278 707 l 247 488 l 425 488 l 407 361 l 229 361 l 194 111 l 404 111 l 388 0 l 10 0 m 181 897 l 190 978 l 476 978 l 467 897 l 181 897 z "},"Н":{"ha":575,"x_min":10,"x_max":583,"o":"m 10 0 l 126 821 l 288 821 l 239 485 l 374 485 l 422 821 l 583 821 l 467 0 l 306 0 l 358 365 l 222 365 l 171 0 l 10 0 z "},"Ŋ":{"ha":569,"x_min":10,"x_max":579,"o":"m 236 -258 q 203 -258 225 -258 q 171 -257 182 -258 l 186 -146 l 229 -146 q 288 -132 271 -146 q 311 -72 304 -118 l 322 3 l 218 464 l 151 0 l 10 0 l 126 821 l 267 821 l 367 324 l 438 821 l 579 821 l 454 -54 q 420 -178 444 -135 q 352 -240 396 -222 q 236 -258 308 -258 z "},"Ę":{"ha":465,"x_min":10,"x_max":504,"o":"m 10 0 l 126 821 l 504 821 l 488 707 l 278 707 l 247 488 l 425 488 l 407 361 l 229 361 l 194 111 l 404 111 l 388 0 l 10 0 m 285 -186 q 207 -159 235 -186 q 183 -97 179 -132 q 226 -25 190 -58 q 310 15 261 8 l 374 14 q 314 -25 335 1 q 289 -75 293 -51 q 301 -115 286 -101 q 335 -129 317 -129 q 353 -126 344 -129 q 364 -124 361 -124 l 378 -165 q 347 -178 368 -169 q 285 -186 326 -186 z "},"Р":{"ha":546,"x_min":10,"x_max":574,"o":"m 10 0 l 126 821 l 418 821 q 537 784 500 821 q 564 682 574 747 l 544 540 q 516 437 538 485 q 454 360 494 389 q 347 331 414 331 l 225 331 l 178 0 l 10 0 m 238 419 l 300 419 q 355 451 333 419 q 386 557 376 483 l 393 613 q 393 706 403 678 q 357 733 383 733 l 282 733 l 238 419 z "},"Э":{"ha":551,"x_min":10,"x_max":556,"o":"m 219 -17 q 101 -1 150 -17 q 31 66 53 15 q 24 218 10 117 l 32 268 l 193 268 l 178 158 q 179 109 174 126 q 199 86 185 92 q 233 81 214 81 q 268 86 253 81 q 294 109 283 92 q 310 158 306 126 l 336 346 l 151 346 l 167 454 l 351 454 l 379 650 q 378 700 383 683 q 359 723 372 717 q 325 729 346 729 q 290 724 306 729 q 263 701 274 718 q 247 653 253 685 l 229 522 l 68 522 l 85 647 q 129 760 96 719 q 216 817 163 800 q 338 833 269 833 q 458 817 408 833 q 532 760 508 800 q 546 647 556 719 l 486 217 q 435 66 472 117 q 344 -1 399 15 q 219 -17 289 -17 z "},"С":{"ha":553,"x_min":17,"x_max":563,"o":"m 231 -17 q 111 -1 161 -17 q 39 66 61 15 q 31 217 17 117 l 92 647 q 138 761 103 721 q 228 817 172 801 q 351 833 283 833 q 469 817 421 833 q 540 760 517 800 q 551 647 563 719 l 528 478 l 367 478 l 390 654 q 390 705 396 688 q 369 728 383 722 q 336 733 356 733 q 301 728 317 733 q 276 705 286 722 q 260 654 265 688 l 190 157 q 192 108 186 125 q 211 84 197 90 q 244 78 225 78 q 279 84 264 78 q 306 108 294 90 q 321 157 318 125 l 344 319 l 506 319 l 490 218 q 442 66 476 117 q 354 -1 407 15 q 231 -17 301 -17 z "},"Ð":{"ha":619,"x_min":11,"x_max":608,"o":"m 25 0 l 142 821 l 451 821 q 544 804 508 821 q 594 753 579 788 q 600 668 608 719 l 532 176 q 494 69 524 108 q 418 15 464 31 q 311 0 372 0 l 25 0 m 11 356 l 24 450 l 313 450 l 299 356 l 11 356 m 206 83 l 288 83 q 342 100 322 83 q 369 163 363 117 l 438 650 q 428 713 444 696 q 378 729 413 729 l 296 729 l 206 83 z "},"Ẽ":{"ha":465,"x_min":10,"x_max":504,"o":"m 10 0 l 126 821 l 504 821 l 488 707 l 278 707 l 247 488 l 425 488 l 407 361 l 229 361 l 194 111 l 404 111 l 388 0 l 10 0 m 385 885 q 347 892 364 885 q 314 911 331 900 q 285 928 300 921 q 254 935 271 935 q 225 922 238 935 q 207 886 213 908 l 160 886 q 197 974 168 940 q 267 1008 226 1008 q 306 1001 289 1008 q 340 982 324 993 q 369 967 356 974 q 397 961 382 961 q 429 973 418 961 q 446 1004 440 985 l 499 1004 q 454 916 489 947 q 385 885 419 885 z "},"F":{"ha":458,"x_min":10,"x_max":504,"o":"m 10 0 l 126 821 l 504 821 l 488 707 l 278 707 l 247 488 l 425 488 l 407 361 l 229 361 l 178 0 l 10 0 z "},"G":{"ha":553,"x_min":15,"x_max":561,"o":"m 179 -15 q 94 0 133 -15 q 35 60 54 15 q 28 196 15 106 l 92 646 q 135 758 101 718 q 224 815 169 799 q 344 831 278 831 q 463 815 413 831 q 537 758 513 799 q 551 646 561 718 l 533 531 l 378 531 l 394 654 q 393 705 400 688 q 372 728 386 722 q 335 733 357 733 q 297 728 314 733 q 269 705 281 722 q 253 654 257 688 l 183 157 q 185 108 179 125 q 206 84 190 90 q 243 78 222 78 q 297 97 274 78 q 325 157 319 117 l 349 321 l 282 321 l 294 413 l 517 413 l 460 0 l 339 0 l 339 64 q 333 56 336 60 q 328 49 331 51 q 274 5 310 25 q 179 -15 239 -15 z "},"Ğ":{"ha":553,"x_min":15,"x_max":561,"o":"m 179 -15 q 94 0 133 -15 q 35 60 54 15 q 28 196 15 106 l 92 646 q 135 758 101 718 q 224 815 169 799 q 344 831 278 831 q 463 815 413 831 q 537 758 513 799 q 551 646 561 718 l 533 531 l 378 531 l 394 654 q 393 705 400 688 q 372 728 386 722 q 335 733 357 733 q 297 728 314 733 q 269 705 281 722 q 253 654 257 688 l 183 157 q 185 108 179 125 q 206 84 190 90 q 243 78 222 78 q 297 97 274 78 q 325 157 319 117 l 349 321 l 282 321 l 294 413 l 517 413 l 460 0 l 339 0 l 339 64 q 333 56 336 60 q 328 49 331 51 q 274 5 310 25 q 179 -15 239 -15 m 349 874 q 271 888 300 874 q 229 924 242 903 q 214 969 217 946 q 213 1013 211 993 l 299 1013 q 315 965 297 981 q 361 950 333 950 q 412 965 390 950 q 442 1013 433 979 l 528 1013 q 501 945 522 976 q 443 894 481 914 q 349 874 406 874 z "},"Ģ":{"ha":553,"x_min":15,"x_max":561,"o":"m 179 -15 q 94 0 133 -15 q 35 60 54 15 q 28 196 15 106 l 92 646 q 135 758 101 718 q 224 815 169 799 q 344 831 278 831 q 463 815 413 831 q 537 758 513 799 q 551 646 561 718 l 533 531 l 378 531 l 394 654 q 393 705 400 688 q 372 728 386 722 q 335 733 357 733 q 297 728 314 733 q 269 705 281 722 q 253 654 257 688 l 183 157 q 185 108 179 125 q 206 84 190 90 q 243 78 222 78 q 297 97 274 78 q 325 157 319 117 l 349 321 l 282 321 l 294 413 l 517 413 l 460 0 l 339 0 l 339 64 q 333 56 336 60 q 328 49 331 51 q 274 5 310 25 q 179 -15 239 -15 m 118 -261 q 159 -204 144 -229 q 175 -165 174 -179 q 168 -149 176 -156 q 152 -131 160 -142 q 146 -103 144 -121 q 169 -67 149 -83 q 219 -50 190 -50 q 269 -67 251 -50 q 283 -110 286 -83 q 265 -156 282 -128 q 226 -212 249 -185 q 182 -261 204 -240 l 118 -261 z "},"Ġ":{"ha":553,"x_min":15,"x_max":561,"o":"m 179 -15 q 94 0 133 -15 q 35 60 54 15 q 28 196 15 106 l 92 646 q 135 758 101 718 q 224 815 169 799 q 344 831 278 831 q 463 815 413 831 q 537 758 513 799 q 551 646 561 718 l 533 531 l 378 531 l 394 654 q 393 705 400 688 q 372 728 386 722 q 335 733 357 733 q 297 728 314 733 q 269 705 281 722 q 253 654 257 688 l 183 157 q 185 108 179 125 q 206 84 190 90 q 243 78 222 78 q 297 97 274 78 q 325 157 319 117 l 349 321 l 282 321 l 294 413 l 517 413 l 460 0 l 339 0 l 339 64 q 333 56 336 60 q 328 49 331 51 q 274 5 310 25 q 179 -15 239 -15 m 379 876 q 322 899 346 876 q 297 954 299 922 q 322 1011 297 988 q 381 1035 347 1035 q 439 1011 415 1035 q 463 954 463 988 q 439 899 464 922 q 379 876 414 876 z "},"Г":{"ha":465,"x_min":10,"x_max":506,"o":"m 10 0 l 126 821 l 506 821 l 489 707 l 278 707 l 178 0 l 10 0 z "},"ẞ":{"ha":1107,"x_min":14,"x_max":1090,"o":"m 750 -10 q 629 11 678 -10 q 561 85 581 32 q 556 233 542 138 q 558 258 556 239 q 563 282 561 278 l 731 282 q 726 251 729 271 q 722 219 724 232 q 719 141 714 168 q 737 103 724 114 q 771 93 750 93 q 825 116 803 93 q 857 206 847 139 q 851 283 864 257 q 806 324 838 308 q 722 364 774 340 q 649 414 676 385 q 613 488 621 443 q 613 596 604 532 q 652 726 624 676 q 734 799 681 776 q 875 822 788 822 q 1038 774 986 822 q 1076 631 1090 726 l 1063 532 q 983 532 1022 532 q 903 532 943 532 l 910 582 q 908 669 919 644 q 860 694 897 694 q 804 672 822 694 q 779 600 786 650 q 787 528 772 554 q 829 490 801 503 q 888 464 857 476 q 981 416 946 440 q 1029 349 1017 392 q 1029 228 1042 307 q 936 42 1011 94 q 750 -10 861 -10 m 222 -10 q 101 11 149 -10 q 33 85 53 32 q 28 233 14 138 q 31 258 28 239 q 35 282 33 278 l 203 282 q 199 251 201 271 q 193 219 196 232 q 190 141 186 168 q 208 103 194 114 q 243 93 222 93 q 297 116 275 93 q 328 206 319 139 q 323 283 336 257 q 278 324 310 308 q 193 364 246 340 q 120 414 147 385 q 84 488 93 443 q 83 596 75 532 q 124 726 96 676 q 206 799 153 776 q 346 822 260 822 q 510 774 458 822 q 549 631 563 726 l 535 532 q 455 532 494 532 q 374 532 415 532 l 382 582 q 379 669 390 644 q 331 694 368 694 q 276 672 294 694 q 251 600 258 650 q 259 528 244 554 q 301 490 274 503 q 360 464 328 476 q 453 416 418 440 q 501 349 489 392 q 501 228 514 307 q 408 42 483 94 q 222 -10 332 -10 z "},"Ѓ":{"ha":465,"x_min":10,"x_max":506,"o":"m 10 0 l 126 821 l 506 821 l 489 707 l 278 707 l 178 0 l 10 0 m 225 881 l 351 1011 l 497 1011 l 315 881 l 225 881 z "},"H":{"ha":575,"x_min":10,"x_max":583,"o":"m 10 0 l 126 821 l 288 821 l 239 485 l 374 485 l 422 821 l 583 821 l 467 0 l 306 0 l 358 365 l 222 365 l 171 0 l 10 0 z "},"Х":{"ha":508,"x_min":-36,"x_max":561,"o":"m -36 0 l 146 422 l 88 821 l 249 821 l 282 547 l 392 821 l 561 821 l 388 422 l 442 0 l 281 0 l 244 274 l 136 0 l -36 0 z "},"Ъ":{"ha":572,"x_min":28,"x_max":540,"o":"m 28 0 l 128 707 l 50 707 l 68 821 l 304 821 l 274 606 l 396 606 q 474 592 440 606 q 524 542 508 578 q 531 442 540 507 l 499 215 q 471 103 489 146 q 426 38 453 60 q 364 8 399 17 q 286 0 329 0 l 28 0 m 200 83 l 264 83 q 303 96 289 83 q 326 138 318 108 q 342 221 335 167 q 355 313 347 261 q 368 407 363 365 q 372 461 372 439 q 360 495 372 483 q 321 507 349 507 l 258 507 q 230 295 246 403 q 200 83 214 188 z "},"Ħ":{"ha":574,"x_min":10,"x_max":603,"o":"m 32 650 l 50 725 l 603 725 l 585 650 l 32 650 m 10 0 l 126 821 l 288 821 l 239 485 l 374 485 l 422 821 l 583 821 l 467 0 l 306 0 l 358 365 l 222 365 l 171 0 l 10 0 z "},"I":{"ha":279,"x_min":10,"x_max":288,"o":"m 10 0 l 126 821 l 288 821 l 171 0 l 10 0 z "},"І":{"ha":279,"x_min":10,"x_max":288,"o":"m 10 0 l 126 821 l 288 821 l 171 0 l 10 0 z "},"Я":{"ha":572,"x_min":-37,"x_max":579,"o":"m 465 0 l 297 0 l 346 351 l 299 351 q 274 341 285 351 q 255 313 264 331 q 238 272 246 294 l 142 0 l -37 0 l 79 283 q 124 362 101 338 q 196 393 147 386 l 197 393 q 95 444 124 400 q 76 554 67 489 l 96 682 q 151 784 104 747 q 279 821 199 821 l 579 821 l 465 0 m 363 463 l 400 733 l 321 733 q 275 715 294 733 q 250 653 256 697 l 236 554 q 244 483 228 504 q 296 463 260 463 l 363 463 z "},"Í":{"ha":279,"x_min":10,"x_max":388,"o":"m 10 0 l 126 821 l 288 821 l 171 0 l 10 0 m 115 881 l 242 1011 l 388 1011 l 206 881 l 115 881 z "},"Ǐ":{"ha":279,"x_min":10,"x_max":413,"o":"m 10 0 l 126 821 l 288 821 l 171 0 l 10 0 m 168 876 l 56 1015 l 157 1015 l 225 946 l 313 1014 l 413 1014 l 257 876 l 168 876 z "},"Î":{"ha":279,"x_min":10,"x_max":393,"o":"m 10 0 l 126 821 l 288 821 l 171 0 l 10 0 m 36 876 l 189 1015 l 279 1015 l 393 876 l 293 876 l 225 946 l 138 876 l 36 876 z "},"Ï":{"ha":279,"x_min":10,"x_max":374,"o":"m 10 0 l 126 821 l 288 821 l 171 0 l 10 0 m 142 885 q 95 903 114 885 q 76 949 76 922 q 95 993 76 975 q 142 1011 114 1011 q 189 993 171 1011 q 207 949 207 975 q 189 903 207 922 q 142 885 171 885 m 310 885 q 262 903 281 885 q 243 949 243 922 q 262 993 243 975 q 310 1011 281 1011 q 356 993 338 1011 q 374 949 374 975 q 356 903 374 922 q 310 885 338 885 z "},"İ":{"ha":279,"x_min":10,"x_max":326,"o":"m 10 0 l 126 821 l 288 821 l 171 0 l 10 0 m 242 876 q 185 899 208 876 q 160 954 161 922 q 185 1011 160 988 q 243 1035 210 1035 q 301 1011 278 1035 q 325 954 325 988 q 301 899 326 922 q 242 876 276 876 z "},"Ị":{"ha":279,"x_min":8,"x_max":288,"o":"m 10 0 l 126 821 l 288 821 l 171 0 l 10 0 m 75 -179 q 27 -160 46 -179 q 8 -115 8 -142 q 27 -71 8 -89 q 75 -53 46 -53 q 121 -71 103 -53 q 139 -115 139 -89 q 121 -160 139 -142 q 75 -179 103 -179 z "},"Е":{"ha":465,"x_min":10,"x_max":504,"o":"m 10 0 l 126 821 l 504 821 l 488 707 l 278 707 l 247 488 l 425 488 l 407 361 l 229 361 l 194 111 l 404 111 l 388 0 l 10 0 z "},"Ѐ":{"ha":465,"x_min":10,"x_max":504,"o":"m 10 0 l 126 821 l 504 821 l 488 707 l 278 707 l 247 488 l 425 488 l 407 361 l 229 361 l 194 111 l 404 111 l 388 0 l 10 0 m 299 881 l 144 1007 l 293 1007 l 399 881 l 299 881 z "},"Ì":{"ha":279,"x_min":10,"x_max":293,"o":"m 10 0 l 126 821 l 288 821 l 171 0 l 10 0 m 194 881 l 40 1007 l 189 1007 l 294 881 l 194 881 z "},"Ỉ":{"ha":279,"x_min":10,"x_max":335,"o":"m 10 0 l 126 821 l 288 821 l 171 0 l 10 0 m 169 857 l 174 888 q 191 917 176 908 q 219 932 206 925 q 235 957 233 939 l 238 969 q 235 991 239 982 q 217 1000 232 1000 q 189 971 196 1000 l 118 982 q 156 1039 128 1019 q 232 1058 183 1058 q 310 1034 286 1058 q 326 965 335 1010 l 325 960 q 312 919 322 931 q 289 905 301 908 q 267 897 276 901 q 257 879 258 893 l 254 857 l 169 857 z "},"И":{"ha":571,"x_min":10,"x_max":581,"o":"m 10 0 l 126 821 l 268 821 l 199 322 l 439 821 l 581 821 l 464 0 l 321 0 l 388 465 l 151 0 l 10 0 z "},"Ѝ":{"ha":571,"x_min":10,"x_max":581,"o":"m 10 0 l 126 821 l 268 821 l 199 322 l 439 821 l 581 821 l 464 0 l 321 0 l 388 465 l 151 0 l 10 0 m 347 881 l 193 1007 l 342 1007 l 447 881 l 347 881 z "},"Й":{"ha":571,"x_min":10,"x_max":581,"o":"m 10 0 l 126 821 l 268 821 l 199 322 l 439 821 l 581 821 l 464 0 l 321 0 l 388 465 l 151 0 l 10 0 m 365 874 q 288 888 317 874 q 246 924 258 903 q 231 969 233 946 q 229 1013 228 993 l 315 1013 q 332 965 314 981 q 378 950 350 950 q 428 965 407 950 q 458 1013 450 979 l 544 1013 q 518 945 539 976 q 460 894 497 914 q 365 874 422 874 z "},"Ī":{"ha":279,"x_min":10,"x_max":371,"o":"m 10 0 l 126 821 l 288 821 l 171 0 l 10 0 m 75 897 l 85 978 l 371 978 l 361 897 l 75 897 z "},"Ё":{"ha":465,"x_min":10,"x_max":504,"o":"m 10 0 l 126 821 l 504 821 l 488 707 l 278 707 l 247 488 l 425 488 l 407 361 l 229 361 l 194 111 l 404 111 l 388 0 l 10 0 m 246 885 q 199 903 218 885 q 181 949 181 922 q 199 993 181 975 q 246 1011 218 1011 q 293 993 275 1011 q 311 949 311 975 q 293 903 311 922 q 246 885 275 885 m 414 885 q 366 903 385 885 q 347 949 347 922 q 366 993 347 975 q 414 1011 385 1011 q 460 993 442 1011 q 478 949 478 975 q 460 903 478 922 q 414 885 442 885 z "},"Į":{"ha":279,"x_min":-43,"x_max":288,"o":"m 10 0 l 126 821 l 288 821 l 171 0 l 10 0 m 64 -200 q -14 -173 14 -200 q -37 -111 -42 -146 q 5 -39 -31 -72 q 89 1 40 -6 l 153 0 q 93 -39 114 -12 q 68 -89 72 -65 q 81 -129 65 -115 q 114 -143 96 -143 q 132 -140 124 -143 q 143 -137 140 -137 l 157 -179 q 126 -192 147 -183 q 64 -200 106 -200 z "},"Ĩ":{"ha":279,"x_min":10,"x_max":393,"o":"m 10 0 l 126 821 l 288 821 l 171 0 l 10 0 m 279 885 q 242 892 258 885 q 208 911 225 900 q 180 928 194 921 q 149 935 165 935 q 119 922 132 935 q 101 886 107 908 l 54 886 q 92 974 63 940 q 161 1008 121 1008 q 201 1001 183 1008 q 235 982 218 993 q 263 967 250 974 q 292 961 276 961 q 324 973 313 961 q 340 1004 335 985 l 393 1004 q 349 916 383 947 q 279 885 314 885 z "},"Ю":{"ha":843,"x_min":10,"x_max":847,"o":"m 515 -17 q 397 -1 447 -17 q 324 66 346 15 q 315 218 301 117 l 336 365 l 222 365 l 171 0 l 10 0 l 125 821 l 286 821 l 240 485 l 353 485 l 375 647 q 421 760 386 719 q 511 817 456 801 q 636 833 567 833 q 753 817 706 833 q 824 760 801 800 q 836 647 847 719 l 776 218 q 728 66 763 117 q 640 -1 693 15 q 515 -17 586 -17 m 529 78 q 564 84 549 78 q 590 107 579 90 q 606 156 601 124 l 676 656 q 674 706 681 689 q 654 728 668 722 q 621 733 640 733 q 587 728 603 733 q 560 706 571 722 q 544 656 550 689 l 475 156 q 476 107 471 124 q 496 84 482 90 q 529 78 510 78 z "},"J":{"ha":332,"x_min":-47,"x_max":343,"o":"m 19 -1 q -13 -1 8 -1 q -47 0 -35 -1 l -31 111 l 11 111 q 69 125 53 110 q 93 183 86 140 l 182 821 l 343 821 l 257 203 q 220 78 246 124 q 146 16 194 33 q 19 -1 97 -1 z "},"Ј":{"ha":332,"x_min":-47,"x_max":343,"o":"m 19 -1 q -13 -1 8 -1 q -47 0 -35 -1 l -31 111 l 11 111 q 69 125 53 110 q 93 183 86 140 l 182 821 l 343 821 l 257 203 q 220 78 246 124 q 146 16 194 33 q 19 -1 97 -1 z "},"K":{"ha":569,"x_min":10,"x_max":621,"o":"m 335 0 l 238 426 l 449 821 l 621 821 l 396 426 l 510 0 l 335 0 m 10 0 l 126 821 l 288 821 l 171 0 l 10 0 z "},"К":{"ha":601,"x_min":10,"x_max":653,"o":"m 10 0 l 126 821 l 288 821 l 238 464 l 289 464 l 479 821 l 653 821 l 431 426 l 540 0 l 365 0 l 281 357 l 221 357 l 171 0 l 10 0 z "},"Ķ":{"ha":569,"x_min":10,"x_max":621,"o":"m 335 0 l 238 426 l 449 821 l 621 821 l 396 426 l 510 0 l 335 0 m 10 0 l 126 821 l 288 821 l 171 0 l 10 0 m 142 -261 q 183 -204 168 -229 q 199 -165 197 -179 q 192 -149 200 -156 q 176 -131 183 -142 q 169 -103 168 -121 q 193 -67 172 -83 q 243 -50 214 -50 q 292 -67 275 -50 q 307 -110 310 -83 q 289 -156 306 -128 q 250 -212 272 -185 q 206 -261 228 -240 l 142 -261 z "},"Ќ":{"ha":601,"x_min":10,"x_max":653,"o":"m 10 0 l 126 821 l 288 821 l 238 464 l 289 464 l 479 821 l 653 821 l 431 426 l 540 0 l 365 0 l 281 357 l 221 357 l 171 0 l 10 0 m 296 881 l 422 1011 l 568 1011 l 386 881 l 296 881 z "},"L":{"ha":415,"x_min":10,"x_max":372,"o":"m 10 0 l 126 821 l 286 821 l 186 111 l 372 111 l 356 0 l 10 0 z "},"Ĺ":{"ha":415,"x_min":10,"x_max":432,"o":"m 10 0 l 126 821 l 286 821 l 186 111 l 372 111 l 356 0 l 10 0 m 160 881 l 286 1011 l 432 1011 l 250 881 l 160 881 z "},"Ľ":{"ha":488,"x_min":10,"x_max":546,"o":"m 10 0 l 126 821 l 286 821 l 186 111 l 372 111 l 356 0 l 10 0 m 389 636 l 450 840 l 546 840 l 446 636 l 389 636 z "},"Ļ":{"ha":415,"x_min":10,"x_max":372,"o":"m 10 0 l 126 821 l 286 821 l 186 111 l 372 111 l 356 0 l 10 0 m 65 -261 q 106 -204 92 -229 q 122 -165 121 -179 q 115 -149 124 -156 q 99 -131 107 -142 q 93 -103 92 -121 q 117 -67 96 -83 q 167 -50 138 -50 q 216 -67 199 -50 q 231 -110 233 -83 q 213 -156 229 -128 q 174 -212 196 -185 q 129 -261 151 -240 l 65 -261 z "},"Љ":{"ha":899,"x_min":-44,"x_max":867,"o":"m -44 0 l -32 83 q 20 114 -6 83 q 56 189 46 144 l 190 821 l 633 821 l 517 0 l 356 0 l 454 707 l 332 707 l 211 147 q 199 97 206 122 q 177 49 192 71 q 134 15 163 28 q 58 0 106 1 l -44 0 m 529 83 l 594 83 q 634 96 619 83 q 657 138 649 108 q 672 221 665 167 q 685 313 678 261 q 697 407 693 365 q 702 461 703 439 q 690 495 701 483 q 651 507 679 507 l 589 507 q 560 295 575 403 q 529 83 544 188 m 356 0 l 471 819 l 629 819 l 600 606 l 722 606 q 801 592 767 606 q 851 542 835 578 q 857 442 867 507 l 825 215 q 797 103 815 146 q 752 38 779 60 q 690 8 725 17 q 613 0 656 0 l 356 0 z "},"Ł":{"ha":499,"x_min":6,"x_max":417,"o":"m 56 0 l 89 225 l 6 190 l 15 261 l 99 296 l 171 815 l 331 815 l 268 367 l 379 415 l 369 346 l 257 297 l 231 111 l 417 111 l 401 0 l 56 0 z "},"M":{"ha":746,"x_min":10,"x_max":754,"o":"m 10 0 l 126 821 l 328 821 l 365 290 l 554 821 l 754 821 l 638 0 l 496 0 l 582 614 l 378 0 l 268 0 l 238 614 l 151 0 l 10 0 z "},"N":{"ha":569,"x_min":10,"x_max":579,"o":"m 10 0 l 126 821 l 267 821 l 367 324 l 438 821 l 579 821 l 463 0 l 322 0 l 218 464 l 151 0 l 10 0 z "},"Ń":{"ha":569,"x_min":10,"x_max":579,"o":"m 10 0 l 126 821 l 267 821 l 367 324 l 438 821 l 579 821 l 463 0 l 322 0 l 218 464 l 151 0 l 10 0 m 261 881 l 388 1011 l 533 1011 l 351 881 l 261 881 z "},"Ň":{"ha":569,"x_min":10,"x_max":579,"o":"m 10 0 l 126 821 l 267 821 l 367 324 l 438 821 l 579 821 l 463 0 l 322 0 l 218 464 l 151 0 l 10 0 m 314 876 l 201 1015 l 303 1015 l 371 946 l 458 1014 l 558 1014 l 403 876 l 314 876 z "},"Ņ":{"ha":569,"x_min":10,"x_max":579,"o":"m 10 0 l 126 821 l 267 821 l 367 324 l 438 821 l 579 821 l 463 0 l 322 0 l 218 464 l 151 0 l 10 0 m 126 -261 q 167 -204 153 -229 q 183 -165 182 -179 q 176 -149 185 -156 q 160 -131 168 -142 q 154 -103 153 -121 q 178 -67 157 -83 q 228 -50 199 -50 q 277 -67 260 -50 q 292 -110 294 -83 q 274 -156 290 -128 q 235 -212 257 -185 q 190 -261 213 -240 l 126 -261 z "},"Њ":{"ha":839,"x_min":10,"x_max":821,"o":"m 10 0 l 126 821 l 288 821 l 239 485 l 375 485 l 424 821 l 585 821 l 554 606 l 676 606 q 755 592 721 606 q 805 542 789 578 q 811 442 821 507 l 779 215 q 751 103 769 146 q 706 38 733 60 q 644 8 679 17 q 567 0 610 0 l 307 0 l 358 364 l 222 364 l 171 0 l 10 0 m 481 85 l 544 85 q 585 97 571 85 q 607 138 599 108 q 621 217 615 167 l 644 378 q 651 455 651 426 q 640 495 651 483 q 601 507 629 507 l 539 507 l 481 85 z "},"Ñ":{"ha":569,"x_min":10,"x_max":579,"o":"m 10 0 l 126 821 l 267 821 l 367 324 l 438 821 l 579 821 l 463 0 l 322 0 l 218 464 l 151 0 l 10 0 m 426 899 q 389 906 406 899 q 356 925 372 914 q 327 942 342 935 q 296 949 313 949 q 267 935 279 949 q 249 900 254 922 l 201 900 q 239 988 210 954 q 308 1022 268 1022 q 348 1015 331 1022 q 382 996 365 1007 q 410 981 397 988 q 439 975 424 975 q 471 987 460 975 q 488 1018 482 999 l 540 1018 q 496 930 531 961 q 426 899 461 899 z "},"O":{"ha":567,"x_min":17,"x_max":571,"o":"m 231 -17 q 111 -1 161 -17 q 39 66 61 15 q 31 217 17 117 l 92 647 q 138 761 103 721 q 228 817 172 801 q 351 833 283 833 q 472 817 421 833 q 547 760 522 800 q 561 647 571 719 l 500 218 q 449 66 486 117 q 356 -1 411 15 q 231 -17 301 -17 m 244 78 q 282 84 264 78 q 313 108 300 90 q 331 157 326 125 l 400 654 q 397 705 406 688 q 372 728 388 722 q 336 733 356 733 q 299 728 317 733 q 268 705 281 722 q 250 654 256 688 l 181 157 q 185 108 176 125 q 209 84 193 90 q 244 78 225 78 z "},"О":{"ha":567,"x_min":17,"x_max":571,"o":"m 231 -17 q 111 -1 161 -17 q 39 66 61 15 q 31 217 17 117 l 92 647 q 138 761 103 721 q 228 817 172 801 q 351 833 283 833 q 472 817 421 833 q 547 760 522 800 q 561 647 571 719 l 500 218 q 449 66 486 117 q 356 -1 411 15 q 231 -17 301 -17 m 244 78 q 282 84 264 78 q 313 108 300 90 q 331 157 326 125 l 400 654 q 397 705 406 688 q 372 728 388 722 q 336 733 356 733 q 299 728 317 733 q 268 705 281 722 q 250 654 256 688 l 181 157 q 185 108 176 125 q 209 84 193 90 q 244 78 225 78 z "},"Œ":{"ha":775,"x_min":17,"x_max":813,"o":"m 226 -17 q 110 -1 158 -17 q 39 66 61 15 q 31 217 17 117 l 92 647 q 136 761 101 721 q 225 817 171 801 q 347 833 279 833 q 454 817 408 833 q 522 760 500 800 q 533 647 543 719 l 472 218 q 424 66 458 117 q 340 -1 390 15 q 226 -17 289 -17 m 240 78 q 278 85 261 78 q 306 109 294 92 q 321 157 318 126 l 390 654 q 389 702 396 685 q 367 726 382 719 q 332 733 353 733 q 294 726 311 733 q 267 702 278 719 q 250 654 256 685 l 181 157 q 183 109 176 126 q 205 85 190 92 q 240 78 219 78 m 300 0 l 415 821 l 813 821 l 797 707 l 560 707 l 529 488 l 735 488 l 717 361 l 511 361 l 476 111 l 713 111 l 697 0 l 300 0 z "},"Ó":{"ha":567,"x_min":17,"x_max":571,"o":"m 231 -17 q 111 -1 161 -17 q 39 66 61 15 q 31 217 17 117 l 92 647 q 138 761 103 721 q 228 817 172 801 q 351 833 283 833 q 472 817 421 833 q 547 760 522 800 q 561 647 571 719 l 500 218 q 449 66 486 117 q 356 -1 411 15 q 231 -17 301 -17 m 244 78 q 282 84 264 78 q 313 108 300 90 q 331 157 326 125 l 400 654 q 397 705 406 688 q 372 728 388 722 q 336 733 356 733 q 299 728 317 733 q 268 705 281 722 q 250 654 256 688 l 181 157 q 185 108 176 125 q 209 84 193 90 q 244 78 225 78 m 258 881 l 385 1011 l 531 1011 l 349 881 l 258 881 z "},"Ǒ":{"ha":567,"x_min":17,"x_max":571,"o":"m 231 -17 q 111 -1 161 -17 q 39 66 61 15 q 31 217 17 117 l 92 647 q 138 761 103 721 q 228 817 172 801 q 351 833 283 833 q 472 817 421 833 q 547 760 522 800 q 561 647 571 719 l 500 218 q 449 66 486 117 q 356 -1 411 15 q 231 -17 301 -17 m 244 78 q 282 84 264 78 q 313 108 300 90 q 331 157 326 125 l 400 654 q 397 705 406 688 q 372 728 388 722 q 336 733 356 733 q 299 728 317 733 q 268 705 281 722 q 250 654 256 688 l 181 157 q 185 108 176 125 q 209 84 193 90 q 244 78 225 78 m 313 876 l 200 1015 l 301 1015 l 369 946 l 457 1014 l 557 1014 l 401 876 l 313 876 z "},"Ô":{"ha":567,"x_min":17,"x_max":571,"o":"m 231 -17 q 111 -1 161 -17 q 39 66 61 15 q 31 217 17 117 l 92 647 q 138 761 103 721 q 228 817 172 801 q 351 833 283 833 q 472 817 421 833 q 547 760 522 800 q 561 647 571 719 l 500 218 q 449 66 486 117 q 356 -1 411 15 q 231 -17 301 -17 m 244 78 q 282 84 264 78 q 313 108 300 90 q 331 157 326 125 l 400 654 q 397 705 406 688 q 372 728 388 722 q 336 733 356 733 q 299 728 317 733 q 268 705 281 722 q 250 654 256 688 l 181 157 q 185 108 176 125 q 209 84 193 90 q 244 78 225 78 m 181 876 l 333 1015 l 424 1015 l 538 876 l 438 876 l 369 946 l 282 876 l 181 876 z "},"Ố":{"ha":567,"x_min":17,"x_max":701,"o":"m 231 -17 q 111 -1 161 -17 q 39 66 61 15 q 31 217 17 117 l 92 647 q 138 761 103 721 q 228 817 172 801 q 351 833 283 833 q 472 817 421 833 q 547 760 522 800 q 561 647 571 719 l 500 218 q 449 66 486 117 q 356 -1 411 15 q 231 -17 301 -17 m 244 78 q 282 84 264 78 q 313 108 300 90 q 331 157 326 125 l 400 654 q 397 705 406 688 q 372 728 388 722 q 336 733 356 733 q 299 728 317 733 q 268 705 281 722 q 250 654 256 688 l 181 157 q 185 108 176 125 q 209 84 193 90 q 244 78 225 78 m 218 869 l 331 983 l 415 983 l 496 869 l 406 869 l 365 918 l 311 869 l 218 869 m 489 936 l 554 1040 l 701 1040 l 589 936 l 489 936 z "},"Ộ":{"ha":567,"x_min":17,"x_max":571,"o":"m 231 -17 q 111 -1 161 -17 q 39 66 61 15 q 31 217 17 117 l 92 647 q 138 761 103 721 q 228 817 172 801 q 351 833 283 833 q 472 817 421 833 q 547 760 522 800 q 561 647 571 719 l 500 218 q 449 66 486 117 q 356 -1 411 15 q 231 -17 301 -17 m 244 78 q 282 84 264 78 q 313 108 300 90 q 331 157 326 125 l 400 654 q 397 705 406 688 q 372 728 388 722 q 336 733 356 733 q 299 728 317 733 q 268 705 281 722 q 250 654 256 688 l 181 157 q 185 108 176 125 q 209 84 193 90 q 244 78 225 78 m 219 -179 q 172 -160 190 -179 q 153 -115 153 -142 q 172 -71 153 -89 q 219 -53 190 -53 q 265 -71 247 -53 q 283 -115 283 -89 q 265 -160 283 -142 q 219 -179 247 -179 m 181 876 l 333 1015 l 424 1015 l 538 876 l 438 876 l 369 946 l 282 876 l 181 876 z "},"Ồ":{"ha":567,"x_min":17,"x_max":617,"o":"m 231 -17 q 111 -1 161 -17 q 39 66 61 15 q 31 217 17 117 l 92 647 q 138 761 103 721 q 228 817 172 801 q 351 833 283 833 q 472 817 421 833 q 547 760 522 800 q 561 647 571 719 l 500 218 q 449 66 486 117 q 356 -1 411 15 q 231 -17 301 -17 m 244 78 q 282 84 264 78 q 313 108 300 90 q 331 157 326 125 l 400 654 q 397 705 406 688 q 372 728 388 722 q 336 733 356 733 q 299 728 317 733 q 268 705 281 722 q 250 654 256 688 l 181 157 q 185 108 176 125 q 209 84 193 90 q 244 78 225 78 m 218 869 l 331 983 l 415 983 l 496 869 l 406 869 l 365 918 l 311 869 l 218 869 m 517 936 l 426 1040 l 575 1040 l 617 936 l 517 936 z "},"Ổ":{"ha":567,"x_min":17,"x_max":656,"o":"m 231 -17 q 111 -1 161 -17 q 39 66 61 15 q 31 217 17 117 l 92 647 q 138 761 103 721 q 228 817 172 801 q 351 833 283 833 q 472 817 421 833 q 547 760 522 800 q 561 647 571 719 l 500 218 q 449 66 486 117 q 356 -1 411 15 q 231 -17 301 -17 m 244 78 q 282 84 264 78 q 313 108 300 90 q 331 157 326 125 l 400 654 q 397 705 406 688 q 372 728 388 722 q 336 733 356 733 q 299 728 317 733 q 268 705 281 722 q 250 654 256 688 l 181 157 q 185 108 176 125 q 209 84 193 90 q 244 78 225 78 m 218 869 l 331 983 l 415 983 l 496 869 l 406 869 l 365 918 l 311 869 l 218 869 m 517 924 l 521 947 q 532 968 524 963 q 550 979 540 974 q 560 994 560 985 l 563 1007 q 563 1017 564 1013 q 557 1022 563 1022 q 543 1003 546 1022 l 476 1013 q 506 1060 483 1044 q 569 1075 529 1075 q 635 1057 615 1075 q 650 1003 656 1039 l 649 997 q 639 968 646 976 q 624 958 632 960 q 610 954 615 957 q 603 940 604 951 l 600 924 l 517 924 z "},"Ỗ":{"ha":567,"x_min":17,"x_max":571,"o":"m 231 -17 q 111 -1 161 -17 q 39 66 61 15 q 31 217 17 117 l 92 647 q 138 761 103 721 q 228 817 172 801 q 351 833 283 833 q 472 817 421 833 q 547 760 522 800 q 561 647 571 719 l 500 218 q 449 66 486 117 q 356 -1 411 15 q 231 -17 301 -17 m 244 78 q 282 84 264 78 q 313 108 300 90 q 331 157 326 125 l 400 654 q 397 705 406 688 q 372 728 388 722 q 336 733 356 733 q 299 728 317 733 q 268 705 281 722 q 250 654 256 688 l 181 157 q 185 108 176 125 q 209 84 193 90 q 244 78 225 78 m 218 869 l 331 983 l 415 983 l 496 869 l 406 869 l 365 918 l 311 869 l 218 869 m 424 1004 q 394 1011 408 1004 q 368 1025 379 1018 q 345 1036 356 1032 q 322 1040 335 1040 q 303 1030 311 1040 q 292 1006 294 1019 l 250 1006 q 281 1083 257 1056 q 335 1111 304 1111 q 364 1106 350 1111 q 392 1093 378 1100 q 415 1082 404 1088 q 436 1076 425 1076 q 458 1086 450 1076 q 469 1107 467 1096 l 515 1107 q 495 1051 511 1074 q 460 1016 479 1028 q 424 1004 440 1004 z "},"Ö":{"ha":567,"x_min":17,"x_max":571,"o":"m 231 -17 q 111 -1 161 -17 q 39 66 61 15 q 31 217 17 117 l 92 647 q 138 761 103 721 q 228 817 172 801 q 351 833 283 833 q 472 817 421 833 q 547 760 522 800 q 561 647 571 719 l 500 218 q 449 66 486 117 q 356 -1 411 15 q 231 -17 301 -17 m 244 78 q 282 84 264 78 q 313 108 300 90 q 331 157 326 125 l 400 654 q 397 705 406 688 q 372 728 388 722 q 336 733 356 733 q 299 728 317 733 q 268 705 281 722 q 250 654 256 688 l 181 157 q 185 108 176 125 q 209 84 193 90 q 244 78 225 78 m 285 885 q 238 903 257 885 q 219 949 219 922 q 238 993 219 975 q 285 1011 257 1011 q 332 993 314 1011 q 350 949 350 975 q 332 903 350 922 q 285 885 314 885 m 453 885 q 405 903 424 885 q 386 949 386 922 q 405 993 386 975 q 453 1011 424 1011 q 499 993 481 1011 q 517 949 517 975 q 499 903 517 922 q 453 885 481 885 z "},"Ọ":{"ha":567,"x_min":17,"x_max":571,"o":"m 231 -17 q 111 -1 161 -17 q 39 66 61 15 q 31 217 17 117 l 92 647 q 138 761 103 721 q 228 817 172 801 q 351 833 283 833 q 472 817 421 833 q 547 760 522 800 q 561 647 571 719 l 500 218 q 449 66 486 117 q 356 -1 411 15 q 231 -17 301 -17 m 244 78 q 282 84 264 78 q 313 108 300 90 q 331 157 326 125 l 400 654 q 397 705 406 688 q 372 728 388 722 q 336 733 356 733 q 299 728 317 733 q 268 705 281 722 q 250 654 256 688 l 181 157 q 185 108 176 125 q 209 84 193 90 q 244 78 225 78 m 219 -179 q 172 -160 190 -179 q 153 -115 153 -142 q 172 -71 153 -89 q 219 -53 190 -53 q 265 -71 247 -53 q 283 -115 283 -89 q 265 -160 283 -142 q 219 -179 247 -179 z "},"Ò":{"ha":567,"x_min":17,"x_max":571,"o":"m 231 -17 q 111 -1 161 -17 q 39 66 61 15 q 31 217 17 117 l 92 647 q 138 761 103 721 q 228 817 172 801 q 351 833 283 833 q 472 817 421 833 q 547 760 522 800 q 561 647 571 719 l 500 218 q 449 66 486 117 q 356 -1 411 15 q 231 -17 301 -17 m 244 78 q 282 84 264 78 q 313 108 300 90 q 331 157 326 125 l 400 654 q 397 705 406 688 q 372 728 388 722 q 336 733 356 733 q 299 728 317 733 q 268 705 281 722 q 250 654 256 688 l 181 157 q 185 108 176 125 q 209 84 193 90 q 244 78 225 78 m 338 881 l 183 1007 l 332 1007 l 438 881 l 338 881 z "},"Ỏ":{"ha":567,"x_min":17,"x_max":571,"o":"m 231 -17 q 111 -1 161 -17 q 39 66 61 15 q 31 217 17 117 l 92 647 q 138 761 103 721 q 228 817 172 801 q 351 833 283 833 q 472 817 421 833 q 547 760 522 800 q 561 647 571 719 l 500 218 q 449 66 486 117 q 356 -1 411 15 q 231 -17 301 -17 m 244 78 q 282 84 264 78 q 313 108 300 90 q 331 157 326 125 l 400 654 q 397 705 406 688 q 372 728 388 722 q 336 733 356 733 q 299 728 317 733 q 268 705 281 722 q 250 654 256 688 l 181 157 q 185 108 176 125 q 209 84 193 90 q 244 78 225 78 m 314 857 l 318 888 q 335 917 321 908 q 364 932 350 925 q 379 957 378 939 l 382 969 q 380 991 383 982 q 361 1000 376 1000 q 333 971 340 1000 l 263 982 q 300 1039 272 1019 q 376 1058 328 1058 q 455 1034 431 1058 q 471 965 479 1010 l 469 960 q 456 919 467 931 q 433 905 446 908 q 412 897 421 901 q 401 879 403 893 l 399 857 l 314 857 z "},"Ơ":{"ha":567,"x_min":17,"x_max":619,"o":"m 231 -17 q 111 -1 161 -17 q 39 66 61 15 q 31 217 17 117 l 92 647 q 138 761 103 721 q 228 817 172 801 q 351 833 283 833 q 472 817 421 833 q 547 760 522 800 q 561 647 571 719 l 500 218 q 449 66 486 117 q 356 -1 411 15 q 231 -17 301 -17 m 244 78 q 282 84 264 78 q 313 108 300 90 q 331 157 326 125 l 400 654 q 397 705 406 688 q 372 728 388 722 q 336 733 356 733 q 299 728 317 733 q 268 705 281 722 q 250 654 256 688 l 181 157 q 185 108 176 125 q 209 84 193 90 q 244 78 225 78 m 410 751 l 418 821 l 442 821 q 513 886 503 821 l 515 911 l 619 911 l 618 888 q 555 783 607 814 q 410 751 503 751 z "},"Ớ":{"ha":567,"x_min":17,"x_max":619,"o":"m 231 -17 q 111 -1 161 -17 q 39 66 61 15 q 31 217 17 117 l 92 647 q 138 761 103 721 q 228 817 172 801 q 351 833 283 833 q 472 817 421 833 q 547 760 522 800 q 561 647 571 719 l 500 218 q 449 66 486 117 q 356 -1 411 15 q 231 -17 301 -17 m 244 78 q 282 84 264 78 q 313 108 300 90 q 331 157 326 125 l 400 654 q 397 705 406 688 q 372 728 388 722 q 336 733 356 733 q 299 728 317 733 q 268 705 281 722 q 250 654 256 688 l 181 157 q 185 108 176 125 q 209 84 193 90 q 244 78 225 78 m 410 751 l 418 821 l 442 821 q 513 886 503 821 l 515 911 l 619 911 l 618 888 q 555 783 607 814 q 410 751 503 751 m 258 881 l 385 1011 l 531 1011 l 349 881 l 258 881 z "},"Ợ":{"ha":567,"x_min":17,"x_max":619,"o":"m 231 -17 q 111 -1 161 -17 q 39 66 61 15 q 31 217 17 117 l 92 647 q 138 761 103 721 q 228 817 172 801 q 351 833 283 833 q 472 817 421 833 q 547 760 522 800 q 561 647 571 719 l 500 218 q 449 66 486 117 q 356 -1 411 15 q 231 -17 301 -17 m 244 78 q 282 84 264 78 q 313 108 300 90 q 331 157 326 125 l 400 654 q 397 705 406 688 q 372 728 388 722 q 336 733 356 733 q 299 728 317 733 q 268 705 281 722 q 250 654 256 688 l 181 157 q 185 108 176 125 q 209 84 193 90 q 244 78 225 78 m 410 751 l 418 821 l 442 821 q 513 886 503 821 l 515 911 l 619 911 l 618 888 q 555 783 607 814 q 410 751 503 751 m 219 -179 q 172 -160 190 -179 q 153 -115 153 -142 q 172 -71 153 -89 q 219 -53 190 -53 q 265 -71 247 -53 q 283 -115 283 -89 q 265 -160 283 -142 q 219 -179 247 -179 z "},"Ờ":{"ha":567,"x_min":17,"x_max":619,"o":"m 231 -17 q 111 -1 161 -17 q 39 66 61 15 q 31 217 17 117 l 92 647 q 138 761 103 721 q 228 817 172 801 q 351 833 283 833 q 472 817 421 833 q 547 760 522 800 q 561 647 571 719 l 500 218 q 449 66 486 117 q 356 -1 411 15 q 231 -17 301 -17 m 244 78 q 282 84 264 78 q 313 108 300 90 q 331 157 326 125 l 400 654 q 397 705 406 688 q 372 728 388 722 q 336 733 356 733 q 299 728 317 733 q 268 705 281 722 q 250 654 256 688 l 181 157 q 185 108 176 125 q 209 84 193 90 q 244 78 225 78 m 410 751 l 418 821 l 442 821 q 513 886 503 821 l 515 911 l 619 911 l 618 888 q 555 783 607 814 q 410 751 503 751 m 338 881 l 183 1007 l 332 1007 l 438 881 l 338 881 z "},"Ở":{"ha":567,"x_min":17,"x_max":619,"o":"m 231 -17 q 111 -1 161 -17 q 39 66 61 15 q 31 217 17 117 l 92 647 q 138 761 103 721 q 228 817 172 801 q 351 833 283 833 q 472 817 421 833 q 547 760 522 800 q 561 647 571 719 l 500 218 q 449 66 486 117 q 356 -1 411 15 q 231 -17 301 -17 m 244 78 q 282 84 264 78 q 313 108 300 90 q 331 157 326 125 l 400 654 q 397 705 406 688 q 372 728 388 722 q 336 733 356 733 q 299 728 317 733 q 268 705 281 722 q 250 654 256 688 l 181 157 q 185 108 176 125 q 209 84 193 90 q 244 78 225 78 m 410 751 l 418 821 l 442 821 q 513 886 503 821 l 515 911 l 619 911 l 618 888 q 555 783 607 814 q 410 751 503 751 m 314 857 l 318 888 q 335 917 321 908 q 364 932 350 925 q 379 957 378 939 l 382 969 q 380 991 383 982 q 361 1000 376 1000 q 333 971 340 1000 l 263 982 q 300 1039 272 1019 q 376 1058 328 1058 q 455 1034 431 1058 q 471 965 479 1010 l 469 960 q 456 919 467 931 q 433 905 446 908 q 412 897 421 901 q 401 879 403 893 l 399 857 l 314 857 z "},"Ỡ":{"ha":567,"x_min":17,"x_max":619,"o":"m 231 -17 q 111 -1 161 -17 q 39 66 61 15 q 31 217 17 117 l 92 647 q 138 761 103 721 q 228 817 172 801 q 351 833 283 833 q 472 817 421 833 q 547 760 522 800 q 561 647 571 719 l 500 218 q 449 66 486 117 q 356 -1 411 15 q 231 -17 301 -17 m 244 78 q 282 84 264 78 q 313 108 300 90 q 331 157 326 125 l 400 654 q 397 705 406 688 q 372 728 388 722 q 336 733 356 733 q 299 728 317 733 q 268 705 281 722 q 250 654 256 688 l 181 157 q 185 108 176 125 q 209 84 193 90 q 244 78 225 78 m 410 751 l 418 821 l 442 821 q 513 886 503 821 l 515 911 l 619 911 l 618 888 q 555 783 607 814 q 410 751 503 751 m 424 885 q 386 892 403 885 q 353 911 369 900 q 324 928 339 921 q 293 935 310 935 q 264 922 276 935 q 246 886 251 908 l 199 886 q 236 974 207 940 q 306 1008 265 1008 q 345 1001 328 1008 q 379 982 363 993 q 408 967 394 974 q 436 961 421 961 q 468 973 457 961 q 485 1004 479 985 l 538 1004 q 493 916 528 947 q 424 885 458 885 z "},"Ő":{"ha":567,"x_min":17,"x_max":582,"o":"m 231 -17 q 111 -1 161 -17 q 39 66 61 15 q 31 217 17 117 l 92 647 q 138 761 103 721 q 228 817 172 801 q 351 833 283 833 q 472 817 421 833 q 547 760 522 800 q 561 647 571 719 l 500 218 q 449 66 486 117 q 356 -1 411 15 q 231 -17 301 -17 m 244 78 q 282 84 264 78 q 313 108 300 90 q 331 157 326 125 l 400 654 q 397 705 406 688 q 372 728 388 722 q 336 733 356 733 q 299 728 317 733 q 268 705 281 722 q 250 654 256 688 l 181 157 q 185 108 176 125 q 209 84 193 90 q 244 78 225 78 m 271 874 l 310 1013 l 433 1013 l 333 874 l 271 874 m 401 874 l 460 1013 l 582 1013 l 474 874 l 401 874 z "},"Ō":{"ha":567,"x_min":17,"x_max":571,"o":"m 231 -17 q 111 -1 161 -17 q 39 66 61 15 q 31 217 17 117 l 92 647 q 138 761 103 721 q 228 817 172 801 q 351 833 283 833 q 472 817 421 833 q 547 760 522 800 q 561 647 571 719 l 500 218 q 449 66 486 117 q 356 -1 411 15 q 231 -17 301 -17 m 244 78 q 282 84 264 78 q 313 108 300 90 q 331 157 326 125 l 400 654 q 397 705 406 688 q 372 728 388 722 q 336 733 356 733 q 299 728 317 733 q 268 705 281 722 q 250 654 256 688 l 181 157 q 185 108 176 125 q 209 84 193 90 q 244 78 225 78 m 219 897 l 229 978 l 515 978 l 506 897 l 219 897 z "},"Ω":{"ha":833,"x_min":18,"x_max":803,"o":"m 18 0 l 33 118 l 247 113 l 221 131 q 142 214 174 168 q 96 315 110 260 q 90 438 82 371 q 121 574 96 511 q 192 684 146 636 q 309 758 238 732 q 479 785 381 785 q 642 757 578 785 q 742 683 707 729 q 790 575 778 636 q 797 447 803 514 q 764 319 789 376 q 700 215 739 261 q 611 131 661 169 l 581 113 l 796 118 l 781 0 l 447 0 l 460 93 q 538 165 506 129 q 592 240 571 201 q 624 322 613 279 q 639 411 635 364 q 631 549 646 488 q 577 647 617 611 q 464 683 538 683 q 344 647 392 683 q 270 549 296 611 q 238 406 244 486 q 236 322 232 364 q 253 240 240 281 q 294 163 267 200 q 364 93 322 126 l 351 0 l 18 0 z "},"Ø":{"ha":578,"x_min":-24,"x_max":593,"o":"m -24 -21 l 518 821 l 593 821 l 50 -21 l -24 -21 m 231 -17 q 111 -1 161 -17 q 39 66 61 15 q 31 217 17 117 l 90 647 q 136 761 101 721 q 226 817 171 801 q 350 833 282 833 q 468 817 419 833 q 539 760 517 800 q 550 647 561 719 l 490 218 q 442 66 476 117 q 353 -1 407 15 q 231 -17 300 -17 m 243 78 q 279 84 264 78 q 306 108 294 90 q 321 157 317 125 l 390 654 q 390 705 396 688 q 369 728 383 722 q 336 733 356 733 q 301 728 317 733 q 275 705 286 722 q 258 654 264 688 l 189 157 q 191 108 185 125 q 211 84 197 90 q 243 78 225 78 z "},"Õ":{"ha":567,"x_min":17,"x_max":571,"o":"m 231 -17 q 111 -1 161 -17 q 39 66 61 15 q 31 217 17 117 l 92 647 q 138 761 103 721 q 228 817 172 801 q 351 833 283 833 q 472 817 421 833 q 547 760 522 800 q 561 647 571 719 l 500 218 q 449 66 486 117 q 356 -1 411 15 q 231 -17 301 -17 m 244 78 q 282 84 264 78 q 313 108 300 90 q 331 157 326 125 l 400 654 q 397 705 406 688 q 372 728 388 722 q 336 733 356 733 q 299 728 317 733 q 268 705 281 722 q 250 654 256 688 l 181 157 q 185 108 176 125 q 209 84 193 90 q 244 78 225 78 m 424 885 q 386 892 403 885 q 353 911 369 900 q 324 928 339 921 q 293 935 310 935 q 264 922 276 935 q 246 886 251 908 l 199 886 q 236 974 207 940 q 306 1008 265 1008 q 345 1001 328 1008 q 379 982 363 993 q 408 967 394 974 q 436 961 421 961 q 468 973 457 961 q 485 1004 479 985 l 538 1004 q 493 916 528 947 q 424 885 458 885 z "},"P":{"ha":546,"x_min":10,"x_max":574,"o":"m 10 0 l 126 821 l 418 821 q 537 784 500 821 q 564 682 574 747 l 544 540 q 516 437 538 485 q 454 360 494 389 q 347 331 414 331 l 225 331 l 178 0 l 10 0 m 238 419 l 300 419 q 355 451 333 419 q 386 557 376 483 l 393 613 q 393 706 403 678 q 357 733 383 733 l 282 733 l 238 419 z "},"П":{"ha":578,"x_min":10,"x_max":586,"o":"m 10 0 l 126 821 l 586 821 l 469 0 l 301 0 l 401 707 l 278 707 l 178 0 l 10 0 z "},"Q":{"ha":565,"x_min":18,"x_max":569,"o":"m 332 -172 l 264 -11 q 247 -12 256 -12 q 229 -12 239 -12 q 112 3 161 -12 q 40 70 63 19 q 32 221 18 121 l 92 647 q 138 761 103 721 q 230 817 174 801 q 356 833 286 833 q 475 817 426 833 q 547 760 524 800 q 560 647 569 719 l 500 222 q 461 91 489 138 q 392 21 433 44 l 449 -108 l 332 -172 m 250 82 q 287 88 271 82 q 315 111 303 93 q 331 161 326 129 l 399 654 q 397 705 404 688 q 376 728 390 722 q 342 733 361 733 q 304 728 321 733 q 276 705 288 722 q 260 654 265 688 l 192 161 q 194 111 188 129 q 215 88 200 93 q 250 82 229 82 z "},"R":{"ha":583,"x_min":10,"x_max":582,"o":"m 10 0 l 126 821 l 426 821 q 545 784 508 821 q 571 682 582 747 l 554 554 q 503 444 544 489 q 389 393 463 400 l 389 393 q 451 362 435 386 q 475 283 468 338 l 513 0 l 333 0 l 314 272 q 308 313 313 294 q 297 341 304 331 q 275 351 289 351 l 228 351 l 178 0 l 10 0 m 243 463 l 310 463 q 367 483 346 463 q 394 554 388 504 l 408 653 q 401 715 415 697 q 361 733 388 733 l 281 733 l 243 463 z "},"Ŕ":{"ha":583,"x_min":10,"x_max":582,"o":"m 10 0 l 126 821 l 426 821 q 545 784 508 821 q 571 682 582 747 l 554 554 q 503 444 544 489 q 389 393 463 400 l 389 393 q 451 362 435 386 q 475 283 468 338 l 513 0 l 333 0 l 314 272 q 308 313 313 294 q 297 341 304 331 q 275 351 289 351 l 228 351 l 178 0 l 10 0 m 243 463 l 310 463 q 367 483 346 463 q 394 554 388 504 l 408 653 q 401 715 415 697 q 361 733 388 733 l 281 733 l 243 463 m 267 881 l 393 1011 l 539 1011 l 357 881 l 267 881 z "},"Ř":{"ha":583,"x_min":10,"x_max":582,"o":"m 10 0 l 126 821 l 426 821 q 545 784 508 821 q 571 682 582 747 l 554 554 q 503 444 544 489 q 389 393 463 400 l 389 393 q 451 362 435 386 q 475 283 468 338 l 513 0 l 333 0 l 314 272 q 308 313 313 294 q 297 341 304 331 q 275 351 289 351 l 228 351 l 178 0 l 10 0 m 243 463 l 310 463 q 367 483 346 463 q 394 554 388 504 l 408 653 q 401 715 415 697 q 361 733 388 733 l 281 733 l 243 463 m 319 876 l 207 1015 l 308 1015 l 376 946 l 464 1014 l 564 1014 l 408 876 l 319 876 z "},"Ŗ":{"ha":583,"x_min":10,"x_max":582,"o":"m 10 0 l 126 821 l 426 821 q 545 784 508 821 q 571 682 582 747 l 554 554 q 503 444 544 489 q 389 393 463 400 l 389 393 q 451 362 435 386 q 475 283 468 338 l 513 0 l 333 0 l 314 272 q 308 313 313 294 q 297 341 304 331 q 275 351 289 351 l 228 351 l 178 0 l 10 0 m 243 463 l 310 463 q 367 483 346 463 q 394 554 388 504 l 408 653 q 401 715 415 697 q 361 733 388 733 l 281 733 l 243 463 m 142 -261 q 183 -204 168 -229 q 199 -165 197 -179 q 192 -149 200 -156 q 176 -131 183 -142 q 169 -103 168 -121 q 193 -67 172 -83 q 243 -50 214 -50 q 292 -67 275 -50 q 307 -110 310 -83 q 289 -156 306 -128 q 250 -212 272 -185 q 206 -261 228 -240 l 142 -261 z "},"S":{"ha":543,"x_min":6,"x_max":554,"o":"m 233 -10 q 97 11 150 -10 q 25 85 44 32 q 18 233 6 138 l 25 282 l 193 282 l 185 219 q 182 141 178 168 q 201 103 186 114 q 236 93 215 93 q 288 116 267 93 q 319 206 310 139 q 315 283 328 257 q 269 324 301 308 q 185 364 238 340 q 112 414 139 385 q 76 488 85 443 q 75 596 67 532 q 115 726 86 676 q 198 799 144 776 q 338 822 251 822 q 502 774 450 822 q 540 631 554 726 l 526 532 q 446 532 486 532 q 365 532 406 532 l 374 582 q 371 669 382 644 q 322 694 360 694 q 267 672 285 694 q 242 600 250 650 q 249 533 236 558 q 287 494 261 508 q 351 464 313 479 q 445 416 410 440 q 492 349 481 392 q 493 228 504 307 q 443 87 481 139 q 351 13 406 35 q 233 -10 297 -10 z "},"Š":{"ha":543,"x_min":6,"x_max":558,"o":"m 233 -10 q 97 11 150 -10 q 25 85 44 32 q 18 233 6 138 l 25 282 l 193 282 l 185 219 q 182 141 178 168 q 201 103 186 114 q 236 93 215 93 q 288 116 267 93 q 319 206 310 139 q 315 283 328 257 q 269 324 301 308 q 185 364 238 340 q 112 414 139 385 q 76 488 85 443 q 75 596 67 532 q 115 726 86 676 q 198 799 144 776 q 338 822 251 822 q 502 774 450 822 q 540 631 554 726 l 526 532 q 446 532 486 532 q 365 532 406 532 l 374 582 q 371 669 382 644 q 322 694 360 694 q 267 672 285 694 q 242 600 250 650 q 249 533 236 558 q 287 494 261 508 q 351 464 313 479 q 445 416 410 440 q 492 349 481 392 q 493 228 504 307 q 443 87 481 139 q 351 13 406 35 q 233 -10 297 -10 m 314 876 l 201 1015 l 303 1015 l 371 946 l 458 1014 l 558 1014 l 403 876 l 314 876 z "},"Ş":{"ha":543,"x_min":6,"x_max":554,"o":"m 233 -10 q 97 11 150 -10 q 25 85 44 32 q 18 233 6 138 l 25 282 l 193 282 l 185 219 q 182 141 178 168 q 201 103 186 114 q 236 93 215 93 q 288 116 267 93 q 319 206 310 139 q 315 283 328 257 q 269 324 301 308 q 185 364 238 340 q 112 414 139 385 q 76 488 85 443 q 75 596 67 532 q 115 726 86 676 q 198 799 144 776 q 338 822 251 822 q 502 774 450 822 q 540 631 554 726 l 526 532 q 446 532 486 532 q 365 532 406 532 l 374 582 q 371 669 382 644 q 322 694 360 694 q 267 672 285 694 q 242 600 250 650 q 249 533 236 558 q 287 494 261 508 q 351 464 313 479 q 445 416 410 440 q 492 349 481 392 q 493 228 504 307 q 443 87 481 139 q 351 13 406 35 q 233 -10 297 -10 m 188 -219 q 139 -209 160 -219 q 108 -193 118 -199 l 138 -143 q 160 -156 144 -150 q 189 -162 175 -162 q 224 -151 211 -162 q 238 -125 236 -140 q 210 -94 243 -94 q 194 -98 201 -94 q 181 -106 186 -101 l 140 -81 l 196 0 l 257 0 l 210 -67 l 203 -62 q 226 -53 213 -57 q 254 -50 239 -50 q 313 -74 296 -50 q 326 -126 329 -97 q 283 -192 321 -165 q 188 -219 246 -219 z "},"Ș":{"ha":543,"x_min":6,"x_max":554,"o":"m 233 -10 q 97 11 150 -10 q 25 85 44 32 q 18 233 6 138 l 25 282 l 193 282 l 185 219 q 182 141 178 168 q 201 103 186 114 q 236 93 215 93 q 288 116 267 93 q 319 206 310 139 q 315 283 328 257 q 269 324 301 308 q 185 364 238 340 q 112 414 139 385 q 76 488 85 443 q 75 596 67 532 q 115 726 86 676 q 198 799 144 776 q 338 822 251 822 q 502 774 450 822 q 540 631 554 726 l 526 532 q 446 532 486 532 q 365 532 406 532 l 374 582 q 371 669 382 644 q 322 694 360 694 q 267 672 285 694 q 242 600 250 650 q 249 533 236 558 q 287 494 261 508 q 351 464 313 479 q 445 416 410 440 q 492 349 481 392 q 493 228 504 307 q 443 87 481 139 q 351 13 406 35 q 233 -10 297 -10 m 115 -261 q 156 -204 142 -229 q 172 -165 171 -179 q 165 -149 174 -156 q 149 -131 157 -142 q 143 -103 142 -121 q 167 -67 146 -83 q 217 -50 188 -50 q 266 -67 249 -50 q 281 -110 283 -83 q 263 -156 279 -128 q 224 -212 246 -185 q 179 -261 201 -240 l 115 -261 z "},"Ш":{"ha":878,"x_min":10,"x_max":886,"o":"m 10 0 l 126 821 l 294 821 l 194 114 l 322 114 l 422 821 l 590 821 l 490 114 l 618 114 l 718 821 l 886 821 l 769 0 l 10 0 z "},"Щ":{"ha":928,"x_min":-4,"x_max":871,"o":"m 694 -126 l 713 0 l -4 0 l 111 821 l 279 821 l 181 114 l 308 114 l 407 821 l 575 821 l 476 114 l 604 114 l 703 821 l 871 821 l 767 74 l 850 74 l 822 -126 l 694 -126 z "},"Ь":{"ha":533,"x_min":4,"x_max":515,"o":"m 4 0 l 119 819 l 278 819 l 247 606 l 369 606 q 449 592 415 606 q 499 542 483 578 q 507 442 515 507 l 475 215 q 446 103 464 146 q 401 38 428 60 q 339 8 374 17 q 261 0 304 0 l 4 0 m 175 83 l 238 83 q 288 104 272 83 q 311 175 304 125 l 346 426 q 348 469 350 450 q 334 497 346 488 q 296 507 322 507 l 233 507 l 175 83 z "},"T":{"ha":443,"x_min":64,"x_max":497,"o":"m 92 0 l 192 707 l 64 707 l 81 821 l 497 821 l 481 707 l 353 707 l 253 0 l 92 0 z "},"Ŧ":{"ha":447,"x_min":64,"x_max":497,"o":"m 89 514 l 104 599 l 401 599 l 386 514 l 89 514 m 92 0 l 192 707 l 64 707 l 81 821 l 497 821 l 481 707 l 353 707 l 253 0 l 92 0 z "},"Ť":{"ha":443,"x_min":64,"x_max":497,"o":"m 92 0 l 192 707 l 64 707 l 81 821 l 497 821 l 481 707 l 353 707 l 253 0 l 92 0 m 250 876 l 138 1015 l 239 1015 l 307 946 l 394 1014 l 494 1014 l 339 876 l 250 876 z "},"Ţ":{"ha":443,"x_min":56,"x_max":497,"o":"m 92 0 l 192 707 l 64 707 l 81 821 l 497 821 l 481 707 l 353 707 l 253 0 l 92 0 m 133 -219 q 85 -209 106 -219 q 54 -193 64 -199 l 83 -143 q 106 -156 90 -150 q 135 -162 121 -162 q 169 -151 157 -162 q 183 -125 182 -140 q 156 -94 189 -94 q 140 -98 147 -94 q 126 -106 132 -101 l 86 -81 l 142 0 l 203 0 l 156 -67 l 149 -62 q 172 -53 158 -57 q 200 -50 185 -50 q 258 -74 242 -50 q 272 -126 275 -97 q 229 -192 267 -165 q 133 -219 192 -219 z "},"Ț":{"ha":443,"x_min":63,"x_max":497,"o":"m 92 0 l 192 707 l 64 707 l 81 821 l 497 821 l 481 707 l 353 707 l 253 0 l 92 0 m 63 -261 q 103 -204 89 -229 q 119 -165 118 -179 q 113 -149 121 -156 q 97 -131 104 -142 q 90 -103 89 -121 q 114 -67 93 -83 q 164 -50 135 -50 q 213 -67 196 -50 q 228 -110 231 -83 q 210 -156 226 -128 q 171 -212 193 -185 q 126 -261 149 -240 l 63 -261 z "},"Т":{"ha":443,"x_min":64,"x_max":497,"o":"m 92 0 l 192 707 l 64 707 l 81 821 l 497 821 l 481 707 l 353 707 l 253 0 l 92 0 z "},"Þ":{"ha":549,"x_min":-12,"x_max":531,"o":"m -12 0 l 104 821 l 272 821 l 253 678 l 375 678 q 494 641 457 678 q 521 539 531 604 l 501 396 q 472 293 493 340 q 412 216 451 246 q 304 186 372 186 l 182 186 l 156 0 l -12 0 m 194 275 l 257 275 q 313 307 292 275 q 343 413 333 339 l 351 468 q 351 563 361 535 q 314 590 342 590 l 239 590 l 194 275 z "},"Ц":{"ha":642,"x_min":10,"x_max":590,"o":"m 414 -126 l 431 0 l 10 0 l 125 821 l 293 821 l 194 114 l 324 114 l 422 821 l 590 821 l 486 74 l 569 74 l 542 -126 l 414 -126 z "},"Ћ":{"ha":629,"x_min":64,"x_max":606,"o":"m 94 0 l 194 707 l 64 707 l 81 821 l 504 821 l 488 707 l 356 707 l 335 554 q 385 586 349 571 q 464 601 421 601 q 562 579 531 601 q 599 516 593 557 q 597 418 606 475 l 538 0 l 379 0 l 439 417 q 439 458 442 442 q 425 485 436 475 q 389 494 414 494 q 347 483 364 494 q 322 460 329 472 l 257 0 l 94 0 z "},"U":{"ha":565,"x_min":25,"x_max":576,"o":"m 233 -17 q 142 -10 183 -17 q 74 19 101 -3 q 36 85 47 42 q 36 204 25 129 l 122 821 l 283 821 l 190 158 q 193 112 186 129 q 214 89 200 94 q 246 83 228 83 q 280 89 264 83 q 308 112 296 94 q 322 158 319 129 l 415 821 l 576 821 l 490 204 q 458 86 481 131 q 401 19 435 42 q 325 -10 368 -3 q 233 -17 282 -17 z "},"У":{"ha":513,"x_min":-24,"x_max":561,"o":"m 103 -21 q 32 -15 67 -21 q -24 -4 -3 -10 l -12 79 q 11 74 -3 76 q 39 72 25 72 q 81 78 60 72 q 111 111 103 83 q 122 140 118 125 q 125 178 126 154 l 79 821 l 243 821 l 251 292 l 251 292 l 411 821 l 561 821 l 342 200 q 246 30 300 81 q 103 -21 192 -21 z "},"Ú":{"ha":565,"x_min":25,"x_max":576,"o":"m 233 -17 q 142 -10 183 -17 q 74 19 101 -3 q 36 85 47 42 q 36 204 25 129 l 122 821 l 283 821 l 190 158 q 193 112 186 129 q 214 89 200 94 q 246 83 228 83 q 280 89 264 83 q 308 112 296 94 q 322 158 319 129 l 415 821 l 576 821 l 490 204 q 458 86 481 131 q 401 19 435 42 q 325 -10 368 -3 q 233 -17 282 -17 m 258 881 l 385 1011 l 531 1011 l 349 881 l 258 881 z "},"Ǔ":{"ha":565,"x_min":25,"x_max":576,"o":"m 233 -17 q 142 -10 183 -17 q 74 19 101 -3 q 36 85 47 42 q 36 204 25 129 l 122 821 l 283 821 l 190 158 q 193 112 186 129 q 214 89 200 94 q 246 83 228 83 q 280 89 264 83 q 308 112 296 94 q 322 158 319 129 l 415 821 l 576 821 l 490 204 q 458 86 481 131 q 401 19 435 42 q 325 -10 368 -3 q 233 -17 282 -17 m 311 876 l 199 1015 l 300 1015 l 368 946 l 456 1014 l 556 1014 l 400 876 l 311 876 z "},"Û":{"ha":565,"x_min":25,"x_max":576,"o":"m 233 -17 q 142 -10 183 -17 q 74 19 101 -3 q 36 85 47 42 q 36 204 25 129 l 122 821 l 283 821 l 190 158 q 193 112 186 129 q 214 89 200 94 q 246 83 228 83 q 280 89 264 83 q 308 112 296 94 q 322 158 319 129 l 415 821 l 576 821 l 490 204 q 458 86 481 131 q 401 19 435 42 q 325 -10 368 -3 q 233 -17 282 -17 m 179 876 l 332 1015 l 422 1015 l 536 876 l 436 876 l 368 946 l 281 876 l 179 876 z "},"Ü":{"ha":565,"x_min":25,"x_max":576,"o":"m 233 -17 q 142 -10 183 -17 q 74 19 101 -3 q 36 85 47 42 q 36 204 25 129 l 122 821 l 283 821 l 190 158 q 193 112 186 129 q 214 89 200 94 q 246 83 228 83 q 280 89 264 83 q 308 112 296 94 q 322 158 319 129 l 415 821 l 576 821 l 490 204 q 458 86 481 131 q 401 19 435 42 q 325 -10 368 -3 q 233 -17 282 -17 m 285 885 q 238 903 257 885 q 219 949 219 922 q 238 993 219 975 q 285 1011 257 1011 q 332 993 314 1011 q 350 949 350 975 q 332 903 350 922 q 285 885 314 885 m 453 885 q 405 903 424 885 q 386 949 386 922 q 405 993 386 975 q 453 1011 424 1011 q 499 993 481 1011 q 517 949 517 975 q 499 903 517 922 q 453 885 481 885 z "},"Ǘ":{"ha":565,"x_min":25,"x_max":576,"o":"m 233 -17 q 142 -10 183 -17 q 74 19 101 -3 q 36 85 47 42 q 36 204 25 129 l 122 821 l 283 821 l 190 158 q 193 112 186 129 q 214 89 200 94 q 246 83 228 83 q 280 89 264 83 q 308 112 296 94 q 322 158 319 129 l 415 821 l 576 821 l 490 204 q 458 86 481 131 q 401 19 435 42 q 325 -10 368 -3 q 233 -17 282 -17 m 285 885 q 238 903 257 885 q 219 949 219 922 q 238 993 219 975 q 285 1011 257 1011 q 332 993 314 1011 q 350 949 350 975 q 332 903 350 922 q 285 885 314 885 m 453 885 q 405 903 424 885 q 386 949 386 922 q 405 993 386 975 q 453 1011 424 1011 q 499 993 481 1011 q 517 949 517 975 q 499 903 517 922 q 453 885 481 885 m 290 1033 l 417 1164 l 563 1164 l 381 1033 l 290 1033 z "},"Ǚ":{"ha":565,"x_min":25,"x_max":588,"o":"m 233 -17 q 142 -10 183 -17 q 74 19 101 -3 q 36 85 47 42 q 36 204 25 129 l 122 821 l 283 821 l 190 158 q 193 112 186 129 q 214 89 200 94 q 246 83 228 83 q 280 89 264 83 q 308 112 296 94 q 322 158 319 129 l 415 821 l 576 821 l 490 204 q 458 86 481 131 q 401 19 435 42 q 325 -10 368 -3 q 233 -17 282 -17 m 285 885 q 238 903 257 885 q 219 949 219 922 q 238 993 219 975 q 285 1011 257 1011 q 332 993 314 1011 q 350 949 350 975 q 332 903 350 922 q 285 885 314 885 m 453 885 q 405 903 424 885 q 386 949 386 922 q 405 993 386 975 q 453 1011 424 1011 q 499 993 481 1011 q 517 949 517 975 q 499 903 517 922 q 453 885 481 885 m 343 1029 l 231 1168 l 332 1168 l 400 1099 l 488 1167 l 588 1167 l 432 1029 l 343 1029 z "},"Ǜ":{"ha":565,"x_min":25,"x_max":576,"o":"m 233 -17 q 142 -10 183 -17 q 74 19 101 -3 q 36 85 47 42 q 36 204 25 129 l 122 821 l 283 821 l 190 158 q 193 112 186 129 q 214 89 200 94 q 246 83 228 83 q 280 89 264 83 q 308 112 296 94 q 322 158 319 129 l 415 821 l 576 821 l 490 204 q 458 86 481 131 q 401 19 435 42 q 325 -10 368 -3 q 233 -17 282 -17 m 285 885 q 238 903 257 885 q 219 949 219 922 q 238 993 219 975 q 285 1011 257 1011 q 332 993 314 1011 q 350 949 350 975 q 332 903 350 922 q 285 885 314 885 m 453 885 q 405 903 424 885 q 386 949 386 922 q 405 993 386 975 q 453 1011 424 1011 q 499 993 481 1011 q 517 949 517 975 q 499 903 517 922 q 453 885 481 885 m 368 1033 l 214 1160 l 363 1160 l 468 1033 l 368 1033 z "},"Ǖ":{"ha":565,"x_min":25,"x_max":576,"o":"m 233 -17 q 142 -10 183 -17 q 74 19 101 -3 q 36 85 47 42 q 36 204 25 129 l 122 821 l 283 821 l 190 158 q 193 112 186 129 q 214 89 200 94 q 246 83 228 83 q 280 89 264 83 q 308 112 296 94 q 322 158 319 129 l 415 821 l 576 821 l 490 204 q 458 86 481 131 q 401 19 435 42 q 325 -10 368 -3 q 233 -17 282 -17 m 285 885 q 238 903 257 885 q 219 949 219 922 q 238 993 219 975 q 285 1011 257 1011 q 332 993 314 1011 q 350 949 350 975 q 332 903 350 922 q 285 885 314 885 m 453 885 q 405 903 424 885 q 386 949 386 922 q 405 993 386 975 q 453 1011 424 1011 q 499 993 481 1011 q 517 949 517 975 q 499 903 517 922 q 453 885 481 885 m 250 1050 l 260 1131 l 546 1131 l 536 1050 l 250 1050 z "},"Ụ":{"ha":565,"x_min":25,"x_max":576,"o":"m 233 -17 q 142 -10 183 -17 q 74 19 101 -3 q 36 85 47 42 q 36 204 25 129 l 122 821 l 283 821 l 190 158 q 193 112 186 129 q 214 89 200 94 q 246 83 228 83 q 280 89 264 83 q 308 112 296 94 q 322 158 319 129 l 415 821 l 576 821 l 490 204 q 458 86 481 131 q 401 19 435 42 q 325 -10 368 -3 q 233 -17 282 -17 m 218 -179 q 170 -160 189 -179 q 151 -115 151 -142 q 170 -71 151 -89 q 218 -53 189 -53 q 264 -71 246 -53 q 282 -115 282 -89 q 264 -160 282 -142 q 218 -179 246 -179 z "},"Ù":{"ha":565,"x_min":25,"x_max":576,"o":"m 233 -17 q 142 -10 183 -17 q 74 19 101 -3 q 36 85 47 42 q 36 204 25 129 l 122 821 l 283 821 l 190 158 q 193 112 186 129 q 214 89 200 94 q 246 83 228 83 q 280 89 264 83 q 308 112 296 94 q 322 158 319 129 l 415 821 l 576 821 l 490 204 q 458 86 481 131 q 401 19 435 42 q 325 -10 368 -3 q 233 -17 282 -17 m 338 881 l 183 1007 l 332 1007 l 438 881 l 338 881 z "},"Ủ":{"ha":565,"x_min":25,"x_max":576,"o":"m 233 -17 q 142 -10 183 -17 q 74 19 101 -3 q 36 85 47 42 q 36 204 25 129 l 122 821 l 283 821 l 190 158 q 193 112 186 129 q 214 89 200 94 q 246 83 228 83 q 280 89 264 83 q 308 112 296 94 q 322 158 319 129 l 415 821 l 576 821 l 490 204 q 458 86 481 131 q 401 19 435 42 q 325 -10 368 -3 q 233 -17 282 -17 m 313 857 l 317 888 q 334 917 319 908 q 363 932 349 925 q 378 957 376 939 l 381 969 q 378 991 382 982 q 360 1000 375 1000 q 332 971 339 1000 l 261 982 q 299 1039 271 1019 q 375 1058 326 1058 q 453 1034 429 1058 q 469 965 478 1010 l 468 960 q 455 919 465 931 q 432 905 444 908 q 410 897 419 901 q 400 879 401 893 l 397 857 l 313 857 z "},"Ư":{"ha":565,"x_min":25,"x_max":646,"o":"m 233 -17 q 142 -10 183 -17 q 74 19 101 -3 q 36 85 47 42 q 36 204 25 129 l 122 821 l 283 821 l 190 158 q 193 112 186 129 q 214 89 200 94 q 246 83 228 83 q 280 89 264 83 q 308 112 296 94 q 322 158 319 129 l 415 821 l 576 821 l 490 204 q 458 86 481 131 q 401 19 435 42 q 325 -10 368 -3 q 233 -17 282 -17 m 435 751 l 443 821 l 467 821 q 538 886 528 821 l 540 911 l 644 911 l 643 888 q 580 783 632 814 q 435 751 528 751 z "},"Ứ":{"ha":565,"x_min":25,"x_max":646,"o":"m 233 -17 q 142 -10 183 -17 q 74 19 101 -3 q 36 85 47 42 q 36 204 25 129 l 122 821 l 283 821 l 190 158 q 193 112 186 129 q 214 89 200 94 q 246 83 228 83 q 280 89 264 83 q 308 112 296 94 q 322 158 319 129 l 415 821 l 576 821 l 490 204 q 458 86 481 131 q 401 19 435 42 q 325 -10 368 -3 q 233 -17 282 -17 m 435 751 l 443 821 l 467 821 q 538 886 528 821 l 540 911 l 644 911 l 643 888 q 580 783 632 814 q 435 751 528 751 m 258 881 l 385 1011 l 531 1011 l 349 881 l 258 881 z "},"Ự":{"ha":565,"x_min":25,"x_max":646,"o":"m 233 -17 q 142 -10 183 -17 q 74 19 101 -3 q 36 85 47 42 q 36 204 25 129 l 122 821 l 283 821 l 190 158 q 193 112 186 129 q 214 89 200 94 q 246 83 228 83 q 280 89 264 83 q 308 112 296 94 q 322 158 319 129 l 415 821 l 576 821 l 490 204 q 458 86 481 131 q 401 19 435 42 q 325 -10 368 -3 q 233 -17 282 -17 m 435 751 l 443 821 l 467 821 q 538 886 528 821 l 540 911 l 644 911 l 643 888 q 580 783 632 814 q 435 751 528 751 m 218 -179 q 170 -160 189 -179 q 151 -115 151 -142 q 170 -71 151 -89 q 218 -53 189 -53 q 264 -71 246 -53 q 282 -115 282 -89 q 264 -160 282 -142 q 218 -179 246 -179 z "},"Ừ":{"ha":565,"x_min":25,"x_max":646,"o":"m 233 -17 q 142 -10 183 -17 q 74 19 101 -3 q 36 85 47 42 q 36 204 25 129 l 122 821 l 283 821 l 190 158 q 193 112 186 129 q 214 89 200 94 q 246 83 228 83 q 280 89 264 83 q 308 112 296 94 q 322 158 319 129 l 415 821 l 576 821 l 490 204 q 458 86 481 131 q 401 19 435 42 q 325 -10 368 -3 q 233 -17 282 -17 m 435 751 l 443 821 l 467 821 q 538 886 528 821 l 540 911 l 644 911 l 643 888 q 580 783 632 814 q 435 751 528 751 m 338 881 l 183 1007 l 332 1007 l 438 881 l 338 881 z "},"Ử":{"ha":565,"x_min":25,"x_max":646,"o":"m 233 -17 q 142 -10 183 -17 q 74 19 101 -3 q 36 85 47 42 q 36 204 25 129 l 122 821 l 283 821 l 190 158 q 193 112 186 129 q 214 89 200 94 q 246 83 228 83 q 280 89 264 83 q 308 112 296 94 q 322 158 319 129 l 415 821 l 576 821 l 490 204 q 458 86 481 131 q 401 19 435 42 q 325 -10 368 -3 q 233 -17 282 -17 m 435 751 l 443 821 l 467 821 q 538 886 528 821 l 540 911 l 644 911 l 643 888 q 580 783 632 814 q 435 751 528 751 m 313 857 l 317 888 q 334 917 319 908 q 363 932 349 925 q 378 957 376 939 l 381 969 q 378 991 382 982 q 360 1000 375 1000 q 332 971 339 1000 l 261 982 q 299 1039 271 1019 q 375 1058 326 1058 q 453 1034 429 1058 q 469 965 478 1010 l 468 960 q 455 919 465 931 q 432 905 444 908 q 410 897 419 901 q 400 879 401 893 l 397 857 l 313 857 z "},"Ữ":{"ha":565,"x_min":25,"x_max":646,"o":"m 233 -17 q 142 -10 183 -17 q 74 19 101 -3 q 36 85 47 42 q 36 204 25 129 l 122 821 l 283 821 l 190 158 q 193 112 186 129 q 214 89 200 94 q 246 83 228 83 q 280 89 264 83 q 308 112 296 94 q 322 158 319 129 l 415 821 l 576 821 l 490 204 q 458 86 481 131 q 401 19 435 42 q 325 -10 368 -3 q 233 -17 282 -17 m 435 751 l 443 821 l 467 821 q 538 886 528 821 l 540 911 l 644 911 l 643 888 q 580 783 632 814 q 435 751 528 751 m 422 885 q 385 892 401 885 q 351 911 368 900 q 323 928 338 921 q 292 935 308 935 q 263 922 275 935 q 244 886 250 908 l 197 886 q 235 974 206 940 q 304 1008 264 1008 q 344 1001 326 1008 q 378 982 361 993 q 406 967 393 974 q 435 961 419 961 q 467 973 456 961 q 483 1004 478 985 l 536 1004 q 492 916 526 947 q 422 885 457 885 z "},"Ű":{"ha":565,"x_min":25,"x_max":581,"o":"m 233 -17 q 142 -10 183 -17 q 74 19 101 -3 q 36 85 47 42 q 36 204 25 129 l 122 821 l 283 821 l 190 158 q 193 112 186 129 q 214 89 200 94 q 246 83 228 83 q 280 89 264 83 q 308 112 296 94 q 322 158 319 129 l 415 821 l 576 821 l 490 204 q 458 86 481 131 q 401 19 435 42 q 325 -10 368 -3 q 233 -17 282 -17 m 269 874 l 308 1013 l 432 1013 l 332 874 l 269 874 m 400 874 l 458 1013 l 581 1013 l 472 874 l 400 874 z "},"Ū":{"ha":565,"x_min":25,"x_max":576,"o":"m 233 -17 q 142 -10 183 -17 q 74 19 101 -3 q 36 85 47 42 q 36 204 25 129 l 122 821 l 283 821 l 190 158 q 193 112 186 129 q 214 89 200 94 q 246 83 228 83 q 280 89 264 83 q 308 112 296 94 q 322 158 319 129 l 415 821 l 576 821 l 490 204 q 458 86 481 131 q 401 19 435 42 q 325 -10 368 -3 q 233 -17 282 -17 m 218 897 l 228 978 l 514 978 l 504 897 l 218 897 z "},"Ų":{"ha":565,"x_min":25,"x_max":576,"o":"m 233 -17 q 142 -10 183 -17 q 74 19 101 -3 q 36 85 47 42 q 36 204 25 129 l 122 821 l 283 821 l 190 158 q 193 112 186 129 q 214 89 200 94 q 246 83 228 83 q 280 89 264 83 q 308 112 296 94 q 322 158 319 129 l 415 821 l 576 821 l 490 204 q 458 86 481 131 q 401 19 435 42 q 325 -10 368 -3 q 233 -17 282 -17 m 221 -200 q 143 -173 171 -200 q 119 -111 115 -146 q 162 -39 126 -72 q 246 1 197 -6 l 310 0 q 250 -39 271 -12 q 225 -89 229 -65 q 238 -129 222 -115 q 271 -143 253 -143 q 289 -140 281 -143 q 300 -137 297 -137 l 314 -179 q 283 -192 304 -183 q 221 -200 263 -200 z "},"Ů":{"ha":565,"x_min":25,"x_max":576,"o":"m 233 -17 q 142 -10 183 -17 q 74 19 101 -3 q 36 85 47 42 q 36 204 25 129 l 122 821 l 283 821 l 190 158 q 193 112 186 129 q 214 89 200 94 q 246 83 228 83 q 280 89 264 83 q 308 112 296 94 q 322 158 319 129 l 415 821 l 576 821 l 490 204 q 458 86 481 131 q 401 19 435 42 q 325 -10 368 -3 q 233 -17 282 -17 m 356 863 q 274 896 304 863 q 251 975 244 929 q 296 1057 257 1024 q 388 1090 335 1090 q 469 1057 439 1090 q 492 975 499 1024 q 445 896 486 929 q 356 863 404 863 m 364 926 q 405 940 388 926 q 425 975 422 954 q 415 1013 428 999 q 378 1028 401 1028 q 338 1013 354 1028 q 318 975 322 999 q 329 940 317 954 q 364 926 342 926 z "},"Ў":{"ha":513,"x_min":-24,"x_max":561,"o":"m 103 -21 q 32 -15 67 -21 q -24 -4 -3 -10 l -12 79 q 11 74 -3 76 q 39 72 25 72 q 81 78 60 72 q 111 111 103 83 q 122 140 118 125 q 125 178 126 154 l 79 821 l 243 821 l 251 292 l 251 292 l 411 821 l 561 821 l 342 200 q 246 30 300 81 q 103 -21 192 -21 m 326 874 q 249 888 278 874 q 207 924 219 903 q 192 969 194 946 q 190 1013 189 993 l 276 1013 q 293 965 275 981 q 339 950 311 950 q 390 965 368 950 q 419 1013 411 979 l 506 1013 q 479 945 500 976 q 421 894 458 914 q 326 874 383 874 z "},"Ũ":{"ha":565,"x_min":25,"x_max":576,"o":"m 233 -17 q 142 -10 183 -17 q 74 19 101 -3 q 36 85 47 42 q 36 204 25 129 l 122 821 l 283 821 l 190 158 q 193 112 186 129 q 214 89 200 94 q 246 83 228 83 q 280 89 264 83 q 308 112 296 94 q 322 158 319 129 l 415 821 l 576 821 l 490 204 q 458 86 481 131 q 401 19 435 42 q 325 -10 368 -3 q 233 -17 282 -17 m 422 885 q 385 892 401 885 q 351 911 368 900 q 323 928 338 921 q 292 935 308 935 q 263 922 275 935 q 244 886 250 908 l 197 886 q 235 974 206 940 q 304 1008 264 1008 q 344 1001 326 1008 q 378 982 361 993 q 406 967 393 974 q 435 961 419 961 q 467 973 456 961 q 483 1004 478 985 l 536 1004 q 492 916 526 947 q 422 885 457 885 z "},"V":{"ha":533,"x_min":85,"x_max":582,"o":"m 103 0 l 85 821 l 251 821 l 243 171 l 243 171 l 421 821 l 582 821 l 329 0 l 103 0 z "},"В":{"ha":564,"x_min":10,"x_max":567,"o":"m 10 0 l 125 821 l 417 821 q 531 784 494 821 q 557 682 567 747 l 544 589 q 524 523 539 553 q 486 472 510 493 q 442 449 467 457 q 397 439 418 440 l 396 438 q 441 432 419 438 q 481 410 463 426 q 510 360 500 392 q 513 283 519 329 l 499 171 q 460 67 489 104 q 387 15 431 29 q 285 0 343 0 l 10 0 m 183 85 l 258 85 q 294 92 279 85 q 319 121 308 100 q 336 182 331 142 l 350 279 q 341 352 358 335 q 293 369 324 369 l 224 369 l 183 85 m 238 471 l 304 471 q 358 493 336 471 q 386 571 379 515 l 399 653 q 392 715 406 696 q 353 733 378 733 l 274 733 l 238 471 z "},"W":{"ha":831,"x_min":85,"x_max":878,"o":"m 93 0 l 85 821 l 251 821 l 243 208 l 415 821 l 549 821 l 547 208 l 713 821 l 878 821 l 638 0 l 450 0 l 433 476 l 282 0 l 93 0 z "},"Ẃ":{"ha":831,"x_min":85,"x_max":878,"o":"m 93 0 l 85 821 l 251 821 l 243 208 l 415 821 l 549 821 l 547 208 l 713 821 l 878 821 l 638 0 l 450 0 l 433 476 l 282 0 l 93 0 m 390 881 l 517 1011 l 663 1011 l 481 881 l 390 881 z "},"Ŵ":{"ha":831,"x_min":85,"x_max":878,"o":"m 93 0 l 85 821 l 251 821 l 243 208 l 415 821 l 549 821 l 547 208 l 713 821 l 878 821 l 638 0 l 450 0 l 433 476 l 282 0 l 93 0 m 313 876 l 465 1015 l 556 1015 l 669 876 l 569 876 l 501 946 l 414 876 l 313 876 z "},"Ẅ":{"ha":831,"x_min":85,"x_max":878,"o":"m 93 0 l 85 821 l 251 821 l 243 208 l 415 821 l 549 821 l 547 208 l 713 821 l 878 821 l 638 0 l 450 0 l 433 476 l 282 0 l 93 0 m 417 885 q 370 903 389 885 q 351 949 351 922 q 370 993 351 975 q 417 1011 389 1011 q 464 993 446 1011 q 482 949 482 975 q 464 903 482 922 q 417 885 446 885 m 585 885 q 537 903 556 885 q 518 949 518 922 q 537 993 518 975 q 585 1011 556 1011 q 631 993 613 1011 q 649 949 649 975 q 631 903 649 922 q 585 885 613 885 z "},"Ẁ":{"ha":831,"x_min":85,"x_max":878,"o":"m 93 0 l 85 821 l 251 821 l 243 208 l 415 821 l 549 821 l 547 208 l 713 821 l 878 821 l 638 0 l 450 0 l 433 476 l 282 0 l 93 0 m 469 881 l 315 1007 l 464 1007 l 569 881 l 469 881 z "},"X":{"ha":508,"x_min":-36,"x_max":561,"o":"m -36 0 l 146 422 l 88 821 l 249 821 l 282 547 l 392 821 l 561 821 l 388 422 l 442 0 l 281 0 l 244 274 l 136 0 l -36 0 z "},"Y":{"ha":501,"x_min":79,"x_max":556,"o":"m 117 0 l 167 349 l 79 821 l 240 821 l 276 575 l 279 522 l 296 575 l 407 821 l 556 821 l 326 340 l 278 0 l 117 0 z "},"Ý":{"ha":501,"x_min":79,"x_max":556,"o":"m 117 0 l 167 349 l 79 821 l 240 821 l 276 575 l 279 522 l 296 575 l 407 821 l 556 821 l 326 340 l 278 0 l 117 0 m 226 881 l 353 1011 l 499 1011 l 317 881 l 226 881 z "},"Ѣ":{"ha":618,"x_min":63,"x_max":599,"o":"m 86 0 l 201 819 l 360 819 l 331 606 l 453 606 q 531 592 497 606 q 582 542 565 578 q 589 442 599 507 l 557 215 q 528 103 547 146 q 483 38 510 60 q 422 8 456 17 q 344 0 388 0 l 86 0 m 257 83 l 321 83 q 361 96 347 83 q 384 138 375 108 q 400 221 393 167 l 425 407 q 429 461 429 439 q 418 495 429 483 q 378 507 407 507 l 315 507 q 287 295 303 403 q 257 83 271 188 m 63 685 l 76 764 l 508 764 l 496 685 l 63 685 z "},"Ŷ":{"ha":501,"x_min":79,"x_max":556,"o":"m 117 0 l 167 349 l 79 821 l 240 821 l 276 575 l 279 522 l 296 575 l 407 821 l 556 821 l 326 340 l 278 0 l 117 0 m 147 876 l 300 1015 l 390 1015 l 504 876 l 404 876 l 336 946 l 249 876 l 147 876 z "},"Ÿ":{"ha":501,"x_min":79,"x_max":556,"o":"m 117 0 l 167 349 l 79 821 l 240 821 l 276 575 l 279 522 l 296 575 l 407 821 l 556 821 l 326 340 l 278 0 l 117 0 m 253 885 q 206 903 225 885 q 188 949 188 922 q 206 993 188 975 q 253 1011 225 1011 q 300 993 282 1011 q 318 949 318 975 q 300 903 318 922 q 253 885 282 885 m 421 885 q 373 903 392 885 q 354 949 354 922 q 373 993 354 975 q 421 1011 392 1011 q 467 993 449 1011 q 485 949 485 975 q 467 903 485 922 q 421 885 449 885 z "},"Ỵ":{"ha":501,"x_min":79,"x_max":556,"o":"m 117 0 l 167 349 l 79 821 l 240 821 l 276 575 l 279 522 l 296 575 l 407 821 l 556 821 l 326 340 l 278 0 l 117 0 m 188 -179 q 140 -160 158 -179 q 121 -115 121 -142 q 140 -71 121 -89 q 188 -53 158 -53 q 233 -71 215 -53 q 251 -115 251 -89 q 233 -160 251 -142 q 188 -179 215 -179 z "},"Ы":{"ha":801,"x_min":10,"x_max":810,"o":"m 10 0 l 126 819 l 285 819 l 254 606 l 376 606 q 456 592 422 606 q 506 542 490 578 q 513 442 522 507 l 481 215 q 452 103 471 146 q 407 38 433 60 q 346 8 381 17 q 268 0 311 0 l 10 0 m 181 83 l 246 83 q 285 96 271 83 q 308 138 299 108 q 324 221 317 167 q 337 313 329 261 q 349 407 344 365 q 353 461 354 439 q 342 495 353 483 q 301 507 331 507 l 239 507 q 211 295 226 403 q 181 83 196 188 m 532 0 l 649 821 l 810 821 l 693 0 l 532 0 z "},"Ỳ":{"ha":501,"x_min":79,"x_max":556,"o":"m 117 0 l 167 349 l 79 821 l 240 821 l 276 575 l 279 522 l 296 575 l 407 821 l 556 821 l 326 340 l 278 0 l 117 0 m 306 881 l 151 1007 l 300 1007 l 406 881 l 306 881 z "},"Ỷ":{"ha":501,"x_min":79,"x_max":556,"o":"m 117 0 l 167 349 l 79 821 l 240 821 l 276 575 l 279 522 l 296 575 l 407 821 l 556 821 l 326 340 l 278 0 l 117 0 m 282 857 l 286 888 q 303 917 289 908 q 332 932 318 925 q 347 957 346 939 l 350 969 q 348 991 351 982 q 329 1000 344 1000 q 301 971 308 1000 l 231 982 q 268 1039 240 1019 q 344 1058 296 1058 q 423 1034 399 1058 q 439 965 447 1010 l 438 960 q 424 919 435 931 q 401 905 414 908 q 380 897 389 901 q 369 879 371 893 l 367 857 l 282 857 z "},"Ї":{"ha":279,"x_min":10,"x_max":374,"o":"m 10 0 l 126 821 l 288 821 l 171 0 l 10 0 m 142 885 q 95 903 114 885 q 76 949 76 922 q 95 993 76 975 q 142 1011 114 1011 q 189 993 171 1011 q 207 949 207 975 q 189 903 207 922 q 142 885 171 885 m 310 885 q 262 903 281 885 q 243 949 243 922 q 262 993 243 975 q 310 1011 281 1011 q 356 993 338 1011 q 374 949 374 975 q 356 903 374 922 q 310 885 338 885 z "},"Ỹ":{"ha":501,"x_min":79,"x_max":556,"o":"m 117 0 l 167 349 l 79 821 l 240 821 l 276 575 l 279 522 l 296 575 l 407 821 l 556 821 l 326 340 l 278 0 l 117 0 m 390 885 q 353 892 369 885 q 319 911 336 900 q 291 928 306 921 q 260 935 276 935 q 231 922 243 935 q 213 886 218 908 l 165 886 q 203 974 174 940 q 272 1008 232 1008 q 312 1001 294 1008 q 346 982 329 993 q 374 967 361 974 q 403 961 388 961 q 435 973 424 961 q 451 1004 446 985 l 504 1004 q 460 916 494 947 q 390 885 425 885 z "},"Ѫ":{"ha":897,"x_min":-18,"x_max":936,"o":"m -18 0 l 107 332 q 142 397 122 368 q 190 444 161 426 q 261 463 219 463 l 328 464 l 74 711 l 90 821 l 936 821 l 919 711 l 597 465 l 672 463 q 735 442 711 460 q 771 396 758 425 q 786 333 783 367 l 818 0 l 640 0 l 622 311 q 617 353 621 332 q 608 391 614 374 q 590 419 603 408 l 543 419 l 485 0 l 315 0 l 374 419 l 328 419 q 292 376 306 404 q 267 317 278 347 l 160 0 l -18 0 m 471 519 l 733 711 l 260 711 l 471 519 z "},"Z":{"ha":410,"x_min":-36,"x_max":451,"o":"m -36 0 l -21 103 l 251 707 l 78 707 l 94 821 l 451 821 l 439 740 l 156 114 l 351 114 l 335 0 l -36 0 z "},"Ź":{"ha":410,"x_min":-36,"x_max":451,"o":"m -36 0 l -21 103 l 251 707 l 78 707 l 94 821 l 451 821 l 439 740 l 156 114 l 351 114 l 335 0 l -36 0 m 179 881 l 306 1011 l 451 1011 l 269 881 l 179 881 z "},"Ž":{"ha":410,"x_min":-36,"x_max":476,"o":"m -36 0 l -21 103 l 251 707 l 78 707 l 94 821 l 451 821 l 439 740 l 156 114 l 351 114 l 335 0 l -36 0 m 233 876 l 121 1015 l 222 1015 l 290 946 l 378 1014 l 478 1014 l 322 876 l 233 876 z "},"Ż":{"ha":410,"x_min":-36,"x_max":451,"o":"m -36 0 l -21 103 l 251 707 l 78 707 l 94 821 l 451 821 l 439 740 l 156 114 l 351 114 l 335 0 l -36 0 m 307 876 q 250 899 274 876 q 225 954 226 922 q 250 1011 225 988 q 308 1035 275 1035 q 367 1011 343 1035 q 390 954 390 988 q 367 899 392 922 q 307 876 342 876 z "},"З":{"ha":550,"x_min":6,"x_max":561,"o":"m 222 -10 q 92 15 142 -10 q 24 84 43 39 q 14 193 6 129 l 28 288 l 190 288 l 182 236 q 185 140 174 174 q 236 106 196 107 q 294 135 272 106 q 321 210 315 164 l 333 289 q 310 354 339 335 q 224 375 282 374 l 158 375 l 171 464 l 239 464 q 288 471 265 464 q 329 490 311 478 q 357 520 349 504 q 368 554 365 536 l 376 611 q 370 681 382 651 q 321 710 358 710 q 262 676 281 710 q 235 585 243 643 l 231 551 l 68 551 l 78 628 q 156 775 92 725 q 339 825 221 825 q 513 779 464 825 q 549 642 561 733 l 540 579 q 488 465 531 508 q 378 414 446 422 q 475 367 444 410 q 496 253 506 324 l 488 193 q 448 78 478 124 q 363 12 418 33 q 222 -10 308 -10 z "},"Ж":{"ha":883,"x_min":-39,"x_max":932,"o":"m -39 0 l 196 426 l 82 821 l 268 821 l 339 471 l 375 471 l 424 821 l 586 821 l 536 471 l 575 471 l 746 821 l 932 821 l 706 426 l 819 0 l 639 0 l 564 382 l 524 382 l 469 0 l 308 0 l 363 382 l 326 382 l 142 0 l -39 0 z "},"a":{"ha":525,"x_min":8,"x_max":524,"o":"m 164 -11 q 105 -6 135 -11 q 52 19 75 0 q 19 80 29 39 q 19 193 8 121 l 71 540 q 111 644 82 611 q 176 688 140 678 q 240 697 211 697 q 320 679 292 697 q 358 636 349 661 l 365 688 l 524 688 l 426 0 l 301 0 l 314 86 q 285 43 303 65 q 238 5 267 21 q 164 -11 210 -11 m 214 81 q 246 91 232 81 q 269 119 260 101 q 284 155 278 136 q 294 190 290 174 q 299 217 297 206 l 349 569 q 341 582 346 574 q 324 597 336 590 q 290 603 313 603 q 250 588 264 603 q 231 545 236 572 q 219 483 225 518 l 172 164 q 172 122 169 138 q 181 97 174 106 q 196 84 188 88 q 214 81 204 81 z "},"а":{"ha":525,"x_min":8,"x_max":524,"o":"m 164 -11 q 105 -6 135 -11 q 52 19 75 0 q 19 80 29 39 q 19 193 8 121 l 71 540 q 111 644 82 611 q 176 688 140 678 q 240 697 211 697 q 320 679 292 697 q 358 636 349 661 l 365 688 l 524 688 l 426 0 l 301 0 l 314 86 q 285 43 303 65 q 238 5 267 21 q 164 -11 210 -11 m 214 81 q 246 91 232 81 q 269 119 260 101 q 284 155 278 136 q 294 190 290 174 q 299 217 297 206 l 349 569 q 341 582 346 574 q 324 597 336 590 q 290 603 313 603 q 250 588 264 603 q 231 545 236 572 q 219 483 225 518 l 172 164 q 172 122 169 138 q 181 97 174 106 q 196 84 188 88 q 214 81 204 81 z "},"á":{"ha":525,"x_min":8,"x_max":524,"o":"m 164 -11 q 105 -6 135 -11 q 52 19 75 0 q 19 80 29 39 q 19 193 8 121 l 71 540 q 111 644 82 611 q 176 688 140 678 q 240 697 211 697 q 320 679 292 697 q 358 636 349 661 l 365 688 l 524 688 l 426 0 l 301 0 l 314 86 q 285 43 303 65 q 238 5 267 21 q 164 -11 210 -11 m 214 81 q 246 91 232 81 q 269 119 260 101 q 284 155 278 136 q 294 190 290 174 q 299 217 297 206 l 349 569 q 341 582 346 574 q 324 597 336 590 q 290 603 313 603 q 250 588 264 603 q 231 545 236 572 q 219 483 225 518 l 172 164 q 172 122 169 138 q 181 97 174 106 q 196 84 188 88 q 214 81 204 81 m 253 761 l 342 900 l 494 900 l 351 761 l 253 761 z "},"ă":{"ha":525,"x_min":8,"x_max":524,"o":"m 164 -11 q 105 -6 135 -11 q 52 19 75 0 q 19 80 29 39 q 19 193 8 121 l 71 540 q 111 644 82 611 q 176 688 140 678 q 240 697 211 697 q 320 679 292 697 q 358 636 349 661 l 365 688 l 524 688 l 426 0 l 301 0 l 314 86 q 285 43 303 65 q 238 5 267 21 q 164 -11 210 -11 m 214 81 q 246 91 232 81 q 269 119 260 101 q 284 155 278 136 q 294 190 290 174 q 299 217 297 206 l 349 569 q 341 582 346 574 q 324 597 336 590 q 290 603 313 603 q 250 588 264 603 q 231 545 236 572 q 219 483 225 518 l 172 164 q 172 122 169 138 q 181 97 174 106 q 196 84 188 88 q 214 81 204 81 m 326 761 q 249 776 278 761 q 207 812 219 790 q 192 857 194 833 q 190 900 189 881 l 276 900 q 293 853 275 868 q 339 838 311 838 q 390 852 368 838 q 419 900 411 867 l 506 900 q 479 833 500 864 q 421 781 458 801 q 326 761 383 761 z "},"ắ":{"ha":525,"x_min":8,"x_max":524,"o":"m 164 -11 q 105 -6 135 -11 q 52 19 75 0 q 19 80 29 39 q 19 193 8 121 l 71 540 q 111 644 82 611 q 176 688 140 678 q 240 697 211 697 q 320 679 292 697 q 358 636 349 661 l 365 688 l 524 688 l 426 0 l 301 0 l 314 86 q 285 43 303 65 q 238 5 267 21 q 164 -11 210 -11 m 214 81 q 246 91 232 81 q 269 119 260 101 q 284 155 278 136 q 294 190 290 174 q 299 217 297 206 l 349 569 q 341 582 346 574 q 324 597 336 590 q 290 603 313 603 q 250 588 264 603 q 231 545 236 572 q 219 483 225 518 l 172 164 q 172 122 169 138 q 181 97 174 106 q 196 84 188 88 q 214 81 204 81 m 326 761 q 249 776 278 761 q 207 812 219 790 q 192 857 194 833 q 190 900 189 881 l 276 900 q 293 853 275 868 q 339 838 311 838 q 390 852 368 838 q 419 900 411 867 l 506 900 q 479 833 500 864 q 421 781 458 801 q 326 761 383 761 m 278 933 l 367 1072 l 519 1072 l 376 933 l 278 933 z "},"ặ":{"ha":525,"x_min":8,"x_max":524,"o":"m 164 -11 q 105 -6 135 -11 q 52 19 75 0 q 19 80 29 39 q 19 193 8 121 l 71 540 q 111 644 82 611 q 176 688 140 678 q 240 697 211 697 q 320 679 292 697 q 358 636 349 661 l 365 688 l 524 688 l 426 0 l 301 0 l 314 86 q 285 43 303 65 q 238 5 267 21 q 164 -11 210 -11 m 214 81 q 246 91 232 81 q 269 119 260 101 q 284 155 278 136 q 294 190 290 174 q 299 217 297 206 l 349 569 q 341 582 346 574 q 324 597 336 590 q 290 603 313 603 q 250 588 264 603 q 231 545 236 572 q 219 483 225 518 l 172 164 q 172 122 169 138 q 181 97 174 106 q 196 84 188 88 q 214 81 204 81 m 199 -179 q 151 -160 169 -179 q 132 -115 132 -142 q 151 -71 132 -89 q 199 -53 169 -53 q 244 -71 226 -53 q 263 -115 263 -89 q 244 -160 263 -142 q 199 -179 226 -179 m 326 761 q 249 776 278 761 q 207 812 219 790 q 192 857 194 833 q 190 900 189 881 l 276 900 q 293 853 275 868 q 339 838 311 838 q 390 852 368 838 q 419 900 411 867 l 506 900 q 479 833 500 864 q 421 781 458 801 q 326 761 383 761 z "},"ằ":{"ha":525,"x_min":8,"x_max":524,"o":"m 164 -11 q 105 -6 135 -11 q 52 19 75 0 q 19 80 29 39 q 19 193 8 121 l 71 540 q 111 644 82 611 q 176 688 140 678 q 240 697 211 697 q 320 679 292 697 q 358 636 349 661 l 365 688 l 524 688 l 426 0 l 301 0 l 314 86 q 285 43 303 65 q 238 5 267 21 q 164 -11 210 -11 m 214 81 q 246 91 232 81 q 269 119 260 101 q 284 155 278 136 q 294 190 290 174 q 299 217 297 206 l 349 569 q 341 582 346 574 q 324 597 336 590 q 290 603 313 603 q 250 588 264 603 q 231 545 236 572 q 219 483 225 518 l 172 164 q 172 122 169 138 q 181 97 174 106 q 196 84 188 88 q 214 81 204 81 m 326 761 q 249 776 278 761 q 207 812 219 790 q 192 857 194 833 q 190 900 189 881 l 276 900 q 293 853 275 868 q 339 838 311 838 q 390 852 368 838 q 419 900 411 867 l 506 900 q 479 833 500 864 q 421 781 458 801 q 326 761 383 761 m 319 933 l 206 1072 l 358 1072 l 419 933 l 319 933 z "},"ẳ":{"ha":525,"x_min":8,"x_max":524,"o":"m 164 -11 q 105 -6 135 -11 q 52 19 75 0 q 19 80 29 39 q 19 193 8 121 l 71 540 q 111 644 82 611 q 176 688 140 678 q 240 697 211 697 q 320 679 292 697 q 358 636 349 661 l 365 688 l 524 688 l 426 0 l 301 0 l 314 86 q 285 43 303 65 q 238 5 267 21 q 164 -11 210 -11 m 214 81 q 246 91 232 81 q 269 119 260 101 q 284 155 278 136 q 294 190 290 174 q 299 217 297 206 l 349 569 q 341 582 346 574 q 324 597 336 590 q 290 603 313 603 q 250 588 264 603 q 231 545 236 572 q 219 483 225 518 l 172 164 q 172 122 169 138 q 181 97 174 106 q 196 84 188 88 q 214 81 204 81 m 326 761 q 249 776 278 761 q 207 812 219 790 q 192 857 194 833 q 190 900 189 881 l 276 900 q 293 853 275 868 q 339 838 311 838 q 390 852 368 838 q 419 900 411 867 l 506 900 q 479 833 500 864 q 421 781 458 801 q 326 761 383 761 m 304 919 l 308 950 q 326 979 311 971 q 354 994 340 988 q 369 1019 368 1001 l 372 1032 q 370 1053 374 1044 q 351 1063 367 1063 q 324 1033 331 1063 l 253 1044 q 290 1101 263 1082 q 367 1121 318 1121 q 445 1097 421 1121 q 461 1028 469 1072 l 460 1022 q 447 982 457 993 q 424 967 436 971 q 402 960 411 964 q 392 942 393 956 l 389 919 l 304 919 z "},"ẵ":{"ha":525,"x_min":8,"x_max":532,"o":"m 164 -11 q 105 -6 135 -11 q 52 19 75 0 q 19 80 29 39 q 19 193 8 121 l 71 540 q 111 644 82 611 q 176 688 140 678 q 240 697 211 697 q 320 679 292 697 q 358 636 349 661 l 365 688 l 524 688 l 426 0 l 301 0 l 314 86 q 285 43 303 65 q 238 5 267 21 q 164 -11 210 -11 m 214 81 q 246 91 232 81 q 269 119 260 101 q 284 155 278 136 q 294 190 290 174 q 299 217 297 206 l 349 569 q 341 582 346 574 q 324 597 336 590 q 290 603 313 603 q 250 588 264 603 q 231 545 236 572 q 219 483 225 518 l 172 164 q 172 122 169 138 q 181 97 174 106 q 196 84 188 88 q 214 81 204 81 m 326 761 q 249 776 278 761 q 207 812 219 790 q 192 857 194 833 q 190 900 189 881 l 276 900 q 293 853 275 868 q 339 838 311 838 q 390 852 368 838 q 419 900 411 867 l 506 900 q 479 833 500 864 q 421 781 458 801 q 326 761 383 761 m 418 938 q 381 945 397 938 q 347 964 364 953 q 319 981 333 974 q 288 988 304 988 q 258 974 271 988 q 240 939 246 961 l 193 939 q 231 1027 201 993 q 300 1061 260 1061 q 340 1053 322 1061 q 374 1035 357 1046 q 402 1020 389 1026 q 431 1014 415 1014 q 463 1026 451 1014 q 479 1057 474 1038 l 532 1057 q 488 969 522 1000 q 418 938 453 938 z "},"ǎ":{"ha":525,"x_min":8,"x_max":528,"o":"m 164 -11 q 105 -6 135 -11 q 52 19 75 0 q 19 80 29 39 q 19 193 8 121 l 71 540 q 111 644 82 611 q 176 688 140 678 q 240 697 211 697 q 320 679 292 697 q 358 636 349 661 l 365 688 l 524 688 l 426 0 l 301 0 l 314 86 q 285 43 303 65 q 238 5 267 21 q 164 -11 210 -11 m 214 81 q 246 91 232 81 q 269 119 260 101 q 284 155 278 136 q 294 190 290 174 q 299 217 297 206 l 349 569 q 341 582 346 574 q 324 597 336 590 q 290 603 313 603 q 250 588 264 603 q 231 545 236 572 q 219 483 225 518 l 172 164 q 172 122 169 138 q 181 97 174 106 q 196 84 188 88 q 214 81 204 81 m 286 758 l 175 904 l 271 904 l 340 829 l 433 904 l 528 904 l 375 758 l 286 758 z "},"â":{"ha":525,"x_min":8,"x_max":524,"o":"m 164 -11 q 105 -6 135 -11 q 52 19 75 0 q 19 80 29 39 q 19 193 8 121 l 71 540 q 111 644 82 611 q 176 688 140 678 q 240 697 211 697 q 320 679 292 697 q 358 636 349 661 l 365 688 l 524 688 l 426 0 l 301 0 l 314 86 q 285 43 303 65 q 238 5 267 21 q 164 -11 210 -11 m 214 81 q 246 91 232 81 q 269 119 260 101 q 284 155 278 136 q 294 190 290 174 q 299 217 297 206 l 349 569 q 341 582 346 574 q 324 597 336 590 q 290 603 313 603 q 250 588 264 603 q 231 545 236 572 q 219 483 225 518 l 172 164 q 172 122 169 138 q 181 97 174 106 q 196 84 188 88 q 214 81 204 81 m 151 758 l 303 904 l 393 904 l 504 758 l 410 758 l 339 836 l 249 758 l 151 758 z "},"ấ":{"ha":525,"x_min":8,"x_max":742,"o":"m 164 -11 q 105 -6 135 -11 q 52 19 75 0 q 19 80 29 39 q 19 193 8 121 l 71 540 q 111 644 82 611 q 176 688 140 678 q 240 697 211 697 q 320 679 292 697 q 358 636 349 661 l 365 688 l 524 688 l 426 0 l 301 0 l 314 86 q 285 43 303 65 q 238 5 267 21 q 164 -11 210 -11 m 214 81 q 246 91 232 81 q 269 119 260 101 q 284 155 278 136 q 294 190 290 174 q 299 217 297 206 l 349 569 q 341 582 346 574 q 324 597 336 590 q 290 603 313 603 q 250 588 264 603 q 231 545 236 572 q 219 483 225 518 l 172 164 q 172 122 169 138 q 181 97 174 106 q 196 84 188 88 q 214 81 204 81 m 151 758 l 303 904 l 393 904 l 504 758 l 410 758 l 339 836 l 249 758 l 151 758 m 500 844 l 589 983 l 742 983 l 599 844 l 500 844 z "},"ậ":{"ha":525,"x_min":8,"x_max":524,"o":"m 164 -11 q 105 -6 135 -11 q 52 19 75 0 q 19 80 29 39 q 19 193 8 121 l 71 540 q 111 644 82 611 q 176 688 140 678 q 240 697 211 697 q 320 679 292 697 q 358 636 349 661 l 365 688 l 524 688 l 426 0 l 301 0 l 314 86 q 285 43 303 65 q 238 5 267 21 q 164 -11 210 -11 m 214 81 q 246 91 232 81 q 269 119 260 101 q 284 155 278 136 q 294 190 290 174 q 299 217 297 206 l 349 569 q 341 582 346 574 q 324 597 336 590 q 290 603 313 603 q 250 588 264 603 q 231 545 236 572 q 219 483 225 518 l 172 164 q 172 122 169 138 q 181 97 174 106 q 196 84 188 88 q 214 81 204 81 m 199 -179 q 151 -160 169 -179 q 132 -115 132 -142 q 151 -71 132 -89 q 199 -53 169 -53 q 244 -71 226 -53 q 263 -115 263 -89 q 244 -160 263 -142 q 199 -179 226 -179 m 151 758 l 303 904 l 393 904 l 504 758 l 410 758 l 339 836 l 249 758 l 151 758 z "},"ầ":{"ha":525,"x_min":8,"x_max":642,"o":"m 164 -11 q 105 -6 135 -11 q 52 19 75 0 q 19 80 29 39 q 19 193 8 121 l 71 540 q 111 644 82 611 q 176 688 140 678 q 240 697 211 697 q 320 679 292 697 q 358 636 349 661 l 365 688 l 524 688 l 426 0 l 301 0 l 314 86 q 285 43 303 65 q 238 5 267 21 q 164 -11 210 -11 m 214 81 q 246 91 232 81 q 269 119 260 101 q 284 155 278 136 q 294 190 290 174 q 299 217 297 206 l 349 569 q 341 582 346 574 q 324 597 336 590 q 290 603 313 603 q 250 588 264 603 q 231 545 236 572 q 219 483 225 518 l 172 164 q 172 122 169 138 q 181 97 174 106 q 196 84 188 88 q 214 81 204 81 m 151 758 l 303 904 l 393 904 l 504 758 l 410 758 l 339 836 l 249 758 l 151 758 m 542 844 l 428 983 l 581 983 l 642 844 l 542 844 z "},"ẩ":{"ha":525,"x_min":8,"x_max":690,"o":"m 164 -11 q 105 -6 135 -11 q 52 19 75 0 q 19 80 29 39 q 19 193 8 121 l 71 540 q 111 644 82 611 q 176 688 140 678 q 240 697 211 697 q 320 679 292 697 q 358 636 349 661 l 365 688 l 524 688 l 426 0 l 301 0 l 314 86 q 285 43 303 65 q 238 5 267 21 q 164 -11 210 -11 m 214 81 q 246 91 232 81 q 269 119 260 101 q 284 155 278 136 q 294 190 290 174 q 299 217 297 206 l 349 569 q 341 582 346 574 q 324 597 336 590 q 290 603 313 603 q 250 588 264 603 q 231 545 236 572 q 219 483 225 518 l 172 164 q 172 122 169 138 q 181 97 174 106 q 196 84 188 88 q 214 81 204 81 m 151 758 l 303 904 l 393 904 l 504 758 l 410 758 l 339 836 l 249 758 l 151 758 m 526 831 l 531 861 q 548 890 533 882 q 576 906 563 899 q 592 931 590 913 l 594 943 q 592 965 596 956 q 574 974 589 974 q 546 944 553 974 l 475 956 q 513 1013 485 993 q 589 1032 540 1032 q 667 1008 643 1032 q 683 939 692 983 l 682 933 q 669 893 679 904 q 646 878 658 882 q 624 871 633 875 q 614 853 615 867 l 611 831 l 526 831 z "},"ẫ":{"ha":525,"x_min":8,"x_max":528,"o":"m 164 -11 q 105 -6 135 -11 q 52 19 75 0 q 19 80 29 39 q 19 193 8 121 l 71 540 q 111 644 82 611 q 176 688 140 678 q 240 697 211 697 q 320 679 292 697 q 358 636 349 661 l 365 688 l 524 688 l 426 0 l 301 0 l 314 86 q 285 43 303 65 q 238 5 267 21 q 164 -11 210 -11 m 214 81 q 246 91 232 81 q 269 119 260 101 q 284 155 278 136 q 294 190 290 174 q 299 217 297 206 l 349 569 q 341 582 346 574 q 324 597 336 590 q 290 603 313 603 q 250 588 264 603 q 231 545 236 572 q 219 483 225 518 l 172 164 q 172 122 169 138 q 181 97 174 106 q 196 84 188 88 q 214 81 204 81 m 151 758 l 303 904 l 393 904 l 504 758 l 410 758 l 339 836 l 249 758 l 151 758 m 414 936 q 376 944 393 936 q 343 963 360 951 q 315 979 329 972 q 283 986 300 986 q 254 973 267 986 q 236 938 242 960 l 189 938 q 226 1026 197 992 q 296 1060 256 1060 q 335 1052 318 1060 q 369 1033 353 1044 q 398 1019 385 1025 q 426 1013 411 1013 q 458 1024 447 1013 q 475 1056 469 1036 l 528 1056 q 483 967 518 999 q 414 936 449 936 z "},"´":{"ha":224,"x_min":60,"x_max":301,"o":"m 60 761 l 149 900 l 301 900 l 158 761 l 60 761 z "},"́":{"ha":0,"x_min":60,"x_max":301,"o":"m 60 761 l 149 900 l 301 900 l 158 761 l 60 761 z "},"ä":{"ha":525,"x_min":8,"x_max":524,"o":"m 164 -11 q 105 -6 135 -11 q 52 19 75 0 q 19 80 29 39 q 19 193 8 121 l 71 540 q 111 644 82 611 q 176 688 140 678 q 240 697 211 697 q 320 679 292 697 q 358 636 349 661 l 365 688 l 524 688 l 426 0 l 301 0 l 314 86 q 285 43 303 65 q 238 5 267 21 q 164 -11 210 -11 m 214 81 q 246 91 232 81 q 269 119 260 101 q 284 155 278 136 q 294 190 290 174 q 299 217 297 206 l 349 569 q 341 582 346 574 q 324 597 336 590 q 290 603 313 603 q 250 588 264 603 q 231 545 236 572 q 219 483 225 518 l 172 164 q 172 122 169 138 q 181 97 174 106 q 196 84 188 88 q 214 81 204 81 m 254 767 q 208 785 226 767 q 189 831 189 804 q 208 875 189 857 q 254 893 226 893 q 301 875 283 893 q 319 831 319 857 q 301 785 319 804 q 254 767 283 767 m 422 767 q 374 785 393 767 q 356 831 356 804 q 374 875 356 857 q 422 893 393 893 q 468 875 450 893 q 486 831 486 857 q 468 785 486 804 q 422 767 450 767 z "},"ạ":{"ha":525,"x_min":8,"x_max":524,"o":"m 164 -11 q 105 -6 135 -11 q 52 19 75 0 q 19 80 29 39 q 19 193 8 121 l 71 540 q 111 644 82 611 q 176 688 140 678 q 240 697 211 697 q 320 679 292 697 q 358 636 349 661 l 365 688 l 524 688 l 426 0 l 301 0 l 314 86 q 285 43 303 65 q 238 5 267 21 q 164 -11 210 -11 m 214 81 q 246 91 232 81 q 269 119 260 101 q 284 155 278 136 q 294 190 290 174 q 299 217 297 206 l 349 569 q 341 582 346 574 q 324 597 336 590 q 290 603 313 603 q 250 588 264 603 q 231 545 236 572 q 219 483 225 518 l 172 164 q 172 122 169 138 q 181 97 174 106 q 196 84 188 88 q 214 81 204 81 m 199 -179 q 151 -160 169 -179 q 132 -115 132 -142 q 151 -71 132 -89 q 199 -53 169 -53 q 244 -71 226 -53 q 263 -115 263 -89 q 244 -160 263 -142 q 199 -179 226 -179 z "},"æ":{"ha":779,"x_min":4,"x_max":792,"o":"m 129 -8 q 90 -6 113 -8 q 47 10 67 -3 q 15 51 26 22 q 11 135 4 81 l 24 226 q 83 334 35 296 q 200 397 131 372 q 276 430 247 417 q 319 463 304 443 q 339 517 335 483 l 346 558 q 343 592 349 581 q 325 610 338 604 q 296 615 313 615 q 245 591 260 615 q 224 510 231 567 l 215 451 l 71 451 l 81 525 q 109 616 89 576 q 176 678 129 656 q 308 701 222 701 q 421 682 383 701 q 469 628 458 663 q 472 543 481 593 l 400 25 l 317 113 q 233 18 285 44 q 129 -8 182 -8 m 213 96 q 268 123 250 96 q 294 201 286 150 l 319 378 q 287 353 308 364 q 244 329 265 343 q 201 293 217 311 q 181 243 185 275 l 171 172 q 172 126 167 143 q 187 102 176 108 q 213 96 197 96 m 486 -3 q 401 3 438 -3 q 344 31 365 10 q 315 94 322 51 q 318 211 308 138 l 363 524 q 430 652 374 604 q 585 700 486 700 q 742 662 693 700 q 776 524 792 624 l 751 336 l 475 336 l 449 146 q 453 88 443 103 q 497 72 464 72 q 532 79 518 72 q 554 103 546 86 q 567 149 563 119 l 581 254 l 739 254 l 733 215 q 702 97 722 140 q 652 32 682 53 q 581 4 622 11 q 486 -3 539 -3 m 485 408 l 601 408 l 621 542 q 616 599 626 582 q 572 615 606 615 q 525 599 540 615 q 504 542 510 582 l 485 408 z "},"à":{"ha":525,"x_min":8,"x_max":524,"o":"m 164 -11 q 105 -6 135 -11 q 52 19 75 0 q 19 80 29 39 q 19 193 8 121 l 71 540 q 111 644 82 611 q 176 688 140 678 q 240 697 211 697 q 320 679 292 697 q 358 636 349 661 l 365 688 l 524 688 l 426 0 l 301 0 l 314 86 q 285 43 303 65 q 238 5 267 21 q 164 -11 210 -11 m 214 81 q 246 91 232 81 q 269 119 260 101 q 284 155 278 136 q 294 190 290 174 q 299 217 297 206 l 349 569 q 341 582 346 574 q 324 597 336 590 q 290 603 313 603 q 250 588 264 603 q 231 545 236 572 q 219 483 225 518 l 172 164 q 172 122 169 138 q 181 97 174 106 q 196 84 188 88 q 214 81 204 81 m 294 761 l 181 900 l 333 900 l 394 761 l 294 761 z "},"ả":{"ha":525,"x_min":8,"x_max":524,"o":"m 164 -11 q 105 -6 135 -11 q 52 19 75 0 q 19 80 29 39 q 19 193 8 121 l 71 540 q 111 644 82 611 q 176 688 140 678 q 240 697 211 697 q 320 679 292 697 q 358 636 349 661 l 365 688 l 524 688 l 426 0 l 301 0 l 314 86 q 285 43 303 65 q 238 5 267 21 q 164 -11 210 -11 m 214 81 q 246 91 232 81 q 269 119 260 101 q 284 155 278 136 q 294 190 290 174 q 299 217 297 206 l 349 569 q 341 582 346 574 q 324 597 336 590 q 290 603 313 603 q 250 588 264 603 q 231 545 236 572 q 219 483 225 518 l 172 164 q 172 122 169 138 q 181 97 174 106 q 196 84 188 88 q 214 81 204 81 m 279 747 l 283 778 q 301 807 286 799 q 329 822 315 815 q 344 847 343 829 l 347 860 q 345 881 349 872 q 326 890 342 890 q 299 861 306 890 l 228 872 q 265 929 238 910 q 342 949 293 949 q 420 924 396 949 q 436 856 444 900 l 435 850 q 422 810 432 821 q 399 795 411 799 q 377 788 386 792 q 367 769 368 783 l 364 747 l 279 747 z "},"ā":{"ha":525,"x_min":8,"x_max":524,"o":"m 164 -11 q 105 -6 135 -11 q 52 19 75 0 q 19 80 29 39 q 19 193 8 121 l 71 540 q 111 644 82 611 q 176 688 140 678 q 240 697 211 697 q 320 679 292 697 q 358 636 349 661 l 365 688 l 524 688 l 426 0 l 301 0 l 314 86 q 285 43 303 65 q 238 5 267 21 q 164 -11 210 -11 m 214 81 q 246 91 232 81 q 269 119 260 101 q 284 155 278 136 q 294 190 290 174 q 299 217 297 206 l 349 569 q 341 582 346 574 q 324 597 336 590 q 290 603 313 603 q 250 588 264 603 q 231 545 236 572 q 219 483 225 518 l 172 164 q 172 122 169 138 q 181 97 174 106 q 196 84 188 88 q 214 81 204 81 m 181 778 l 190 858 l 476 858 l 467 778 l 181 778 z "},"&":{"ha":643,"x_min":14,"x_max":614,"o":"m 210 -6 q 91 23 136 -6 q 30 102 46 51 q 22 224 14 153 q 67 341 32 290 q 163 404 103 392 q 146 465 151 431 q 149 544 140 500 q 211 664 163 622 q 349 706 260 706 q 433 699 392 706 q 506 686 475 693 q 547 674 536 679 l 529 558 q 502 566 526 560 q 444 578 478 572 q 374 583 410 583 q 321 569 342 583 q 292 533 300 554 q 285 486 283 511 q 297 438 286 461 q 315 408 303 426 q 339 370 326 390 q 364 333 351 350 q 383 306 376 315 l 403 431 l 614 431 l 600 331 l 492 331 q 485 287 489 306 q 478 252 482 268 q 469 219 475 236 q 525 173 496 196 q 572 140 554 150 l 553 -3 q 481 26 524 -1 q 399 89 438 53 q 347 32 376 53 q 282 3 317 11 q 210 -6 247 -6 m 232 103 q 289 119 265 103 q 324 161 313 135 q 257 244 289 201 q 204 321 225 286 q 169 293 183 313 q 150 239 156 274 q 161 138 138 174 q 232 103 185 103 z "},"ą":{"ha":525,"x_min":8,"x_max":524,"o":"m 164 -11 q 105 -6 135 -11 q 52 19 75 0 q 19 80 29 39 q 19 193 8 121 l 71 540 q 111 644 82 611 q 176 688 140 678 q 240 697 211 697 q 320 679 292 697 q 358 636 349 661 l 365 688 l 524 688 l 426 0 l 301 0 l 314 86 q 285 43 303 65 q 238 5 267 21 q 164 -11 210 -11 m 214 81 q 246 91 232 81 q 269 119 260 101 q 284 155 278 136 q 294 190 290 174 q 299 217 297 206 l 349 569 q 341 582 346 574 q 324 597 336 590 q 290 603 313 603 q 250 588 264 603 q 231 545 236 572 q 219 483 225 518 l 172 164 q 172 122 169 138 q 181 97 174 106 q 196 84 188 88 q 214 81 204 81 m 331 -200 q 253 -173 281 -200 q 229 -111 225 -146 q 272 -39 236 -72 q 356 1 307 -6 l 419 0 q 360 -39 381 -12 q 335 -89 339 -65 q 347 -129 332 -115 q 381 -143 363 -143 q 399 -140 390 -143 q 410 -137 407 -137 l 424 -179 q 393 -192 414 -183 q 331 -200 372 -200 z "},"≈":{"ha":726,"x_min":18,"x_max":708,"o":"m 507 425 q 417 442 458 426 q 333 473 375 457 q 239 492 290 489 q 175 472 201 493 q 142 425 149 451 l 60 425 q 95 511 68 474 q 165 572 122 549 q 260 593 208 594 q 347 577 307 592 q 428 548 388 563 q 515 532 469 533 q 588 549 564 529 q 617 590 611 568 l 708 590 q 665 484 697 521 q 590 435 632 447 q 507 425 549 422 m 465 129 q 376 148 418 132 q 292 180 335 164 q 199 197 250 196 q 133 178 160 199 q 100 131 106 157 l 18 131 q 54 216 26 178 q 124 277 82 254 q 218 299 167 300 q 307 283 267 297 q 388 253 347 268 q 475 238 429 239 q 547 254 524 235 q 576 296 569 274 l 667 296 q 623 190 656 226 q 548 140 590 153 q 465 129 506 128 z "},"å":{"ha":525,"x_min":8,"x_max":524,"o":"m 164 -11 q 105 -6 135 -11 q 52 19 75 0 q 19 80 29 39 q 19 193 8 121 l 71 540 q 111 644 82 611 q 176 688 140 678 q 240 697 211 697 q 320 679 292 697 q 358 636 349 661 l 365 688 l 524 688 l 426 0 l 301 0 l 314 86 q 285 43 303 65 q 238 5 267 21 q 164 -11 210 -11 m 214 81 q 246 91 232 81 q 269 119 260 101 q 284 155 278 136 q 294 190 290 174 q 299 217 297 206 l 349 569 q 341 582 346 574 q 324 597 336 590 q 290 603 313 603 q 250 588 264 603 q 231 545 236 572 q 219 483 225 518 l 172 164 q 172 122 169 138 q 181 97 174 106 q 196 84 188 88 q 214 81 204 81 m 326 751 q 245 785 275 751 q 222 864 215 818 q 267 946 228 913 q 358 979 306 979 q 440 946 410 979 q 463 864 469 913 q 416 785 457 818 q 326 751 375 751 m 335 815 q 376 829 358 815 q 396 864 393 843 q 385 902 399 888 q 349 917 372 917 q 309 902 325 917 q 289 864 293 888 q 300 829 288 843 q 335 815 313 815 z "},"^":{"ha":583,"x_min":29,"x_max":513,"o":"m 29 688 l 274 974 l 351 974 l 513 688 l 383 688 l 296 851 l 161 688 l 29 688 z "},"~":{"ha":726,"x_min":39,"x_max":688,"o":"m 486 706 q 397 722 439 707 q 313 753 356 738 q 218 772 269 769 q 154 753 181 775 q 121 706 128 732 l 39 706 q 74 793 47 754 q 144 854 101 832 q 239 874 188 876 q 327 858 286 874 q 408 828 368 843 q 496 813 449 814 q 567 829 544 810 q 596 871 590 849 l 688 871 q 644 765 676 801 q 569 717 611 729 q 486 706 526 704 z "},"*":{"ha":803,"x_min":56,"x_max":715,"o":"m 215 118 l 107 208 l 338 408 l 56 439 l 133 601 l 363 457 l 350 739 l 506 739 l 417 458 l 688 597 l 715 447 l 428 408 l 604 210 l 468 122 l 379 375 l 215 118 z "},"@":{"ha":974,"x_min":21,"x_max":957,"o":"m 408 -93 q 156 -42 242 -93 q 45 108 69 10 q 40 349 21 207 q 194 698 72 574 q 544 824 315 822 q 770 783 674 825 q 912 649 867 740 q 936 411 957 558 q 886 233 922 304 q 801 124 850 161 q 694 88 751 88 q 636 99 663 88 q 591 130 610 110 q 564 178 572 150 q 558 239 556 206 l 592 229 q 515 138 560 165 q 408 111 469 111 q 306 144 342 111 q 282 261 271 178 q 302 328 288 299 q 355 382 317 358 q 472 426 393 406 q 531 449 507 435 q 563 475 556 464 q 571 494 568 485 q 575 514 574 504 q 567 560 579 546 q 519 574 556 574 q 463 557 481 574 q 439 503 444 540 l 433 461 l 325 461 l 332 508 q 356 585 338 556 q 414 628 374 615 q 528 642 454 642 q 642 626 604 642 q 692 578 681 610 q 694 494 703 546 l 661 256 q 672 174 653 197 q 722 150 690 150 q 774 172 749 150 q 819 248 799 194 q 853 393 839 301 q 841 588 869 506 q 740 714 813 669 q 544 758 667 758 q 337 719 422 758 q 199 590 251 681 q 124 346 146 500 q 124 157 108 231 q 181 44 139 83 q 288 -10 224 6 q 431 -28 351 -26 q 505 -25 458 -29 q 604 -13 551 -21 q 703 6 657 -6 q 774 31 749 17 l 764 -33 q 683 -59 736 -44 q 560 -83 631 -74 q 408 -93 490 -93 m 456 196 q 506 210 488 196 q 535 242 525 224 q 549 274 546 260 l 565 389 q 516 378 540 386 q 472 361 492 371 q 432 339 447 350 q 408 312 417 328 q 396 271 399 296 q 401 215 390 233 q 456 196 413 196 z "},"ã":{"ha":525,"x_min":8,"x_max":524,"o":"m 164 -11 q 105 -6 135 -11 q 52 19 75 0 q 19 80 29 39 q 19 193 8 121 l 71 540 q 111 644 82 611 q 176 688 140 678 q 240 697 211 697 q 320 679 292 697 q 358 636 349 661 l 365 688 l 524 688 l 426 0 l 301 0 l 314 86 q 285 43 303 65 q 238 5 267 21 q 164 -11 210 -11 m 214 81 q 246 91 232 81 q 269 119 260 101 q 284 155 278 136 q 294 190 290 174 q 299 217 297 206 l 349 569 q 341 582 346 574 q 324 597 336 590 q 290 603 313 603 q 250 588 264 603 q 231 545 236 572 q 219 483 225 518 l 172 164 q 172 122 169 138 q 181 97 174 106 q 196 84 188 88 q 214 81 204 81 m 393 765 q 356 773 372 765 q 322 792 339 781 q 294 808 308 801 q 263 815 279 815 q 233 802 246 815 q 215 767 221 789 l 168 767 q 206 855 176 821 q 275 889 235 889 q 315 881 297 889 q 349 863 332 874 q 377 848 364 854 q 406 842 390 842 q 438 853 426 842 q 454 885 449 865 l 507 885 q 463 797 497 828 q 393 765 428 765 z "},"b":{"ha":528,"x_min":3,"x_max":519,"o":"m 254 -10 q 164 15 193 -10 q 128 61 135 39 l 115 0 l 3 0 l 126 875 l 285 875 l 251 640 q 299 682 268 663 q 382 701 329 701 q 444 692 417 701 q 490 664 472 683 q 513 613 507 644 q 514 536 519 582 l 467 201 q 441 95 458 136 q 397 31 424 54 q 336 -1 371 8 q 254 -10 301 -10 m 235 99 q 278 110 264 99 q 297 142 292 122 q 306 185 303 161 l 353 519 q 356 552 356 538 q 353 578 357 567 q 338 594 349 589 q 306 600 326 600 q 268 592 282 600 q 247 567 254 583 q 236 528 239 550 l 190 197 q 186 160 188 178 q 188 128 185 143 q 203 106 192 114 q 235 99 214 99 z "},"\\":{"ha":776,"x_min":117,"x_max":572,"o":"m 461 -62 l 117 875 l 229 875 l 572 -62 l 461 -62 z "},"|":{"ha":399,"x_min":46,"x_max":354,"o":"m 46 -333 l 215 875 l 354 875 l 183 -333 l 46 -333 z "},"б":{"ha":521,"x_min":7,"x_max":517,"o":"m 204 -10 q 95 5 140 -10 q 28 58 50 19 q 17 164 7 96 l 85 654 q 114 772 94 725 q 170 843 133 819 q 267 867 207 867 q 319 869 289 867 q 383 876 350 872 q 446 885 417 881 q 494 895 475 890 q 517 906 513 900 q 512 874 514 890 q 507 842 510 858 q 477 799 504 818 q 393 778 450 779 l 375 778 q 300 767 326 778 q 263 732 274 756 q 246 675 251 708 l 236 613 q 283 655 253 635 q 367 675 313 675 q 447 660 413 675 q 497 610 481 646 q 503 510 513 575 l 461 206 q 432 94 451 136 q 382 29 413 51 q 308 -1 351 7 q 204 -10 264 -10 m 222 81 q 263 91 249 81 q 285 120 278 101 q 297 164 293 139 l 343 494 q 345 538 347 519 q 332 565 343 556 q 294 575 321 575 q 258 569 272 575 q 238 553 244 564 q 226 529 231 542 q 219 503 222 517 l 174 164 q 172 120 169 139 q 185 91 174 101 q 222 81 197 81 z "},"{":{"ha":463,"x_min":33,"x_max":468,"o":"m 313 -189 q 140 -157 201 -186 q 56 -83 78 -128 q 40 11 33 -37 q 69 98 49 63 q 115 160 90 133 q 158 211 139 186 q 181 264 176 236 q 173 306 185 289 q 139 335 161 324 q 83 346 117 346 l 90 392 q 143 405 118 393 q 187 438 168 417 q 208 485 206 458 q 200 532 213 508 q 172 582 188 556 q 144 642 156 608 q 139 717 133 675 q 181 817 147 772 q 283 891 214 863 q 468 924 353 919 l 456 839 q 389 824 419 833 q 338 791 358 815 q 310 717 317 767 q 312 646 304 676 q 331 590 319 615 q 349 537 342 564 q 351 474 357 510 q 335 431 349 454 q 297 391 322 408 q 229 369 271 374 q 303 341 275 364 q 325 271 331 318 q 307 215 321 240 q 276 162 293 189 q 244 103 258 135 q 224 28 229 71 q 232 -51 217 -22 q 274 -91 247 -79 q 324 -106 300 -103 l 313 -189 z "},"}":{"ha":463,"x_min":-6,"x_max":428,"o":"m -6 -189 l 7 -106 q 60 -91 31 -103 q 114 -51 90 -79 q 144 28 138 -22 q 144 103 150 71 q 129 162 139 135 q 113 215 119 189 q 111 271 107 240 q 151 341 117 318 q 235 369 186 364 q 173 391 194 374 q 144 431 151 408 q 140 474 138 454 q 160 537 144 510 q 194 590 175 564 q 229 646 214 615 q 250 717 244 676 q 243 791 257 767 q 201 824 229 815 q 139 839 174 833 l 150 924 q 326 891 265 919 q 408 817 388 863 q 421 717 428 772 q 395 642 415 675 q 351 582 375 608 q 310 532 328 556 q 288 485 292 508 q 296 438 285 458 q 330 405 307 417 q 379 392 353 393 l 372 346 q 315 335 340 346 q 272 306 289 324 q 253 264 256 289 q 261 211 249 236 q 290 160 274 186 q 318 98 307 133 q 321 11 329 63 q 279 -83 314 -37 q 176 -157 244 -128 q -6 -189 107 -186 z "},"[":{"ha":435,"x_min":-7,"x_max":440,"o":"m -7 -79 l 126 875 l 440 875 l 429 792 l 264 792 l 154 4 l 319 4 l 307 -79 l -7 -79 z "},"]":{"ha":435,"x_min":-7,"x_max":440,"o":"m -7 -79 l 4 4 l 169 4 l 281 792 l 115 792 l 126 875 l 440 875 l 307 -79 l -7 -79 z "},"˘":{"ha":315,"x_min":76,"x_max":393,"o":"m 214 761 q 136 776 165 761 q 94 812 107 790 q 79 857 82 833 q 78 900 76 881 l 164 900 q 181 853 163 868 q 226 838 199 838 q 277 852 256 838 q 307 900 299 867 l 393 900 q 367 833 388 864 q 308 781 346 801 q 214 761 271 761 z "},"̆":{"ha":0,"x_min":76,"x_max":393,"o":"m 214 761 q 136 776 165 761 q 94 812 107 790 q 79 857 82 833 q 78 900 76 881 l 164 900 q 181 853 163 868 q 226 838 199 838 q 277 852 256 838 q 307 900 299 867 l 393 900 q 367 833 388 864 q 308 781 346 801 q 214 761 271 761 z "},"¦":{"ha":319,"x_min":18,"x_max":303,"o":"m 18 -232 l 85 246 l 222 246 l 156 -232 l 18 -232 m 103 375 l 165 813 l 303 813 l 242 375 l 103 375 z "},"•":{"ha":515,"x_min":68,"x_max":447,"o":"m 258 199 q 163 224 206 199 q 94 293 119 250 q 68 389 68 336 q 94 484 68 442 q 163 552 119 526 q 258 578 206 578 q 353 552 311 578 q 422 484 396 526 q 447 389 447 442 q 422 293 447 336 q 353 224 396 250 q 258 199 311 199 z "},"c":{"ha":508,"x_min":11,"x_max":515,"o":"m 208 -15 q 116 -7 156 -15 q 51 24 76 1 q 19 92 26 47 q 22 211 11 138 l 67 524 q 140 662 81 624 q 308 700 199 700 q 466 662 417 700 q 500 524 515 624 l 486 422 l 328 422 l 344 542 q 340 599 350 582 q 296 615 329 615 q 249 599 264 615 q 228 542 233 582 l 171 146 q 176 86 165 103 q 219 69 186 69 q 267 86 253 69 q 288 146 282 103 l 307 278 l 465 278 l 457 211 q 411 65 443 114 q 328 1 379 17 q 208 -15 278 -15 z "},"ć":{"ha":508,"x_min":11,"x_max":515,"o":"m 208 -15 q 116 -7 156 -15 q 51 24 76 1 q 19 92 26 47 q 22 211 11 138 l 67 524 q 140 662 81 624 q 308 700 199 700 q 466 662 417 700 q 500 524 515 624 l 486 422 l 328 422 l 344 542 q 340 599 350 582 q 296 615 329 615 q 249 599 264 615 q 228 542 233 582 l 171 146 q 176 86 165 103 q 219 69 186 69 q 267 86 253 69 q 288 146 282 103 l 307 278 l 465 278 l 457 211 q 411 65 443 114 q 328 1 379 17 q 208 -15 278 -15 m 238 761 l 326 900 l 479 900 l 336 761 l 238 761 z "},"ˇ":{"ha":353,"x_min":79,"x_max":432,"o":"m 190 758 l 79 904 l 175 904 l 244 829 l 338 904 l 432 904 l 279 758 l 190 758 z "},"̌":{"ha":0,"x_min":79,"x_max":432,"o":"m 190 758 l 79 904 l 175 904 l 244 829 l 338 904 l 432 904 l 279 758 l 190 758 z "},"č":{"ha":508,"x_min":11,"x_max":515,"o":"m 208 -15 q 116 -7 156 -15 q 51 24 76 1 q 19 92 26 47 q 22 211 11 138 l 67 524 q 140 662 81 624 q 308 700 199 700 q 466 662 417 700 q 500 524 515 624 l 486 422 l 328 422 l 344 542 q 340 599 350 582 q 296 615 329 615 q 249 599 264 615 q 228 542 233 582 l 171 146 q 176 86 165 103 q 219 69 186 69 q 267 86 253 69 q 288 146 282 103 l 307 278 l 465 278 l 457 211 q 411 65 443 114 q 328 1 379 17 q 208 -15 278 -15 m 271 758 l 160 904 l 256 904 l 325 829 l 418 904 l 513 904 l 360 758 l 271 758 z "},"ç":{"ha":508,"x_min":11,"x_max":515,"o":"m 208 -15 q 116 -7 156 -15 q 51 24 76 1 q 19 92 26 47 q 22 211 11 138 l 67 524 q 140 662 81 624 q 308 700 199 700 q 466 662 417 700 q 500 524 515 624 l 486 422 l 328 422 l 344 542 q 340 599 350 582 q 296 615 329 615 q 249 599 264 615 q 228 542 233 582 l 171 146 q 176 86 165 103 q 219 69 186 69 q 267 86 253 69 q 288 146 282 103 l 307 278 l 465 278 l 457 211 q 411 65 443 114 q 328 1 379 17 q 208 -15 278 -15 m 169 -219 q 121 -209 142 -219 q 90 -193 100 -199 l 119 -143 q 142 -156 126 -150 q 171 -162 157 -162 q 206 -151 193 -162 q 219 -125 218 -140 q 192 -94 225 -94 q 176 -98 183 -94 q 163 -106 168 -101 l 122 -81 l 178 0 l 239 0 l 192 -67 l 185 -62 q 208 -53 194 -57 q 236 -50 221 -50 q 294 -74 278 -50 q 308 -126 311 -97 q 265 -192 303 -165 q 169 -219 228 -219 z "},"ċ":{"ha":508,"x_min":11,"x_max":515,"o":"m 208 -15 q 116 -7 156 -15 q 51 24 76 1 q 19 92 26 47 q 22 211 11 138 l 67 524 q 140 662 81 624 q 308 700 199 700 q 466 662 417 700 q 500 524 515 624 l 486 422 l 328 422 l 344 542 q 340 599 350 582 q 296 615 329 615 q 249 599 264 615 q 228 542 233 582 l 171 146 q 176 86 165 103 q 219 69 186 69 q 267 86 253 69 q 288 146 282 103 l 307 278 l 465 278 l 457 211 q 411 65 443 114 q 328 1 379 17 q 208 -15 278 -15 m 324 757 q 267 780 290 757 q 242 835 243 803 q 267 892 242 868 q 325 915 292 915 q 383 892 360 915 q 407 835 407 868 q 383 780 408 803 q 324 757 358 757 z "},"¸":{"ha":208,"x_min":-75,"x_max":146,"o":"m 4 -218 q -44 -208 -24 -218 q -75 -192 -65 -197 l -46 -142 q -24 -155 -39 -149 q 6 -161 -8 -161 q 40 -150 28 -161 q 54 -124 53 -139 q 26 -93 60 -93 q 10 -97 18 -93 q -3 -104 3 -100 l -43 -79 l 13 1 l 74 1 l 26 -65 l 19 -61 q 42 -52 29 -56 q 71 -49 56 -49 q 129 -72 113 -49 q 143 -125 146 -96 q 100 -191 138 -164 q 4 -218 63 -218 z "},"̧":{"ha":0,"x_min":-86,"x_max":135,"o":"m -7 -218 q -56 -208 -35 -218 q -86 -192 -76 -197 l -57 -142 q -35 -155 -50 -149 q -6 -161 -19 -161 q 29 -150 17 -161 q 43 -124 42 -139 q 15 -93 49 -93 q -1 -97 7 -93 q -14 -104 -8 -100 l -54 -79 l 1 1 l 63 1 l 15 -65 l 8 -61 q 31 -52 18 -56 q 60 -49 44 -49 q 118 -72 101 -49 q 132 -125 135 -96 q 89 -191 126 -164 q -7 -218 51 -218 z "},"¢":{"ha":508,"x_min":21,"x_max":497,"o":"m 138 -90 l 160 68 q 81 90 114 72 q 34 147 47 107 q 31 263 21 188 l 81 625 q 113 711 89 679 q 175 760 138 743 q 260 779 213 776 l 276 900 l 378 900 l 360 775 q 434 753 403 769 q 481 706 465 736 q 489 625 497 675 l 469 483 l 331 483 l 351 632 q 349 674 357 661 q 327 693 342 688 q 296 699 313 699 q 264 693 279 699 q 238 674 249 688 q 222 632 226 661 l 163 215 q 167 172 160 186 q 188 153 174 158 q 219 147 203 147 q 251 153 236 147 q 278 172 267 158 q 293 215 289 186 l 313 350 l 451 350 l 439 264 q 403 156 429 196 q 342 97 378 115 q 261 72 306 78 l 239 -90 l 138 -90 z "},"ч":{"ha":517,"x_min":22,"x_max":513,"o":"m 268 0 l 300 232 q 246 165 286 190 q 158 140 206 140 q 65 162 94 140 q 28 224 35 183 q 31 324 22 265 l 83 688 l 242 688 l 189 324 q 194 267 185 286 q 235 247 203 247 q 274 258 258 247 q 297 281 290 269 l 354 688 l 513 688 l 415 0 l 268 0 z "},"ˆ":{"ha":353,"x_min":58,"x_max":411,"o":"m 58 758 l 210 904 l 300 904 l 411 758 l 317 758 l 246 836 l 156 758 l 58 758 z "},"̂":{"ha":0,"x_min":58,"x_max":411,"o":"m 58 758 l 210 904 l 300 904 l 411 758 l 317 758 l 246 836 l 156 758 l 58 758 z "},":":{"ha":206,"x_min":25,"x_max":146,"o":"m 107 390 q 86 399 94 390 q 79 421 78 408 q 92 442 82 433 q 115 451 103 451 q 137 442 128 451 q 143 421 146 433 q 131 399 142 408 q 107 390 119 390 m 54 -7 q 33 2 42 -7 q 26 24 25 11 q 40 45 29 36 q 63 54 50 54 q 84 45 75 54 q 90 24 93 36 q 78 2 89 11 q 54 -7 67 -7 z "},",":{"ha":310,"x_min":-7,"x_max":200,"o":"m -7 -204 q 44 -119 21 -158 q 68 -43 68 -79 q 61 -8 69 -19 q 44 16 53 3 q 35 54 35 29 q 60 112 35 88 q 122 136 86 136 q 178 115 157 136 q 200 61 200 94 q 178 -25 200 24 q 124 -122 156 -74 q 63 -204 92 -169 l -7 -204 z "},"̦":{"ha":0,"x_min":-89,"x_max":79,"o":"m -89 -261 q -48 -204 -62 -229 q -32 -165 -33 -179 q -39 -149 -31 -156 q -55 -131 -47 -142 q -61 -103 -62 -121 q -37 -67 -58 -83 q 13 -50 -17 -50 q 62 -67 44 -50 q 76 -110 79 -83 q 58 -156 75 -128 q 19 -212 42 -185 q -25 -261 -3 -240 l -89 -261 z "},"̒":{"ha":0,"x_min":63,"x_max":231,"o":"m 231 957 q 191 900 206 925 q 175 860 176 875 q 182 844 174 851 q 198 826 190 836 q 203 799 206 817 q 181 762 201 779 q 129 744 160 744 q 81 762 99 744 q 65 806 63 779 q 85 852 68 825 q 124 908 101 879 q 167 957 146 936 l 231 957 z "},"©":{"ha":833,"x_min":31,"x_max":839,"o":"m 381 42 q 191 94 272 42 q 70 235 110 147 q 46 432 31 324 q 97 583 57 513 q 198 708 138 654 q 333 791 258 761 q 489 821 408 821 q 678 769 597 821 q 799 628 758 717 q 824 433 839 540 q 772 281 813 353 q 672 156 732 210 q 536 72 611 101 q 381 42 461 42 m 389 103 q 519 128 457 103 q 633 200 582 154 q 719 306 685 246 q 761 432 753 365 q 741 597 775 522 q 640 715 707 671 q 481 760 572 760 q 351 734 414 760 q 236 663 288 708 q 151 559 185 618 q 108 432 118 500 q 117 306 100 365 q 172 200 133 246 q 265 128 210 154 q 389 103 321 103 m 381 206 q 317 211 343 206 q 275 233 290 217 q 258 278 260 249 q 268 356 256 307 l 318 561 q 377 653 333 628 q 497 678 421 678 q 602 653 571 678 q 617 561 633 628 l 600 494 l 493 494 l 513 575 q 512 611 518 600 q 481 622 506 622 q 446 611 457 622 q 428 575 435 600 l 364 311 q 364 274 357 285 q 394 263 371 263 q 430 274 418 263 q 447 311 442 285 l 471 400 l 578 400 l 568 357 q 525 259 550 292 q 465 216 500 226 q 381 206 429 206 z "},"¤":{"ha":724,"x_min":50,"x_max":674,"o":"m 129 113 l 56 186 l 186 317 q 163 365 171 340 q 154 418 154 390 q 185 519 154 474 l 50 654 l 124 726 l 261 590 q 360 615 307 615 q 458 590 413 615 l 594 728 l 668 654 l 535 519 q 565 418 565 474 q 536 319 565 364 l 674 183 l 600 110 l 460 249 q 410 229 435 236 q 360 222 385 222 q 261 246 306 222 l 129 113 m 360 328 q 424 354 397 328 q 450 417 450 381 q 424 482 450 456 q 360 508 397 508 q 295 483 321 508 q 269 417 269 457 q 295 354 269 381 q 360 328 321 328 z "},"d":{"ha":528,"x_min":11,"x_max":550,"o":"m 171 -10 q 94 -1 126 -10 q 42 31 61 8 q 17 94 22 53 q 21 201 11 136 l 68 536 q 102 632 76 597 q 165 682 128 667 q 242 697 201 697 q 323 680 297 697 q 360 640 349 663 l 392 875 l 550 875 l 426 0 l 319 0 l 313 65 q 288 34 304 51 q 242 3 271 17 q 171 -10 214 -10 m 219 81 q 253 88 240 81 q 274 109 265 96 q 287 139 282 122 q 293 175 292 156 q 321 373 307 274 q 349 569 335 472 q 343 583 349 576 q 326 596 338 590 q 294 601 314 601 q 253 591 268 601 q 233 562 239 581 q 224 519 228 543 l 174 163 q 172 129 172 144 q 175 103 171 114 q 189 86 179 92 q 219 81 199 81 z "},"†":{"ha":531,"x_min":67,"x_max":510,"o":"m 126 -168 l 213 439 l 67 439 l 78 526 l 224 526 l 265 813 l 403 813 l 363 526 l 510 526 l 499 439 l 350 439 l 264 -168 l 126 -168 z "},"‡":{"ha":538,"x_min":28,"x_max":517,"o":"m 126 -168 l 176 185 l 28 185 l 42 283 l 190 283 l 214 454 l 65 454 l 79 553 l 228 553 l 271 856 l 410 856 l 367 553 l 517 553 l 503 454 l 353 454 l 329 283 l 479 283 l 465 185 l 315 185 l 265 -168 l 126 -168 z "},"ď":{"ha":636,"x_min":11,"x_max":731,"o":"m 171 -10 q 94 -1 126 -10 q 42 31 61 8 q 17 94 22 53 q 21 201 11 136 l 68 536 q 102 632 76 597 q 165 682 128 667 q 242 697 201 697 q 323 680 297 697 q 360 640 349 663 l 392 875 l 550 875 l 426 0 l 319 0 l 313 65 q 288 34 304 51 q 242 3 271 17 q 171 -10 214 -10 m 219 81 q 253 88 240 81 q 274 109 265 96 q 287 139 282 122 q 293 175 292 156 q 321 373 307 274 q 349 569 335 472 q 343 583 349 576 q 326 596 338 590 q 294 601 314 601 q 253 591 268 601 q 233 562 239 581 q 224 519 228 543 l 174 163 q 172 129 172 144 q 175 103 171 114 q 189 86 179 92 q 219 81 199 81 m 574 696 l 635 900 l 731 900 l 631 696 l 574 696 z "},"đ":{"ha":522,"x_min":11,"x_max":590,"o":"m 258 747 l 267 808 l 590 808 l 582 747 l 258 747 m 171 -10 q 94 -1 126 -10 q 42 31 61 8 q 17 94 22 53 q 21 201 11 136 l 68 536 q 102 632 76 597 q 165 682 128 667 q 242 697 201 697 q 323 680 297 697 q 360 640 349 663 l 392 875 l 550 875 l 426 0 l 319 0 l 313 65 q 288 34 304 51 q 242 3 271 17 q 171 -10 214 -10 m 219 81 q 253 88 240 81 q 274 109 265 96 q 287 139 282 122 q 293 175 292 156 q 321 373 307 274 q 349 569 335 472 q 343 583 349 576 q 326 596 338 590 q 294 601 314 601 q 253 591 268 601 q 233 562 239 581 q 224 519 228 543 l 174 163 q 172 129 172 144 q 175 103 171 114 q 189 86 179 92 q 219 81 199 81 z "},"д":{"ha":739,"x_min":-46,"x_max":686,"o":"m -46 -158 l -11 93 l 38 93 q 75 109 54 96 q 117 151 96 122 q 149 226 138 179 l 264 688 l 660 688 l 576 93 l 686 93 l 651 -158 l 518 -158 l 536 -31 l 104 -31 l 86 -158 l -46 -158 m 244 93 l 408 93 l 476 574 l 393 574 l 306 235 q 281 151 296 194 q 244 93 267 108 z "},"°":{"ha":457,"x_min":40,"x_max":414,"o":"m 203 474 q 76 524 111 474 q 50 646 40 575 q 108 769 60 718 q 256 821 156 821 q 356 797 322 821 q 402 735 390 774 q 407 649 414 696 q 345 523 396 572 q 203 474 294 474 m 215 544 q 288 573 258 544 q 324 647 317 601 q 309 719 329 688 q 242 751 289 751 q 170 721 200 751 q 135 646 140 690 q 151 573 128 601 q 215 544 174 544 z "},"¨":{"ha":299,"x_min":69,"x_max":367,"o":"m 135 767 q 88 785 107 767 q 69 831 69 804 q 88 875 69 857 q 135 893 107 893 q 182 875 164 893 q 200 831 200 857 q 182 785 200 804 q 135 767 164 767 m 303 767 q 255 785 274 767 q 236 831 236 804 q 255 875 236 857 q 303 893 274 893 q 349 875 331 893 q 367 831 367 857 q 349 785 367 804 q 303 767 331 767 z "},"̈":{"ha":0,"x_min":69,"x_max":367,"o":"m 135 767 q 88 785 107 767 q 69 831 69 804 q 88 875 69 857 q 135 893 107 893 q 182 875 164 893 q 200 831 200 857 q 182 785 200 804 q 135 767 164 767 m 303 767 q 255 785 274 767 q 236 831 236 804 q 255 875 236 857 q 303 893 274 893 q 349 875 331 893 q 367 831 367 857 q 349 785 367 804 q 303 767 331 767 z "},"÷":{"ha":538,"x_min":53,"x_max":486,"o":"m 53 346 l 68 453 l 486 453 l 471 346 l 53 346 m 228 99 q 176 119 194 99 q 161 171 157 139 q 190 223 165 201 q 247 244 215 244 q 299 223 279 244 q 314 171 318 201 q 285 119 310 139 q 228 99 260 99 m 289 547 q 238 569 257 547 q 222 621 218 590 q 253 674 228 653 q 308 694 278 694 q 361 674 342 694 q 376 621 381 653 q 347 569 372 590 q 289 547 321 547 z "},"∕":{"ha":456,"x_min":-136,"x_max":608,"o":"m -136 -197 l 496 992 l 608 992 l -24 -197 l -136 -197 z "},"ђ":{"ha":601,"x_min":61,"x_max":571,"o":"m 308 -128 q 270 -122 288 -128 q 242 -108 253 -115 q 251 -72 247 -90 q 258 -36 254 -54 q 270 -42 264 -40 q 285 -44 276 -44 q 331 -22 315 -44 q 351 47 346 1 l 403 408 q 402 447 406 432 q 387 471 399 463 q 353 479 375 479 q 317 472 331 479 q 297 451 304 464 q 285 425 289 438 q 278 401 282 413 l 222 0 l 61 0 l 157 686 l 63 686 l 74 771 l 169 771 l 185 875 l 346 875 l 331 771 l 454 771 l 443 686 l 318 686 l 293 511 q 342 557 310 538 q 425 576 374 576 q 505 563 471 576 q 555 513 539 549 q 561 413 571 478 l 517 88 q 485 -34 506 10 q 437 -98 464 -78 q 377 -123 410 -118 q 308 -128 344 -128 z "},"$":{"ha":492,"x_min":6,"x_max":503,"o":"m 146 -83 l 167 68 q 34 126 63 75 q 19 275 6 176 l 26 325 l 176 325 l 167 242 q 163 196 163 217 q 173 164 163 175 q 211 153 183 153 q 251 163 239 153 q 270 190 264 174 q 278 222 276 207 l 286 275 q 281 330 292 310 q 246 365 269 350 q 188 394 222 379 q 126 428 154 408 q 83 481 97 449 q 75 565 68 514 l 81 606 q 134 727 92 682 q 267 781 176 772 l 285 910 l 371 910 l 353 783 q 474 727 446 775 q 490 586 503 679 l 482 535 l 338 535 l 349 614 q 345 678 356 660 q 304 697 335 697 q 256 679 269 697 q 238 635 242 661 l 231 582 q 241 526 225 546 q 285 493 257 506 q 343 467 313 481 q 403 434 375 453 q 444 384 431 415 q 450 300 457 353 l 444 258 q 417 167 436 207 q 358 101 397 126 q 253 69 319 76 l 232 -83 l 146 -83 z "},"˙":{"ha":132,"x_min":69,"x_max":236,"o":"m 151 757 q 94 780 118 757 q 69 835 71 803 q 94 892 69 868 q 153 915 119 915 q 211 892 188 915 q 235 835 235 868 q 211 780 236 803 q 151 757 186 757 z "},"̇":{"ha":0,"x_min":69,"x_max":236,"o":"m 151 757 q 94 780 118 757 q 69 835 71 803 q 94 892 69 868 q 153 915 119 915 q 211 892 188 915 q 235 835 235 868 q 211 780 236 803 q 151 757 186 757 z "},"̣":{"ha":0,"x_min":-64,"x_max":67,"o":"m 3 -179 q -45 -160 -26 -179 q -64 -115 -64 -142 q -45 -71 -64 -89 q 3 -53 -26 -53 q 49 -71 31 -53 q 67 -115 67 -89 q 49 -160 67 -142 q 3 -179 31 -179 z "},"↓":{"ha":738,"x_min":50,"x_max":688,"o":"m 371 -1 l 50 383 l 126 461 l 304 271 l 308 1010 l 433 1010 l 432 274 l 611 460 l 688 383 l 371 -1 z "},"ѕ":{"ha":508,"x_min":3,"x_max":508,"o":"m 201 -15 q 90 -1 132 -15 q 29 41 49 14 q 6 107 10 68 q 10 193 3 146 l 17 242 l 176 242 l 165 160 q 161 114 161 135 q 172 82 161 93 q 211 71 182 71 q 251 81 238 71 q 271 108 265 92 q 279 140 276 125 l 286 193 q 281 249 292 228 q 245 283 269 269 q 185 311 221 296 q 119 347 150 326 q 74 399 89 367 q 67 482 60 432 l 72 522 q 106 622 81 582 q 183 681 132 661 q 315 701 233 701 q 440 680 397 701 q 496 615 483 658 q 499 504 508 572 l 492 453 l 339 453 l 349 532 q 344 597 354 578 q 304 615 335 615 q 256 597 271 615 q 238 553 242 579 l 231 499 q 242 443 226 464 q 286 410 257 422 q 346 385 315 399 q 409 352 381 371 q 451 302 438 333 q 458 218 465 271 l 453 176 q 421 75 446 118 q 344 8 396 32 q 201 -15 292 -15 z "},"џ":{"ha":546,"x_min":3,"x_max":542,"o":"m 144 -143 l 165 0 l 3 0 l 100 688 l 258 688 l 178 114 l 301 114 l 383 688 l 542 688 l 444 0 l 281 0 l 260 -143 l 144 -143 z "},"e":{"ha":504,"x_min":8,"x_max":518,"o":"m 208 -17 q 91 1 138 -17 q 26 67 44 18 q 21 208 8 115 l 67 524 q 139 660 81 624 q 292 697 197 697 q 467 658 417 697 q 501 513 518 618 q 454 413 490 451 q 369 352 418 374 q 272 322 319 331 q 190 313 224 314 l 171 164 q 174 94 164 114 q 219 74 183 74 q 268 91 253 74 q 290 160 283 108 l 304 256 l 461 256 l 451 183 q 413 58 440 101 q 337 -1 386 15 q 208 -17 288 -17 m 204 393 q 240 399 219 394 q 282 415 261 403 q 319 451 303 428 q 343 513 336 474 q 345 584 351 553 q 299 615 339 615 q 244 594 263 615 q 218 508 226 574 l 204 393 z "},"é":{"ha":504,"x_min":8,"x_max":518,"o":"m 208 -17 q 91 1 138 -17 q 26 67 44 18 q 21 208 8 115 l 67 524 q 139 660 81 624 q 292 697 197 697 q 467 658 417 697 q 501 513 518 618 q 454 413 490 451 q 369 352 418 374 q 272 322 319 331 q 190 313 224 314 l 171 164 q 174 94 164 114 q 219 74 183 74 q 268 91 253 74 q 290 160 283 108 l 304 256 l 461 256 l 451 183 q 413 58 440 101 q 337 -1 386 15 q 208 -17 288 -17 m 204 393 q 240 399 219 394 q 282 415 261 403 q 319 451 303 428 q 343 513 336 474 q 345 584 351 553 q 299 615 339 615 q 244 594 263 615 q 218 508 226 574 l 204 393 m 235 761 l 324 900 l 476 900 l 333 761 l 235 761 z "},"ě":{"ha":504,"x_min":8,"x_max":518,"o":"m 208 -17 q 91 1 138 -17 q 26 67 44 18 q 21 208 8 115 l 67 524 q 139 660 81 624 q 292 697 197 697 q 467 658 417 697 q 501 513 518 618 q 454 413 490 451 q 369 352 418 374 q 272 322 319 331 q 190 313 224 314 l 171 164 q 174 94 164 114 q 219 74 183 74 q 268 91 253 74 q 290 160 283 108 l 304 256 l 461 256 l 451 183 q 413 58 440 101 q 337 -1 386 15 q 208 -17 288 -17 m 204 393 q 240 399 219 394 q 282 415 261 403 q 319 451 303 428 q 343 513 336 474 q 345 584 351 553 q 299 615 339 615 q 244 594 263 615 q 218 508 226 574 l 204 393 m 268 758 l 157 904 l 253 904 l 322 829 l 415 904 l 510 904 l 357 758 l 268 758 z "},"ê":{"ha":504,"x_min":8,"x_max":518,"o":"m 208 -17 q 91 1 138 -17 q 26 67 44 18 q 21 208 8 115 l 67 524 q 139 660 81 624 q 292 697 197 697 q 467 658 417 697 q 501 513 518 618 q 454 413 490 451 q 369 352 418 374 q 272 322 319 331 q 190 313 224 314 l 171 164 q 174 94 164 114 q 219 74 183 74 q 268 91 253 74 q 290 160 283 108 l 304 256 l 461 256 l 451 183 q 413 58 440 101 q 337 -1 386 15 q 208 -17 288 -17 m 204 393 q 240 399 219 394 q 282 415 261 403 q 319 451 303 428 q 343 513 336 474 q 345 584 351 553 q 299 615 339 615 q 244 594 263 615 q 218 508 226 574 l 204 393 m 135 758 l 286 904 l 376 904 l 488 758 l 393 758 l 322 836 l 232 758 l 135 758 z "},"ế":{"ha":504,"x_min":8,"x_max":724,"o":"m 208 -17 q 91 1 138 -17 q 26 67 44 18 q 21 208 8 115 l 67 524 q 139 660 81 624 q 292 697 197 697 q 467 658 417 697 q 501 513 518 618 q 454 413 490 451 q 369 352 418 374 q 272 322 319 331 q 190 313 224 314 l 171 164 q 174 94 164 114 q 219 74 183 74 q 268 91 253 74 q 290 160 283 108 l 304 256 l 461 256 l 451 183 q 413 58 440 101 q 337 -1 386 15 q 208 -17 288 -17 m 204 393 q 240 399 219 394 q 282 415 261 403 q 319 451 303 428 q 343 513 336 474 q 345 584 351 553 q 299 615 339 615 q 244 594 263 615 q 218 508 226 574 l 204 393 m 135 758 l 286 904 l 376 904 l 488 758 l 393 758 l 322 836 l 232 758 l 135 758 m 482 844 l 571 983 l 724 983 l 581 844 l 482 844 z "},"ệ":{"ha":504,"x_min":8,"x_max":518,"o":"m 208 -17 q 91 1 138 -17 q 26 67 44 18 q 21 208 8 115 l 67 524 q 139 660 81 624 q 292 697 197 697 q 467 658 417 697 q 501 513 518 618 q 454 413 490 451 q 369 352 418 374 q 272 322 319 331 q 190 313 224 314 l 171 164 q 174 94 164 114 q 219 74 183 74 q 268 91 253 74 q 290 160 283 108 l 304 256 l 461 256 l 451 183 q 413 58 440 101 q 337 -1 386 15 q 208 -17 288 -17 m 204 393 q 240 399 219 394 q 282 415 261 403 q 319 451 303 428 q 343 513 336 474 q 345 584 351 553 q 299 615 339 615 q 244 594 263 615 q 218 508 226 574 l 204 393 m 188 -179 q 140 -160 158 -179 q 121 -115 121 -142 q 140 -71 121 -89 q 188 -53 158 -53 q 233 -71 215 -53 q 251 -115 251 -89 q 233 -160 251 -142 q 188 -179 215 -179 m 135 758 l 286 904 l 376 904 l 488 758 l 393 758 l 322 836 l 232 758 l 135 758 z "},"ề":{"ha":504,"x_min":8,"x_max":624,"o":"m 208 -17 q 91 1 138 -17 q 26 67 44 18 q 21 208 8 115 l 67 524 q 139 660 81 624 q 292 697 197 697 q 467 658 417 697 q 501 513 518 618 q 454 413 490 451 q 369 352 418 374 q 272 322 319 331 q 190 313 224 314 l 171 164 q 174 94 164 114 q 219 74 183 74 q 268 91 253 74 q 290 160 283 108 l 304 256 l 461 256 l 451 183 q 413 58 440 101 q 337 -1 386 15 q 208 -17 288 -17 m 204 393 q 240 399 219 394 q 282 415 261 403 q 319 451 303 428 q 343 513 336 474 q 345 584 351 553 q 299 615 339 615 q 244 594 263 615 q 218 508 226 574 l 204 393 m 135 758 l 286 904 l 376 904 l 488 758 l 393 758 l 322 836 l 232 758 l 135 758 m 525 844 l 411 983 l 564 983 l 625 844 l 525 844 z "},"ể":{"ha":504,"x_min":8,"x_max":674,"o":"m 208 -17 q 91 1 138 -17 q 26 67 44 18 q 21 208 8 115 l 67 524 q 139 660 81 624 q 292 697 197 697 q 467 658 417 697 q 501 513 518 618 q 454 413 490 451 q 369 352 418 374 q 272 322 319 331 q 190 313 224 314 l 171 164 q 174 94 164 114 q 219 74 183 74 q 268 91 253 74 q 290 160 283 108 l 304 256 l 461 256 l 451 183 q 413 58 440 101 q 337 -1 386 15 q 208 -17 288 -17 m 204 393 q 240 399 219 394 q 282 415 261 403 q 319 451 303 428 q 343 513 336 474 q 345 584 351 553 q 299 615 339 615 q 244 594 263 615 q 218 508 226 574 l 204 393 m 135 758 l 286 904 l 376 904 l 488 758 l 393 758 l 322 836 l 232 758 l 135 758 m 508 831 l 513 861 q 530 890 515 882 q 558 906 544 899 q 574 931 572 913 l 576 943 q 574 965 578 956 q 556 974 571 974 q 528 944 535 974 l 457 956 q 494 1013 467 993 q 571 1032 522 1032 q 649 1008 625 1032 q 665 939 674 983 l 664 933 q 651 893 661 904 q 628 878 640 882 q 606 871 615 875 q 596 853 597 867 l 593 831 l 508 831 z "},"ễ":{"ha":504,"x_min":8,"x_max":518,"o":"m 208 -17 q 91 1 138 -17 q 26 67 44 18 q 21 208 8 115 l 67 524 q 139 660 81 624 q 292 697 197 697 q 467 658 417 697 q 501 513 518 618 q 454 413 490 451 q 369 352 418 374 q 272 322 319 331 q 190 313 224 314 l 171 164 q 174 94 164 114 q 219 74 183 74 q 268 91 253 74 q 290 160 283 108 l 304 256 l 461 256 l 451 183 q 413 58 440 101 q 337 -1 386 15 q 208 -17 288 -17 m 204 393 q 240 399 219 394 q 282 415 261 403 q 319 451 303 428 q 343 513 336 474 q 345 584 351 553 q 299 615 339 615 q 244 594 263 615 q 218 508 226 574 l 204 393 m 135 758 l 286 904 l 376 904 l 488 758 l 393 758 l 322 836 l 232 758 l 135 758 m 397 936 q 360 944 376 936 q 326 963 343 951 q 298 979 313 972 q 267 986 283 986 q 238 973 250 986 q 219 938 225 960 l 172 938 q 210 1026 181 992 q 279 1060 239 1060 q 319 1052 301 1060 q 353 1033 336 1044 q 381 1019 368 1025 q 410 1013 394 1013 q 442 1024 431 1013 q 458 1056 453 1036 l 511 1056 q 467 967 501 999 q 397 936 432 936 z "},"ë":{"ha":504,"x_min":8,"x_max":518,"o":"m 208 -17 q 91 1 138 -17 q 26 67 44 18 q 21 208 8 115 l 67 524 q 139 660 81 624 q 292 697 197 697 q 467 658 417 697 q 501 513 518 618 q 454 413 490 451 q 369 352 418 374 q 272 322 319 331 q 190 313 224 314 l 171 164 q 174 94 164 114 q 219 74 183 74 q 268 91 253 74 q 290 160 283 108 l 304 256 l 461 256 l 451 183 q 413 58 440 101 q 337 -1 386 15 q 208 -17 288 -17 m 204 393 q 240 399 219 394 q 282 415 261 403 q 319 451 303 428 q 343 513 336 474 q 345 584 351 553 q 299 615 339 615 q 244 594 263 615 q 218 508 226 574 l 204 393 m 238 767 q 191 785 210 767 q 172 831 172 804 q 191 875 172 857 q 238 893 210 893 q 285 875 267 893 q 303 831 303 857 q 285 785 303 804 q 238 767 267 767 m 406 767 q 358 785 376 767 q 339 831 339 804 q 358 875 339 857 q 406 893 376 893 q 451 875 433 893 q 469 831 469 857 q 451 785 469 804 q 406 767 433 767 z "},"ė":{"ha":504,"x_min":8,"x_max":518,"o":"m 208 -17 q 91 1 138 -17 q 26 67 44 18 q 21 208 8 115 l 67 524 q 139 660 81 624 q 292 697 197 697 q 467 658 417 697 q 501 513 518 618 q 454 413 490 451 q 369 352 418 374 q 272 322 319 331 q 190 313 224 314 l 171 164 q 174 94 164 114 q 219 74 183 74 q 268 91 253 74 q 290 160 283 108 l 304 256 l 461 256 l 451 183 q 413 58 440 101 q 337 -1 386 15 q 208 -17 288 -17 m 204 393 q 240 399 219 394 q 282 415 261 403 q 319 451 303 428 q 343 513 336 474 q 345 584 351 553 q 299 615 339 615 q 244 594 263 615 q 218 508 226 574 l 204 393 m 321 757 q 264 780 288 757 q 239 835 240 803 q 264 892 239 868 q 322 915 289 915 q 381 892 357 915 q 404 835 404 868 q 381 780 406 803 q 321 757 356 757 z "},"ẹ":{"ha":504,"x_min":8,"x_max":518,"o":"m 208 -17 q 91 1 138 -17 q 26 67 44 18 q 21 208 8 115 l 67 524 q 139 660 81 624 q 292 697 197 697 q 467 658 417 697 q 501 513 518 618 q 454 413 490 451 q 369 352 418 374 q 272 322 319 331 q 190 313 224 314 l 171 164 q 174 94 164 114 q 219 74 183 74 q 268 91 253 74 q 290 160 283 108 l 304 256 l 461 256 l 451 183 q 413 58 440 101 q 337 -1 386 15 q 208 -17 288 -17 m 204 393 q 240 399 219 394 q 282 415 261 403 q 319 451 303 428 q 343 513 336 474 q 345 584 351 553 q 299 615 339 615 q 244 594 263 615 q 218 508 226 574 l 204 393 m 188 -179 q 140 -160 158 -179 q 121 -115 121 -142 q 140 -71 121 -89 q 188 -53 158 -53 q 233 -71 215 -53 q 251 -115 251 -89 q 233 -160 251 -142 q 188 -179 215 -179 z "},"ф":{"ha":819,"x_min":6,"x_max":803,"o":"m 261 -160 l 286 14 q 237 -3 265 4 q 171 -10 208 -10 q 35 42 65 -10 q 19 189 6 94 l 57 461 q 86 561 65 519 q 149 625 107 603 q 265 647 192 647 q 333 639 306 647 q 371 617 361 631 l 400 821 l 557 821 l 528 618 q 571 640 540 632 q 638 647 601 647 q 748 625 711 647 q 794 561 785 603 q 794 461 803 519 l 757 189 q 699 42 743 94 q 550 -10 656 -10 q 488 -3 514 -10 q 444 15 463 4 l 418 -160 l 261 -160 m 222 74 q 265 84 247 74 q 292 112 282 94 q 306 147 303 129 l 350 465 q 352 519 354 497 q 336 552 350 540 q 292 564 322 564 q 249 553 264 564 q 228 519 235 542 q 217 460 222 496 l 175 158 q 174 113 171 132 q 188 84 176 94 q 222 74 199 74 m 526 74 q 564 84 550 74 q 585 113 578 94 q 597 158 593 132 l 639 460 q 643 517 643 494 q 633 551 643 539 q 594 564 622 564 q 549 553 567 564 q 521 522 531 542 q 507 471 511 501 l 464 157 q 466 115 461 135 q 485 85 471 96 q 526 74 500 74 z "},"è":{"ha":504,"x_min":8,"x_max":518,"o":"m 208 -17 q 91 1 138 -17 q 26 67 44 18 q 21 208 8 115 l 67 524 q 139 660 81 624 q 292 697 197 697 q 467 658 417 697 q 501 513 518 618 q 454 413 490 451 q 369 352 418 374 q 272 322 319 331 q 190 313 224 314 l 171 164 q 174 94 164 114 q 219 74 183 74 q 268 91 253 74 q 290 160 283 108 l 304 256 l 461 256 l 451 183 q 413 58 440 101 q 337 -1 386 15 q 208 -17 288 -17 m 204 393 q 240 399 219 394 q 282 415 261 403 q 319 451 303 428 q 343 513 336 474 q 345 584 351 553 q 299 615 339 615 q 244 594 263 615 q 218 508 226 574 l 204 393 m 276 761 l 163 900 l 315 900 l 376 761 l 276 761 z "},"ẻ":{"ha":504,"x_min":8,"x_max":518,"o":"m 208 -17 q 91 1 138 -17 q 26 67 44 18 q 21 208 8 115 l 67 524 q 139 660 81 624 q 292 697 197 697 q 467 658 417 697 q 501 513 518 618 q 454 413 490 451 q 369 352 418 374 q 272 322 319 331 q 190 313 224 314 l 171 164 q 174 94 164 114 q 219 74 183 74 q 268 91 253 74 q 290 160 283 108 l 304 256 l 461 256 l 451 183 q 413 58 440 101 q 337 -1 386 15 q 208 -17 288 -17 m 204 393 q 240 399 219 394 q 282 415 261 403 q 319 451 303 428 q 343 513 336 474 q 345 584 351 553 q 299 615 339 615 q 244 594 263 615 q 218 508 226 574 l 204 393 m 261 747 l 265 778 q 283 807 268 799 q 311 822 297 815 q 326 847 325 829 l 329 860 q 327 881 331 872 q 308 890 324 890 q 281 861 288 890 l 210 872 q 247 929 219 910 q 324 949 275 949 q 402 924 378 949 q 418 856 426 900 l 417 850 q 403 810 414 821 q 381 795 393 799 q 359 788 368 792 q 349 769 350 783 l 346 747 l 261 747 z "},"л":{"ha":611,"x_min":-31,"x_max":608,"o":"m -31 0 l -18 83 q 17 97 -1 83 q 49 135 35 111 q 69 189 64 158 l 183 688 l 608 688 l 511 0 l 349 0 l 429 575 l 328 575 l 225 147 q 213 99 221 125 q 190 51 206 74 q 147 15 175 29 q 71 0 119 0 l -31 0 z "},"…":{"ha":801,"x_min":25,"x_max":697,"o":"m 100 -12 q 46 10 67 -12 q 31 67 25 33 q 63 123 35 100 q 124 146 90 146 q 179 123 157 146 q 196 67 201 100 q 164 10 192 33 q 100 -12 136 -12 m 349 -12 q 294 10 315 -12 q 278 65 272 33 q 310 122 282 99 q 371 146 338 146 q 427 122 406 146 q 444 65 449 99 q 411 10 439 33 q 349 -12 383 -12 m 597 -12 q 542 10 564 -12 q 526 65 521 33 q 558 122 531 99 q 619 146 586 146 q 676 122 654 146 q 693 65 697 99 q 660 10 688 33 q 597 -12 632 -12 z "},"м":{"ha":697,"x_min":-3,"x_max":701,"o":"m -3 0 l 94 688 l 290 688 l 329 199 l 507 688 l 701 688 l 604 0 l 475 0 l 543 482 l 356 0 l 247 0 l 194 482 l 126 0 l -3 0 z "},"ē":{"ha":504,"x_min":8,"x_max":518,"o":"m 208 -17 q 91 1 138 -17 q 26 67 44 18 q 21 208 8 115 l 67 524 q 139 660 81 624 q 292 697 197 697 q 467 658 417 697 q 501 513 518 618 q 454 413 490 451 q 369 352 418 374 q 272 322 319 331 q 190 313 224 314 l 171 164 q 174 94 164 114 q 219 74 183 74 q 268 91 253 74 q 290 160 283 108 l 304 256 l 461 256 l 451 183 q 413 58 440 101 q 337 -1 386 15 q 208 -17 288 -17 m 204 393 q 240 399 219 394 q 282 415 261 403 q 319 451 303 428 q 343 513 336 474 q 345 584 351 553 q 299 615 339 615 q 244 594 263 615 q 218 508 226 574 l 204 393 m 164 778 l 174 858 l 460 858 l 450 778 l 164 778 z "},"—":{"ha":907,"x_min":31,"x_max":876,"o":"m 31 333 l 44 440 l 876 440 l 863 333 l 31 333 z "},"∅":{"ha":572,"x_min":-15,"x_max":629,"o":"m -15 76 l 564 786 l 596 786 l 15 76 l -15 76 m 193 -18 q 82 10 126 -17 q 25 98 38 38 q 40 258 13 158 l 135 592 q 250 772 168 714 q 435 831 332 831 q 582 772 535 831 q 596 592 629 714 l 501 260 q 426 96 472 157 q 321 8 381 35 q 193 -18 261 -18 m 219 78 q 277 102 250 78 q 317 175 304 126 l 446 636 q 448 709 461 685 q 406 733 435 733 q 349 709 375 733 q 307 636 322 685 l 178 175 q 178 102 165 126 q 219 78 192 78 z "},"н":{"ha":531,"x_min":-3,"x_max":533,"o":"m -3 0 l 94 688 l 253 688 l 214 417 l 339 417 l 378 688 l 533 688 l 436 0 l 281 0 l 322 297 l 197 297 l 156 0 l -3 0 z "},"–":{"ha":593,"x_min":31,"x_max":564,"o":"m 31 333 l 44 440 l 564 440 l 549 333 l 31 333 z "},"ŋ":{"ha":531,"x_min":4,"x_max":518,"o":"m 200 -158 q 167 -156 183 -158 q 136 -151 150 -154 l 146 -71 q 157 -71 147 -71 q 177 -72 167 -71 q 190 -72 188 -72 q 252 -56 229 -72 q 281 -4 275 -39 l 351 506 q 355 537 354 522 q 351 563 356 551 q 336 580 347 574 q 304 586 325 586 q 274 581 288 586 q 253 567 261 575 q 240 550 244 558 l 163 0 l 4 0 l 100 688 l 235 688 l 236 604 q 297 673 257 649 q 381 697 336 697 q 460 685 431 697 q 501 649 489 672 q 516 591 514 625 q 513 515 518 557 l 447 53 q 398 -78 435 -32 q 310 -142 361 -125 q 200 -158 258 -160 z "},"ę":{"ha":504,"x_min":8,"x_max":518,"o":"m 208 -17 q 91 1 138 -17 q 26 67 44 18 q 21 208 8 115 l 67 524 q 139 660 81 624 q 292 697 197 697 q 467 658 417 697 q 501 513 518 618 q 454 413 490 451 q 369 352 418 374 q 272 322 319 331 q 190 313 224 314 l 171 164 q 174 94 164 114 q 219 74 183 74 q 268 91 253 74 q 290 160 283 108 l 304 256 l 461 256 l 451 183 q 413 58 440 101 q 337 -1 386 15 q 208 -17 288 -17 m 204 393 q 240 399 219 394 q 282 415 261 403 q 319 451 303 428 q 343 513 336 474 q 345 584 351 553 q 299 615 339 615 q 244 594 263 615 q 218 508 226 574 l 204 393 m 201 -200 q 124 -173 151 -200 q 100 -111 96 -146 q 142 -39 107 -72 q 226 1 178 -6 l 290 0 q 231 -39 251 -12 q 206 -89 210 -65 q 218 -129 203 -115 q 251 -143 233 -143 q 269 -140 261 -143 q 281 -137 278 -137 l 294 -179 q 264 -192 285 -183 q 201 -200 243 -200 z "},"=":{"ha":614,"x_min":42,"x_max":572,"o":"m 82 472 l 97 579 l 572 579 l 558 472 l 82 472 m 42 189 l 57 297 l 532 297 l 518 189 l 42 189 z "},"р":{"ha":529,"x_min":-18,"x_max":524,"o":"m -18 -161 l 100 688 l 257 688 l 250 633 q 294 678 267 657 q 379 699 322 699 q 460 683 428 699 q 508 631 493 667 q 514 535 524 596 l 467 201 q 433 78 457 125 q 372 12 410 32 q 281 -8 335 -8 q 206 9 232 -8 q 169 49 181 26 l 140 -161 l -18 -161 m 233 82 q 274 92 260 82 q 294 122 288 103 q 304 163 301 140 l 354 518 q 356 551 356 536 q 353 576 357 565 q 338 594 349 588 q 306 600 326 600 q 274 593 286 600 q 253 576 261 586 q 242 554 246 567 q 238 532 239 542 l 185 158 q 183 117 182 135 q 197 91 185 100 q 233 82 208 82 z "},"э":{"ha":531,"x_min":17,"x_max":517,"o":"m 217 -14 q 118 -4 158 -14 q 54 31 78 6 q 24 101 31 56 q 28 215 17 146 l 31 242 l 189 242 l 176 151 q 176 108 174 126 q 190 79 178 89 q 228 69 201 69 q 270 80 256 69 q 291 109 285 90 q 300 151 297 128 l 322 308 l 122 308 l 136 410 l 336 410 l 354 532 q 357 565 357 550 q 353 591 357 579 q 337 609 349 603 q 306 615 325 615 q 263 605 278 615 q 241 576 247 594 q 231 532 235 558 l 222 475 l 64 475 l 69 515 q 107 619 79 579 q 186 679 135 660 q 317 699 238 699 q 416 688 376 699 q 478 653 456 676 q 509 597 501 631 q 510 517 517 563 l 468 214 q 426 75 456 125 q 345 6 396 25 q 217 -14 294 -14 z "},"с":{"ha":508,"x_min":11,"x_max":515,"o":"m 208 -15 q 116 -7 156 -15 q 51 24 76 1 q 19 92 26 47 q 22 211 11 138 l 67 524 q 140 662 81 624 q 308 700 199 700 q 466 662 417 700 q 500 524 515 624 l 486 422 l 328 422 l 344 542 q 340 599 350 582 q 296 615 329 615 q 249 599 264 615 q 228 542 233 582 l 171 146 q 176 86 165 103 q 219 69 186 69 q 267 86 253 69 q 288 146 282 103 l 307 278 l 465 278 l 457 211 q 411 65 443 114 q 328 1 379 17 q 208 -15 278 -15 z "},"ð":{"ha":518,"x_min":11,"x_max":531,"o":"m 206 -11 q 122 -4 160 -11 q 57 24 83 3 q 21 89 31 44 q 22 210 11 133 l 61 496 q 103 606 72 568 q 181 658 133 644 q 286 672 228 672 q 326 668 306 672 q 358 653 347 664 q 360 737 364 700 q 336 795 356 774 q 271 817 317 817 q 209 813 238 817 q 146 801 181 808 l 161 903 q 222 914 186 908 q 313 919 258 919 q 465 881 418 919 q 516 755 511 843 q 500 521 521 667 l 458 231 q 429 115 449 161 q 379 41 410 68 q 306 1 349 14 q 206 -11 263 -11 m 217 72 q 256 85 242 72 q 279 119 271 97 q 290 164 288 140 l 343 532 q 340 558 344 544 q 324 580 336 571 q 289 589 313 589 q 253 580 267 589 q 233 554 239 571 q 224 513 228 538 l 171 143 q 172 106 168 119 q 183 85 175 92 q 199 75 190 78 q 217 72 208 72 m 240 703 l 210 747 l 497 960 l 531 915 l 240 703 z "},"ẽ":{"ha":504,"x_min":8,"x_max":518,"o":"m 208 -17 q 91 1 138 -17 q 26 67 44 18 q 21 208 8 115 l 67 524 q 139 660 81 624 q 292 697 197 697 q 467 658 417 697 q 501 513 518 618 q 454 413 490 451 q 369 352 418 374 q 272 322 319 331 q 190 313 224 314 l 171 164 q 174 94 164 114 q 219 74 183 74 q 268 91 253 74 q 290 160 283 108 l 304 256 l 461 256 l 451 183 q 413 58 440 101 q 337 -1 386 15 q 208 -17 288 -17 m 204 393 q 240 399 219 394 q 282 415 261 403 q 319 451 303 428 q 343 513 336 474 q 345 584 351 553 q 299 615 339 615 q 244 594 263 615 q 218 508 226 574 l 204 393 m 375 765 q 338 773 354 765 q 304 792 321 781 q 276 808 290 801 q 244 815 261 815 q 215 802 228 815 q 197 767 203 789 l 150 767 q 188 855 158 821 q 257 889 217 889 q 297 881 279 889 q 331 863 314 874 q 359 848 346 854 q 388 842 372 842 q 419 853 408 842 q 436 885 431 865 l 489 885 q 444 797 479 828 q 375 765 410 765 z "},"€":{"ha":651,"x_min":29,"x_max":646,"o":"m 314 -17 q 198 -1 247 -17 q 127 66 149 15 q 119 217 106 117 l 135 319 l 29 319 l 64 378 l 142 378 l 150 438 l 44 438 l 81 496 l 160 496 l 181 646 q 225 758 190 718 q 313 815 260 799 q 433 831 367 831 q 551 815 501 831 q 623 758 600 799 q 635 646 646 718 l 629 599 l 467 599 l 475 654 q 474 705 479 688 q 454 728 468 722 q 419 733 440 733 q 385 728 401 733 q 358 705 368 722 q 342 654 347 688 l 319 496 l 518 496 l 481 438 l 311 438 l 303 378 l 447 378 l 413 319 l 294 319 l 272 157 q 274 108 268 125 q 294 84 279 90 q 328 78 308 78 q 364 84 349 78 q 390 108 379 90 q 404 157 400 125 l 418 249 l 581 249 l 575 218 q 525 66 561 117 q 435 -1 489 15 q 314 -17 382 -17 z "},"!":{"ha":304,"x_min":11,"x_max":299,"o":"m 76 264 l 83 515 l 126 875 l 299 875 l 240 518 l 176 264 l 76 264 m 93 -10 q 33 14 56 -10 q 15 72 11 38 q 50 130 21 106 q 117 154 79 154 q 177 130 154 154 q 194 72 200 106 q 160 14 190 38 q 93 -10 131 -10 z "},"¡":{"ha":304,"x_min":46,"x_max":263,"o":"m 108 415 l 208 415 l 226 161 l 218 -196 l 46 -196 l 69 164 l 108 415 m 175 689 q 237 665 211 689 q 263 607 263 642 q 236 549 263 574 q 172 525 210 525 q 110 549 135 525 q 85 607 85 574 q 111 665 85 642 q 175 689 138 689 z "},"f":{"ha":360,"x_min":17,"x_max":428,"o":"m 17 0 l 96 571 l 53 571 l 65 661 l 110 661 l 119 726 q 154 824 128 792 q 217 867 181 857 q 290 878 254 878 q 347 876 318 878 q 398 873 375 875 q 428 871 421 871 l 418 794 q 392 797 418 794 q 336 800 367 800 q 294 776 307 800 q 276 726 281 751 l 268 661 l 399 661 l 385 571 l 254 571 l 175 0 l 17 0 z "},"ﬁ":{"ha":614,"x_min":17,"x_max":639,"o":"m 17 0 l 96 571 l 53 571 l 65 661 l 110 661 l 119 726 q 154 824 128 792 q 217 867 181 857 q 290 878 254 878 q 347 876 318 878 q 398 873 375 875 q 428 871 421 871 l 418 794 q 392 797 418 794 q 336 800 367 800 q 294 776 307 800 q 276 726 281 751 l 268 661 l 399 661 l 385 571 l 254 571 l 175 0 l 17 0 m 356 0 l 453 688 l 611 688 l 514 0 l 356 0 m 554 757 q 497 780 521 757 q 472 835 474 803 q 497 892 472 868 q 556 915 522 915 q 614 892 590 915 q 638 835 638 868 q 614 780 639 803 q 554 757 589 757 z "},"ﬂ":{"ha":622,"x_min":17,"x_max":644,"o":"m 17 0 l 96 571 l 53 571 l 65 661 l 110 661 l 119 726 q 154 824 128 792 q 217 867 181 857 q 290 878 254 878 q 347 876 318 878 q 398 873 375 875 q 428 871 421 871 l 418 794 q 392 797 418 794 q 336 800 367 800 q 294 776 307 800 q 276 726 281 751 l 268 661 l 399 661 l 385 571 l 254 571 l 175 0 l 17 0 m 364 0 l 488 878 l 644 878 l 522 0 l 364 0 z "},"ƒ":{"ha":500,"x_min":-193,"x_max":558,"o":"m -76 -200 q -119 -199 -94 -200 q -166 -196 -144 -197 q -193 -193 -187 -194 l -171 -100 l -97 -108 q -37 -99 -60 -110 q 1 -59 -14 -89 q 32 28 17 -29 l 163 535 l 81 535 l 103 621 l 185 621 l 213 719 q 285 838 239 803 q 385 874 331 874 q 424 873 399 874 q 475 872 449 872 q 524 869 501 871 q 558 867 547 868 l 535 775 q 497 781 525 778 q 436 785 468 785 q 383 757 399 785 q 360 694 368 729 l 339 621 l 481 621 l 458 535 l 318 535 l 175 -18 q 89 -156 151 -111 q -76 -200 26 -200 z "},"⁴":{"ha":361,"x_min":22,"x_max":360,"o":"m 183 328 l 197 425 l 22 425 l 35 507 l 251 821 l 353 821 l 307 493 l 360 493 l 350 425 l 297 425 l 283 328 l 183 328 m 114 493 l 207 493 l 229 657 l 114 493 z "},"⁄":{"ha":421,"x_min":-174,"x_max":486,"o":"m -174 0 l 388 818 l 486 818 l -78 0 l -174 0 z "},"₣":{"ha":514,"x_min":-3,"x_max":532,"o":"m 38 0 l 61 161 l -3 161 l 6 233 l 71 233 l 154 821 l 532 821 l 515 707 l 306 707 l 274 488 l 453 488 l 435 361 l 256 361 l 238 233 l 343 233 l 333 161 l 229 161 l 206 0 l 38 0 z "},"g":{"ha":522,"x_min":17,"x_max":524,"o":"m 188 -165 q 140 -164 168 -165 q 86 -160 113 -162 q 41 -155 60 -157 q 18 -151 22 -153 l 29 -67 q 83 -73 49 -69 q 143 -76 118 -76 q 180 -74 160 -76 q 219 -61 200 -71 q 253 -31 239 -51 q 272 25 268 -11 l 286 124 q 261 87 276 107 q 219 53 246 67 q 144 39 192 39 q 91 44 117 39 q 47 69 65 50 q 23 131 29 89 q 28 246 17 174 l 68 539 q 107 642 78 608 q 172 685 136 675 q 239 696 208 696 q 293 692 268 696 q 335 675 318 688 q 357 635 353 663 l 382 686 l 524 686 l 440 103 q 419 5 435 53 q 376 -81 404 -43 q 301 -142 347 -119 q 188 -165 256 -165 m 226 133 q 265 145 250 133 q 288 178 279 157 q 300 224 297 200 l 347 569 q 339 583 344 576 q 322 595 333 590 q 292 600 311 600 q 247 584 264 600 q 225 526 229 568 l 181 204 q 181 166 176 181 q 192 144 185 151 q 209 135 200 138 q 226 133 218 133 z "},"ğ":{"ha":522,"x_min":17,"x_max":524,"o":"m 188 -165 q 140 -164 168 -165 q 86 -160 113 -162 q 41 -155 60 -157 q 18 -151 22 -153 l 29 -67 q 83 -73 49 -69 q 143 -76 118 -76 q 180 -74 160 -76 q 219 -61 200 -71 q 253 -31 239 -51 q 272 25 268 -11 l 286 124 q 261 87 276 107 q 219 53 246 67 q 144 39 192 39 q 91 44 117 39 q 47 69 65 50 q 23 131 29 89 q 28 246 17 174 l 68 539 q 107 642 78 608 q 172 685 136 675 q 239 696 208 696 q 293 692 268 696 q 335 675 318 688 q 357 635 353 663 l 382 686 l 524 686 l 440 103 q 419 5 435 53 q 376 -81 404 -43 q 301 -142 347 -119 q 188 -165 256 -165 m 226 133 q 265 145 250 133 q 288 178 279 157 q 300 224 297 200 l 347 569 q 339 583 344 576 q 322 595 333 590 q 292 600 311 600 q 247 584 264 600 q 225 526 229 568 l 181 204 q 181 166 176 181 q 192 144 185 151 q 209 135 200 138 q 226 133 218 133 m 322 761 q 244 776 274 761 q 203 812 215 790 q 188 857 190 833 q 186 900 185 881 l 272 900 q 289 853 271 868 q 335 838 307 838 q 385 852 364 838 q 415 900 407 867 l 501 900 q 475 833 496 864 q 417 781 454 801 q 322 761 379 761 z "},"ģ":{"ha":522,"x_min":17,"x_max":524,"o":"m 431 957 q 390 900 406 925 q 374 860 375 875 q 381 844 372 851 q 397 826 389 836 q 403 799 406 817 q 379 762 400 779 q 328 744 358 744 q 279 762 297 744 q 264 806 261 779 q 284 852 268 825 q 323 908 300 879 q 365 957 346 936 l 431 957 m 188 -165 q 140 -164 168 -165 q 86 -160 113 -162 q 41 -155 60 -157 q 18 -151 22 -153 l 29 -67 q 83 -73 49 -69 q 143 -76 118 -76 q 180 -74 160 -76 q 219 -61 200 -71 q 253 -31 239 -51 q 272 25 268 -11 l 286 124 q 261 87 276 107 q 219 53 246 67 q 144 39 192 39 q 91 44 117 39 q 47 69 65 50 q 23 131 29 89 q 28 246 17 174 l 68 539 q 107 642 78 608 q 172 685 136 675 q 239 696 208 696 q 293 692 268 696 q 335 675 318 688 q 357 635 353 663 l 382 686 l 524 686 l 440 103 q 419 5 435 53 q 376 -81 404 -43 q 301 -142 347 -119 q 188 -165 256 -165 m 226 133 q 265 145 250 133 q 288 178 279 157 q 300 224 297 200 l 347 569 q 339 583 344 576 q 322 595 333 590 q 292 600 311 600 q 247 584 264 600 q 225 526 229 568 l 181 204 q 181 166 176 181 q 192 144 185 151 q 209 135 200 138 q 226 133 218 133 z "},"ġ":{"ha":522,"x_min":17,"x_max":524,"o":"m 188 -165 q 140 -164 168 -165 q 86 -160 113 -162 q 41 -155 60 -157 q 18 -151 22 -153 l 29 -67 q 83 -73 49 -69 q 143 -76 118 -76 q 180 -74 160 -76 q 219 -61 200 -71 q 253 -31 239 -51 q 272 25 268 -11 l 286 124 q 261 87 276 107 q 219 53 246 67 q 144 39 192 39 q 91 44 117 39 q 47 69 65 50 q 23 131 29 89 q 28 246 17 174 l 68 539 q 107 642 78 608 q 172 685 136 675 q 239 696 208 696 q 293 692 268 696 q 335 675 318 688 q 357 635 353 663 l 382 686 l 524 686 l 440 103 q 419 5 435 53 q 376 -81 404 -43 q 301 -142 347 -119 q 188 -165 256 -165 m 226 133 q 265 145 250 133 q 288 178 279 157 q 300 224 297 200 l 347 569 q 339 583 344 576 q 322 595 333 590 q 292 600 311 600 q 247 584 264 600 q 225 526 229 568 l 181 204 q 181 166 176 181 q 192 144 185 151 q 209 135 200 138 q 226 133 218 133 m 333 757 q 276 780 300 757 q 251 835 253 803 q 276 892 251 868 q 335 915 301 915 q 393 892 369 915 q 417 835 417 868 q 393 780 418 803 q 333 757 368 757 z "},"г":{"ha":410,"x_min":3,"x_max":447,"o":"m 3 0 l 100 688 l 447 688 l 431 574 l 251 574 l 172 0 l 3 0 z "},"ß":{"ha":626,"x_min":-135,"x_max":638,"o":"m -56 -204 q -97 -202 -71 -204 q -135 -199 -124 -200 q -133 -183 -135 -196 q -128 -153 -131 -169 q -124 -124 -126 -137 q -122 -108 -122 -111 l -103 -111 q -86 -113 -96 -112 q -62 -114 -76 -114 q 10 -85 -11 -114 q 36 -15 31 -56 l 119 578 l 65 578 l 81 688 l 136 688 l 140 725 q 171 811 149 778 q 248 860 193 844 q 403 876 303 876 q 579 847 521 876 q 626 740 638 817 l 608 608 q 563 514 600 550 q 485 475 525 478 l 483 469 q 540 451 514 467 q 583 408 567 436 q 592 339 599 381 l 568 168 q 524 60 558 96 q 437 12 490 24 q 314 0 383 0 l 238 0 l 250 82 l 303 82 q 352 93 333 82 q 383 136 371 104 q 403 232 394 168 l 417 332 q 415 383 421 363 q 392 413 410 403 q 340 424 374 424 l 303 424 l 315 507 l 375 507 q 429 534 414 507 q 451 608 444 561 l 463 692 q 458 774 471 749 q 393 799 446 799 q 337 786 357 799 q 308 753 317 774 q 296 706 300 732 l 199 11 q 163 -98 189 -56 q 102 -163 138 -140 q 26 -195 67 -186 q -56 -204 -15 -204 z "},"ѓ":{"ha":410,"x_min":3,"x_max":447,"o":"m 3 0 l 100 688 l 447 688 l 431 574 l 251 574 l 172 0 l 3 0 m 204 761 l 293 900 l 446 900 l 303 761 l 204 761 z "},"`":{"ha":232,"x_min":78,"x_max":292,"o":"m 192 761 l 78 900 l 231 900 l 292 761 l 192 761 z "},"̀":{"ha":0,"x_min":78,"x_max":292,"o":"m 192 761 l 78 900 l 231 900 l 292 761 l 192 761 z "},">":{"ha":447,"x_min":17,"x_max":399,"o":"m 17 182 l 36 326 l 261 458 l 74 590 l 93 731 l 399 501 l 386 413 l 17 182 z "},"≥":{"ha":492,"x_min":32,"x_max":456,"o":"m 57 214 l 68 258 l 413 453 l 178 650 l 189 693 l 456 472 l 444 435 l 57 214 m 32 -1 l 40 28 l 356 28 l 349 -1 l 32 -1 z "},"«":{"ha":728,"x_min":50,"x_max":715,"o":"m 493 143 l 349 406 l 572 674 l 715 674 l 492 406 l 636 143 l 493 143 m 194 143 l 50 406 l 274 674 l 417 674 l 193 406 l 338 143 l 194 143 z "},"»":{"ha":728,"x_min":17,"x_max":678,"o":"m 317 143 l 533 406 l 386 674 l 529 674 l 678 406 l 458 143 l 317 143 m 17 143 l 235 406 l 88 674 l 231 674 l 379 406 l 160 143 l 17 143 z "},"‹":{"ha":429,"x_min":50,"x_max":417,"o":"m 194 143 l 50 406 l 274 674 l 417 674 l 193 406 l 338 143 l 194 143 z "},"›":{"ha":429,"x_min":17,"x_max":378,"o":"m 17 143 l 235 406 l 88 674 l 231 674 l 378 406 l 158 143 l 17 143 z "},"h":{"ha":531,"x_min":4,"x_max":518,"o":"m 4 0 l 126 875 l 275 875 l 238 611 q 294 675 256 653 q 381 697 333 697 q 460 684 431 697 q 502 647 489 671 q 517 590 515 624 q 513 515 518 557 l 440 0 l 282 0 l 350 492 q 353 521 353 507 q 349 546 353 535 q 333 565 344 557 q 301 572 322 572 q 268 566 282 572 q 247 551 254 560 q 239 536 240 543 l 163 0 l 4 0 z "},"х":{"ha":475,"x_min":-49,"x_max":521,"o":"m -49 0 q -10 110 -36 53 q 49 222 17 168 q 110 314 81 275 q 157 367 139 353 q 118 420 136 383 q 88 505 100 457 q 69 601 75 553 q 68 688 64 650 l 196 688 q 201 607 193 651 q 226 525 210 563 q 261 474 242 488 q 291 500 274 479 q 326 551 308 521 q 358 617 343 581 q 381 688 372 653 l 521 688 q 484 592 510 643 q 428 492 458 540 q 369 410 397 444 q 326 367 342 376 q 361 321 343 357 q 395 232 379 285 q 422 119 411 179 q 431 0 432 58 l 271 0 q 268 61 271 28 q 259 127 265 94 q 243 183 253 160 q 218 215 233 206 q 178 176 201 207 q 133 99 156 146 q 94 0 111 53 l -49 0 z "},"ъ":{"ha":563,"x_min":40,"x_max":533,"o":"m 40 0 l 124 593 l 46 593 l 60 688 l 296 688 l 265 472 l 388 472 q 467 458 433 472 q 517 409 501 444 q 524 308 533 374 l 511 215 q 483 103 501 146 q 437 38 464 60 q 376 8 410 17 q 297 0 342 0 l 40 0 m 210 83 l 274 83 q 314 93 300 83 q 335 122 328 103 q 346 167 342 142 l 361 283 q 366 333 367 313 q 354 363 365 353 q 315 374 343 374 l 253 374 l 210 83 z "},"ħ":{"ha":526,"x_min":4,"x_max":518,"o":"m 19 739 l 36 818 l 329 818 l 314 739 l 19 739 m 4 0 l 126 875 l 275 875 l 238 611 q 294 675 256 653 q 381 697 333 697 q 460 684 431 697 q 502 647 489 671 q 517 590 515 624 q 513 515 518 557 l 440 0 l 282 0 l 350 492 q 353 521 353 507 q 349 546 353 535 q 333 565 344 557 q 301 572 322 572 q 268 566 282 572 q 247 551 254 560 q 239 536 240 543 l 163 0 l 4 0 z "},"̉":{"ha":0,"x_min":71,"x_max":288,"o":"m 122 747 l 126 778 q 144 807 129 799 q 172 822 158 815 q 188 847 186 829 l 190 860 q 188 881 192 872 q 169 890 185 890 q 142 861 149 890 l 71 872 q 108 929 81 910 q 185 949 136 949 q 263 924 239 949 q 279 856 288 900 l 278 850 q 265 810 275 821 q 242 795 254 799 q 220 788 229 792 q 210 769 211 783 l 207 747 l 122 747 z "},"̛":{"ha":0,"x_min":40,"x_max":250,"o":"m 40 614 l 49 683 l 72 683 q 143 749 133 683 l 146 774 l 250 774 l 249 750 q 185 645 238 676 q 40 614 133 614 z "},"˝":{"ha":293,"x_min":60,"x_max":371,"o":"m 60 761 l 99 900 l 222 900 l 122 761 l 60 761 m 190 761 l 249 900 l 371 900 l 263 761 l 190 761 z "},"̋":{"ha":0,"x_min":60,"x_max":371,"o":"m 60 761 l 99 900 l 222 900 l 122 761 l 60 761 m 190 761 l 249 900 l 371 900 l 263 761 l 190 761 z "},"-":{"ha":389,"x_min":43,"x_max":346,"o":"m 43 333 l 57 440 l 346 440 l 332 333 l 43 333 z "},"i":{"ha":263,"x_min":3,"x_max":286,"o":"m 3 0 l 100 688 l 258 688 l 161 0 l 3 0 m 201 757 q 144 780 168 757 q 119 835 121 803 q 144 892 119 868 q 203 915 169 915 q 261 892 238 915 q 285 835 285 868 q 261 780 286 803 q 201 757 236 757 z "},"і":{"ha":263,"x_min":3,"x_max":286,"o":"m 3 0 l 100 688 l 258 688 l 161 0 l 3 0 m 201 757 q 144 780 168 757 q 119 835 121 803 q 144 892 119 868 q 203 915 169 915 q 261 892 238 915 q 285 835 285 868 q 261 780 286 803 q 201 757 236 757 z "},"я":{"ha":565,"x_min":-22,"x_max":568,"o":"m -22 0 l 90 226 q 139 293 115 274 q 192 315 163 313 q 103 356 129 321 q 88 468 76 390 l 94 517 q 155 645 107 603 q 285 688 203 688 l 568 688 l 471 0 l 303 0 l 346 299 l 297 274 q 253 204 274 243 q 213 118 232 165 l 158 0 l -22 0 m 301 361 l 354 361 l 388 600 l 318 600 q 276 572 293 600 q 253 506 258 543 l 249 476 q 255 385 240 410 q 301 361 269 361 z "},"í":{"ha":263,"x_min":3,"x_max":357,"o":"m 3 0 l 100 688 l 258 688 l 161 0 l 3 0 m 115 761 l 204 900 l 357 900 l 214 761 l 115 761 z "},"ǐ":{"ha":263,"x_min":3,"x_max":390,"o":"m 3 0 l 100 688 l 258 688 l 161 0 l 3 0 m 149 758 l 38 904 l 133 904 l 203 829 l 296 904 l 390 904 l 238 758 l 149 758 z "},"î":{"ha":263,"x_min":3,"x_max":368,"o":"m 3 0 l 100 688 l 258 688 l 161 0 l 3 0 m 14 758 l 165 904 l 256 904 l 367 758 l 272 758 l 201 836 l 111 758 l 14 758 z "},"ï":{"ha":263,"x_min":3,"x_max":350,"o":"m 3 0 l 100 688 l 258 688 l 161 0 l 3 0 m 117 767 q 70 785 89 767 q 51 831 51 804 q 70 875 51 857 q 117 893 89 893 q 164 875 146 893 q 182 831 182 857 q 164 785 182 804 q 117 767 146 767 m 285 767 q 237 785 256 767 q 218 831 218 804 q 237 875 218 857 q 285 893 256 893 q 331 875 313 893 q 349 831 349 857 q 331 785 349 804 q 285 767 313 767 z "},"ị":{"ha":263,"x_min":1,"x_max":286,"o":"m 3 0 l 100 688 l 258 688 l 161 0 l 3 0 m 201 757 q 144 780 168 757 q 119 835 121 803 q 144 892 119 868 q 203 915 169 915 q 261 892 238 915 q 285 835 285 868 q 261 780 286 803 q 201 757 236 757 m 68 -179 q 20 -160 39 -179 q 1 -115 1 -142 q 20 -71 1 -89 q 68 -53 39 -53 q 114 -71 96 -53 q 132 -115 132 -89 q 114 -160 132 -142 q 68 -179 96 -179 z "},"ı":{"ha":263,"x_min":3,"x_max":258,"o":"m 3 0 l 100 688 l 258 688 l 161 0 l 3 0 z "},"е":{"ha":504,"x_min":8,"x_max":518,"o":"m 208 -17 q 91 1 138 -17 q 26 67 44 18 q 21 208 8 115 l 67 524 q 139 660 81 624 q 292 697 197 697 q 467 658 417 697 q 501 513 518 618 q 454 413 490 451 q 369 352 418 374 q 272 322 319 331 q 190 313 224 314 l 171 164 q 174 94 164 114 q 219 74 183 74 q 268 91 253 74 q 290 160 283 108 l 304 256 l 461 256 l 451 183 q 413 58 440 101 q 337 -1 386 15 q 208 -17 288 -17 m 204 393 q 240 399 219 394 q 282 415 261 403 q 319 451 303 428 q 343 513 336 474 q 345 584 351 553 q 299 615 339 615 q 244 594 263 615 q 218 508 226 574 l 204 393 z "},"ѐ":{"ha":504,"x_min":8,"x_max":518,"o":"m 208 -17 q 91 1 138 -17 q 26 67 44 18 q 21 208 8 115 l 67 524 q 139 660 81 624 q 292 697 197 697 q 467 658 417 697 q 501 513 518 618 q 454 413 490 451 q 369 352 418 374 q 272 322 319 331 q 190 313 224 314 l 171 164 q 174 94 164 114 q 219 74 183 74 q 268 91 253 74 q 290 160 283 108 l 304 256 l 461 256 l 451 183 q 413 58 440 101 q 337 -1 386 15 q 208 -17 288 -17 m 204 393 q 240 399 219 394 q 282 415 261 403 q 319 451 303 428 q 343 513 336 474 q 345 584 351 553 q 299 615 339 615 q 244 594 263 615 q 218 508 226 574 l 204 393 m 276 761 l 163 900 l 315 900 l 376 761 l 276 761 z "},"ì":{"ha":263,"x_min":3,"x_max":258,"o":"m 3 0 l 100 688 l 258 688 l 161 0 l 3 0 m 157 761 l 43 900 l 196 900 l 257 761 l 157 761 z "},"ỉ":{"ha":263,"x_min":3,"x_max":306,"o":"m 3 0 l 100 688 l 258 688 l 161 0 l 3 0 m 142 747 l 146 778 q 163 807 149 799 q 192 822 178 815 q 207 847 206 829 l 210 860 q 208 881 211 872 q 189 890 204 890 q 161 861 168 890 l 90 872 q 128 929 100 910 q 204 949 156 949 q 283 924 258 949 q 299 856 307 900 l 297 850 q 284 810 294 821 q 261 795 274 799 q 240 788 249 792 q 229 769 231 783 l 226 747 l 142 747 z "},"и":{"ha":540,"x_min":3,"x_max":536,"o":"m 3 0 l 100 688 l 240 688 l 183 285 l 397 688 l 536 688 l 439 0 l 300 0 l 363 440 q 247 220 304 329 q 132 0 190 111 l 3 0 z "},"ѝ":{"ha":540,"x_min":3,"x_max":536,"o":"m 3 0 l 100 688 l 240 688 l 183 285 l 397 688 l 536 688 l 439 0 l 300 0 l 363 440 q 247 220 304 329 q 132 0 190 111 l 3 0 m 296 761 l 182 900 l 335 900 l 396 761 l 296 761 z "},"й":{"ha":540,"x_min":3,"x_max":536,"o":"m 3 0 l 100 688 l 240 688 l 183 285 l 397 688 l 536 688 l 439 0 l 300 0 l 363 440 q 247 220 304 329 q 132 0 190 111 l 3 0 m 328 761 q 250 776 279 761 q 208 812 221 790 q 193 857 196 833 q 192 900 190 881 l 278 900 q 294 853 276 868 q 340 838 313 838 q 391 852 369 838 q 421 900 413 867 l 507 900 q 481 833 501 864 q 422 781 460 801 q 328 761 385 761 z "},"ī":{"ha":263,"x_min":3,"x_max":340,"o":"m 3 0 l 100 688 l 258 688 l 161 0 l 3 0 m 44 778 l 54 858 l 340 858 l 331 778 l 44 778 z "},"∞":{"ha":968,"x_min":36,"x_max":933,"o":"m 199 135 q 72 186 108 135 q 50 340 36 238 q 114 494 64 440 q 257 549 164 549 q 352 528 311 549 q 427 474 393 507 q 492 401 461 440 q 577 473 535 440 q 667 527 619 506 q 771 549 715 549 q 899 494 864 549 q 919 340 933 440 q 856 188 906 242 q 711 135 806 135 q 617 156 658 135 q 542 211 575 176 q 476 282 508 246 q 391 209 435 243 q 300 155 347 175 q 199 135 253 135 m 217 229 q 311 260 268 229 q 415 342 354 292 q 362 395 388 371 q 309 434 336 419 q 247 449 282 449 q 172 419 200 449 q 138 339 144 389 q 149 259 131 289 q 217 229 168 229 m 721 233 q 796 262 768 233 q 831 343 824 290 q 819 423 839 393 q 753 453 800 453 q 706 446 726 453 q 663 425 685 439 q 616 390 642 411 q 554 340 590 369 q 615 280 589 303 q 666 245 640 257 q 721 233 692 233 z "},"∫":{"ha":553,"x_min":-233,"x_max":619,"o":"m -133 -414 q -183 -410 -158 -412 q -233 -399 -208 -407 l -201 -299 l -110 -308 q -59 -283 -76 -307 q -33 -235 -42 -260 l 269 725 q 327 823 290 790 q 413 865 364 856 q 518 875 463 875 q 574 872 547 875 q 619 861 600 868 l 588 760 l 494 771 q 444 746 461 769 q 419 697 428 722 l 117 -262 q 58 -360 94 -328 q -28 -403 21 -393 q -133 -414 -78 -414 z "},"ё":{"ha":504,"x_min":8,"x_max":518,"o":"m 208 -17 q 91 1 138 -17 q 26 67 44 18 q 21 208 8 115 l 67 524 q 139 660 81 624 q 292 697 197 697 q 467 658 417 697 q 501 513 518 618 q 454 413 490 451 q 369 352 418 374 q 272 322 319 331 q 190 313 224 314 l 171 164 q 174 94 164 114 q 219 74 183 74 q 268 91 253 74 q 290 160 283 108 l 304 256 l 461 256 l 451 183 q 413 58 440 101 q 337 -1 386 15 q 208 -17 288 -17 m 204 393 q 240 399 219 394 q 282 415 261 403 q 319 451 303 428 q 343 513 336 474 q 345 584 351 553 q 299 615 339 615 q 244 594 263 615 q 218 508 226 574 l 204 393 m 238 767 q 191 785 210 767 q 172 831 172 804 q 191 875 172 857 q 238 893 210 893 q 285 875 267 893 q 303 831 303 857 q 285 785 303 804 q 238 767 267 767 m 406 767 q 358 785 376 767 q 339 831 339 804 q 358 875 339 857 q 406 893 376 893 q 451 875 433 893 q 469 831 469 857 q 451 785 469 804 q 406 767 433 767 z "},"į":{"ha":263,"x_min":-33,"x_max":286,"o":"m 3 0 l 100 688 l 258 688 l 161 0 l 3 0 m 201 757 q 144 780 168 757 q 119 835 121 803 q 144 892 119 868 q 203 915 169 915 q 261 892 238 915 q 285 835 285 868 q 261 780 286 803 q 201 757 236 757 m 72 -200 q -6 -173 22 -200 q -29 -111 -33 -146 q 13 -39 -22 -72 q 97 1 49 -6 l 161 0 q 101 -39 122 -12 q 76 -89 81 -65 q 89 -129 74 -115 q 122 -143 104 -143 q 140 -140 132 -143 q 151 -137 149 -137 l 165 -179 q 135 -192 156 -183 q 72 -200 114 -200 z "},"ĩ":{"ha":263,"x_min":3,"x_max":369,"o":"m 3 0 l 100 688 l 258 688 l 161 0 l 3 0 m 256 765 q 218 773 235 765 q 185 792 201 781 q 156 808 171 801 q 125 815 142 815 q 96 802 108 815 q 78 767 83 789 l 31 767 q 68 855 39 821 q 138 889 97 889 q 177 881 160 889 q 211 863 194 874 q 240 848 226 854 q 268 842 253 842 q 300 853 289 842 q 317 885 311 865 l 369 885 q 325 797 360 828 q 256 765 290 765 z "},"ю":{"ha":819,"x_min":-3,"x_max":807,"o":"m 508 -14 q 412 -3 451 -14 q 349 32 372 7 q 319 101 326 57 q 324 213 313 144 l 365 518 q 402 619 375 579 q 480 678 429 658 q 608 699 531 699 q 706 688 667 699 q 769 653 746 676 q 799 597 792 631 q 800 518 807 564 l 758 214 q 715 74 746 124 q 634 6 685 25 q 508 -14 583 -14 m -3 0 l 94 688 l 253 688 l 214 417 l 404 417 l 388 297 l 197 297 l 156 0 l -3 0 m 519 69 q 558 79 544 69 q 580 108 572 89 q 590 150 588 126 l 644 535 q 647 576 649 558 q 633 605 644 594 q 597 615 622 615 q 558 605 572 615 q 538 576 544 594 q 526 535 531 558 l 472 150 q 471 108 469 126 q 483 79 472 89 q 519 69 494 69 z "},"j":{"ha":249,"x_min":-158,"x_max":279,"o":"m -107 -156 q -135 -153 -117 -154 q -158 -151 -153 -153 l -147 -67 q -119 -67 -136 -68 q -93 -67 -103 -67 q -28 -44 -51 -64 q 0 10 -6 -25 l 94 688 l 253 688 l 164 56 q 110 -84 151 -37 q 13 -145 69 -131 q -107 -156 -44 -160 m 193 757 q 136 780 160 757 q 111 835 113 803 q 136 892 111 868 q 194 915 161 915 q 253 892 229 915 q 276 835 276 868 q 253 780 278 803 q 193 757 228 757 z "},"ȷ":{"ha":249,"x_min":-158,"x_max":253,"o":"m -107 -156 q -135 -153 -117 -154 q -158 -151 -153 -153 l -147 -67 q -119 -67 -136 -68 q -93 -67 -103 -67 q -28 -44 -51 -64 q 0 10 -6 -25 l 94 688 l 253 688 l 164 56 q 110 -84 151 -37 q 13 -145 69 -131 q -107 -156 -44 -160 z "},"ј":{"ha":249,"x_min":-158,"x_max":279,"o":"m -107 -156 q -135 -153 -117 -154 q -158 -151 -153 -153 l -147 -67 q -119 -67 -136 -68 q -93 -67 -103 -67 q -28 -44 -51 -64 q 0 10 -6 -25 l 94 688 l 253 688 l 164 56 q 110 -84 151 -37 q 13 -145 69 -131 q -107 -156 -44 -160 m 193 757 q 136 780 160 757 q 111 835 113 803 q 136 892 111 868 q 194 915 161 915 q 253 892 229 915 q 276 835 276 868 q 253 780 278 803 q 193 757 228 757 z "},"k":{"ha":528,"x_min":4,"x_max":565,"o":"m 4 0 l 128 878 l 285 878 l 163 0 l 4 0 m 296 0 l 228 399 l 408 688 l 565 688 l 379 396 l 468 0 l 296 0 z "},"к":{"ha":540,"x_min":3,"x_max":576,"o":"m 3 0 l 100 688 l 260 688 l 226 449 q 333 576 274 522 q 456 656 393 629 q 576 678 519 683 l 561 574 q 499 549 528 567 q 447 511 469 532 q 419 483 432 497 q 394 451 407 468 l 478 0 l 294 0 l 232 276 q 211 248 221 264 q 194 222 201 232 l 163 0 l 3 0 z "},"ķ":{"ha":528,"x_min":4,"x_max":565,"o":"m 4 0 l 128 878 l 285 878 l 163 0 l 4 0 m 296 0 l 228 399 l 408 688 l 565 688 l 379 396 l 468 0 l 296 0 m 115 -261 q 156 -204 142 -229 q 172 -165 171 -179 q 165 -149 174 -156 q 149 -131 157 -142 q 143 -103 142 -121 q 167 -67 146 -83 q 217 -50 188 -50 q 266 -67 249 -50 q 281 -110 283 -83 q 263 -156 279 -128 q 224 -212 246 -185 q 179 -261 201 -240 l 115 -261 z "},"ќ":{"ha":540,"x_min":3,"x_max":576,"o":"m 3 0 l 100 688 l 260 688 l 226 449 q 333 576 274 522 q 456 656 393 629 q 576 678 519 683 l 561 574 q 499 549 528 567 q 447 511 469 532 q 419 483 432 497 q 394 451 407 468 l 478 0 l 294 0 l 232 276 q 211 248 221 264 q 194 222 201 232 l 163 0 l 3 0 m 281 761 l 369 900 l 522 900 l 379 761 l 281 761 z "},"l":{"ha":263,"x_min":4,"x_max":285,"o":"m 4 0 l 128 878 l 285 878 l 163 0 l 4 0 z "},"ĺ":{"ha":263,"x_min":4,"x_max":388,"o":"m 4 0 l 128 878 l 285 878 l 163 0 l 4 0 m 115 935 l 242 1065 l 388 1065 l 206 935 l 115 935 z "},"ľ":{"ha":367,"x_min":4,"x_max":460,"o":"m 4 0 l 128 878 l 285 878 l 163 0 l 4 0 m 301 704 l 363 908 l 458 908 l 358 704 l 301 704 z "},"ļ":{"ha":263,"x_min":-28,"x_max":285,"o":"m 4 0 l 128 878 l 285 878 l 163 0 l 4 0 m -28 -261 q 13 -204 -1 -229 q 29 -165 28 -179 q 22 -149 31 -156 q 6 -131 14 -142 q 0 -103 -1 -121 q 24 -67 3 -83 q 74 -50 44 -50 q 123 -67 106 -50 q 138 -110 140 -83 q 119 -156 136 -128 q 81 -212 103 -185 q 36 -261 58 -240 l -28 -261 z "},"←":{"ha":1113,"x_min":50,"x_max":1061,"o":"m 435 39 l 50 356 l 435 676 l 513 600 l 322 422 l 1061 418 l 1060 292 l 325 294 l 511 117 l 435 39 z "},"↔":{"ha":1404,"x_min":49,"x_max":1353,"o":"m 436 88 l 49 406 l 436 725 l 513 649 l 324 471 l 1079 471 l 889 649 l 967 725 l 1353 406 l 967 88 l 889 164 l 1075 340 l 328 340 l 513 164 l 436 88 z "},"<":{"ha":447,"x_min":47,"x_max":431,"o":"m 354 182 l 47 411 l 61 500 l 431 731 l 411 586 l 186 454 l 374 322 l 354 182 z "},"≤":{"ha":440,"x_min":19,"x_max":446,"o":"m 368 182 l 63 413 l 75 501 l 446 731 l 425 590 l 201 458 l 389 326 l 368 182 m 350 -6 l 19 -6 l 33 101 l 363 101 l 350 -6 z "},"љ":{"ha":874,"x_min":-31,"x_max":844,"o":"m -31 0 l -18 83 q 17 97 -1 83 q 49 135 35 111 q 69 189 64 158 l 183 688 l 608 688 l 578 472 l 699 472 q 781 458 747 472 q 829 408 814 443 q 835 308 844 372 l 824 225 q 797 111 814 156 q 752 43 779 67 q 690 10 725 19 q 610 0 656 0 l 349 0 l 429 575 l 328 575 l 225 147 q 213 99 221 125 q 190 51 206 74 q 147 15 175 29 q 71 0 119 0 l -31 0 m 522 83 l 586 83 q 626 93 613 83 q 647 122 640 103 q 657 167 654 142 l 674 283 q 677 333 678 313 q 665 363 676 353 q 626 374 654 374 l 564 374 l 522 83 z "},"¬":{"ha":775,"x_min":67,"x_max":751,"o":"m 594 182 l 632 450 l 67 450 l 83 565 l 751 565 l 697 182 l 594 182 z "},"ſ":{"ha":388,"x_min":-115,"x_max":493,"o":"m 0 -200 q -59 -199 -29 -200 q -115 -192 -89 -197 l -104 -110 l -60 -111 q -35 -110 -47 -112 q -11 -101 -24 -107 q 19 -81 8 -97 q 35 -47 31 -65 l 114 517 l 60 517 l 72 611 l 128 611 l 144 726 q 183 824 153 792 q 260 867 214 857 q 361 878 307 878 q 431 872 397 878 q 493 860 464 867 l 468 768 q 415 781 440 778 q 360 783 390 783 q 317 756 331 783 q 300 704 303 729 l 201 13 q 163 -106 192 -61 q 92 -174 135 -151 q 0 -200 50 -196 z "},"◊":{"ha":672,"x_min":50,"x_max":622,"o":"m 283 -47 l 50 406 l 283 857 l 389 857 l 622 406 l 389 -47 l 283 -47 m 338 101 l 483 408 l 339 710 l 190 406 l 338 101 z "},"ł":{"ha":404,"x_min":1,"x_max":364,"o":"m 60 0 l 92 229 l 1 192 l 11 261 l 103 300 l 183 878 l 340 878 l 269 369 l 364 410 l 354 340 l 260 301 l 218 0 l 60 0 z "},"m":{"ha":801,"x_min":4,"x_max":794,"o":"m 4 0 l 100 688 l 235 688 l 236 604 q 296 672 256 646 q 379 697 336 697 q 475 675 444 697 q 511 608 506 653 q 570 672 532 647 q 654 697 608 697 q 771 653 747 697 q 782 515 794 608 l 710 0 l 551 0 l 622 513 q 624 556 628 540 q 608 578 619 572 q 578 585 597 585 q 538 572 557 585 q 513 540 518 560 l 436 0 l 278 0 l 350 514 q 349 558 354 543 q 333 579 344 574 q 304 585 322 585 q 266 574 282 585 q 240 549 250 564 l 163 0 l 4 0 z "},"¯":{"ha":288,"x_min":63,"x_max":358,"o":"m 63 778 l 72 858 l 358 858 l 349 778 l 63 778 z "},"̄":{"ha":0,"x_min":63,"x_max":358,"o":"m 63 778 l 72 858 l 358 858 l 349 778 l 63 778 z "},"µ":{"ha":535,"x_min":-11,"x_max":546,"o":"m -11 -179 l 111 688 l 269 688 l 192 139 q 212 111 197 121 q 249 101 226 101 q 278 107 265 101 q 301 129 292 113 q 315 175 311 146 l 388 688 l 546 688 l 474 172 q 447 70 465 111 q 392 10 428 29 q 293 -10 356 -10 q 216 15 249 -10 q 174 83 183 40 l 124 -179 l -11 -179 z "},"−":{"ha":744,"x_min":81,"x_max":585,"o":"m 81 303 l 96 413 l 585 413 l 569 303 l 81 303 z "},"×":{"ha":540,"x_min":33,"x_max":508,"o":"m 383 143 l 260 286 l 100 147 l 33 224 l 193 364 l 69 506 l 158 583 l 281 440 l 442 582 l 508 504 l 349 364 l 469 219 l 383 143 z "},"n":{"ha":531,"x_min":4,"x_max":518,"o":"m 4 0 l 100 688 l 235 688 l 236 604 q 297 673 257 649 q 381 697 336 697 q 460 684 431 697 q 501 647 489 671 q 516 590 514 624 q 511 515 518 557 l 440 0 l 282 0 l 353 506 q 355 536 354 522 q 352 561 356 550 q 338 578 349 572 q 304 585 326 585 q 274 579 288 585 q 253 565 261 574 q 240 550 244 557 l 163 0 l 4 0 z "},"ń":{"ha":531,"x_min":4,"x_max":518,"o":"m 4 0 l 100 688 l 235 688 l 236 604 q 297 673 257 649 q 381 697 336 697 q 460 684 431 697 q 501 647 489 671 q 516 590 514 624 q 511 515 518 557 l 440 0 l 282 0 l 353 506 q 355 536 354 522 q 352 561 356 550 q 338 578 349 572 q 304 585 326 585 q 274 579 288 585 q 253 565 261 574 q 240 550 244 557 l 163 0 l 4 0 m 254 761 l 343 900 l 496 900 l 353 761 l 254 761 z "},"ň":{"ha":531,"x_min":4,"x_max":529,"o":"m 4 0 l 100 688 l 235 688 l 236 604 q 297 673 257 649 q 381 697 336 697 q 460 684 431 697 q 501 647 489 671 q 516 590 514 624 q 511 515 518 557 l 440 0 l 282 0 l 353 506 q 355 536 354 522 q 352 561 356 550 q 338 578 349 572 q 304 585 326 585 q 274 579 288 585 q 253 565 261 574 q 240 550 244 557 l 163 0 l 4 0 m 288 758 l 176 904 l 272 904 l 342 829 l 435 904 l 529 904 l 376 758 l 288 758 z "},"ņ":{"ha":531,"x_min":4,"x_max":518,"o":"m 4 0 l 100 688 l 235 688 l 236 604 q 297 673 257 649 q 381 697 336 697 q 460 684 431 697 q 501 647 489 671 q 516 590 514 624 q 511 515 518 557 l 440 0 l 282 0 l 353 506 q 355 536 354 522 q 352 561 356 550 q 338 578 349 572 q 304 585 326 585 q 274 579 288 585 q 253 565 261 574 q 240 550 244 557 l 163 0 l 4 0 m 111 -261 q 152 -204 138 -229 q 168 -165 167 -179 q 161 -149 169 -156 q 145 -131 153 -142 q 139 -103 138 -121 q 163 -67 142 -83 q 213 -50 183 -50 q 262 -67 244 -50 q 276 -110 279 -83 q 258 -156 275 -128 q 219 -212 242 -185 q 175 -261 197 -240 l 111 -261 z "},"њ":{"ha":800,"x_min":-3,"x_max":771,"o":"m -3 0 l 94 688 l 253 688 l 214 417 l 339 417 l 378 688 l 533 688 l 503 472 l 625 472 q 706 458 672 472 q 756 408 740 443 q 761 308 771 372 l 750 225 q 723 111 740 156 q 678 43 706 67 q 616 10 651 19 q 536 0 581 0 l 281 0 l 322 297 l 197 297 l 156 0 l -3 0 m 449 83 l 511 83 q 552 93 538 83 q 573 122 567 103 q 583 167 579 142 l 600 283 q 603 333 604 313 q 592 363 603 353 q 553 374 581 374 l 490 374 l 449 83 z "},"↗":{"ha":797,"x_min":8,"x_max":769,"o":"m 99 85 l 8 175 l 532 693 l 274 689 l 274 797 l 769 844 l 724 346 l 615 346 l 624 606 l 99 85 z "},"↖":{"ha":836,"x_min":60,"x_max":818,"o":"m 729 60 l 211 582 l 217 325 l 108 325 l 60 821 l 558 775 l 558 667 l 300 675 l 818 149 l 729 60 z "},"≠":{"ha":579,"x_min":0,"x_max":581,"o":"m 0 -24 l 146 189 l 67 189 l 82 297 l 219 297 l 338 472 l 107 472 l 122 579 l 411 579 l 510 724 l 581 724 l 483 579 l 558 579 l 543 472 l 408 472 l 290 297 l 519 297 l 504 189 l 217 189 l 71 -24 l 0 -24 z "},"ñ":{"ha":531,"x_min":4,"x_max":518,"o":"m 4 0 l 100 688 l 235 688 l 236 604 q 297 673 257 649 q 381 697 336 697 q 460 684 431 697 q 501 647 489 671 q 516 590 514 624 q 511 515 518 557 l 440 0 l 282 0 l 353 506 q 355 536 354 522 q 352 561 356 550 q 338 578 349 572 q 304 585 326 585 q 274 579 288 585 q 253 565 261 574 q 240 550 244 557 l 163 0 l 4 0 m 394 765 q 357 773 374 765 q 324 792 340 781 q 295 808 310 801 q 264 815 281 815 q 235 802 247 815 q 217 767 222 789 l 169 767 q 207 855 178 821 q 276 889 236 889 q 316 881 299 889 q 350 863 333 874 q 378 848 365 854 q 407 842 392 842 q 439 853 428 842 q 456 885 450 865 l 508 885 q 464 797 499 828 q 394 765 429 765 z "},"#":{"ha":999,"x_min":46,"x_max":953,"o":"m 175 0 l 251 242 l 46 242 l 76 339 l 282 339 l 338 513 l 128 514 l 160 611 l 368 611 l 426 797 l 528 797 l 468 611 l 653 611 l 711 797 l 814 797 l 754 611 l 953 611 l 922 513 l 722 513 l 668 339 l 869 339 l 839 240 l 638 240 l 563 0 l 461 0 l 536 240 l 353 242 l 276 0 l 175 0 m 383 339 l 568 339 l 621 513 l 438 513 l 383 339 z "},"o":{"ha":515,"x_min":14,"x_max":506,"o":"m 208 -11 q 112 0 151 -11 q 49 36 72 11 q 20 105 26 61 q 22 217 14 149 l 64 508 q 101 616 74 574 q 180 678 129 658 q 308 699 231 699 q 406 687 367 699 q 469 651 446 675 q 499 592 492 628 q 497 508 506 557 l 457 217 q 415 78 444 128 q 334 8 385 28 q 208 -11 283 -11 m 222 83 q 261 94 247 83 q 282 122 275 104 q 292 164 289 140 l 342 525 q 344 567 346 549 q 331 594 342 585 q 294 604 319 604 q 256 594 269 604 q 235 567 242 585 q 225 525 228 549 l 174 164 q 172 122 171 140 q 185 94 174 104 q 222 83 196 83 z "},"о":{"ha":515,"x_min":14,"x_max":506,"o":"m 208 -11 q 112 0 151 -11 q 49 36 72 11 q 20 105 26 61 q 22 217 14 149 l 64 508 q 101 616 74 574 q 180 678 129 658 q 308 699 231 699 q 406 687 367 699 q 469 651 446 675 q 499 592 492 628 q 497 508 506 557 l 457 217 q 415 78 444 128 q 334 8 385 28 q 208 -11 283 -11 m 222 83 q 261 94 247 83 q 282 122 275 104 q 292 164 289 140 l 342 525 q 344 567 346 549 q 331 594 342 585 q 294 604 319 604 q 256 594 269 604 q 235 567 242 585 q 225 525 228 549 l 174 164 q 172 122 171 140 q 185 94 174 104 q 222 83 196 83 z "},"ó":{"ha":515,"x_min":14,"x_max":506,"o":"m 208 -11 q 112 0 151 -11 q 49 36 72 11 q 20 105 26 61 q 22 217 14 149 l 64 508 q 101 616 74 574 q 180 678 129 658 q 308 699 231 699 q 406 687 367 699 q 469 651 446 675 q 499 592 492 628 q 497 508 506 557 l 457 217 q 415 78 444 128 q 334 8 385 28 q 208 -11 283 -11 m 222 83 q 261 94 247 83 q 282 122 275 104 q 292 164 289 140 l 342 525 q 344 567 346 549 q 331 594 342 585 q 294 604 319 604 q 256 594 269 604 q 235 567 242 585 q 225 525 228 549 l 174 164 q 172 122 171 140 q 185 94 174 104 q 222 83 196 83 m 240 761 l 329 900 l 482 900 l 339 761 l 240 761 z "},"ǒ":{"ha":515,"x_min":14,"x_max":515,"o":"m 208 -11 q 112 0 151 -11 q 49 36 72 11 q 20 105 26 61 q 22 217 14 149 l 64 508 q 101 616 74 574 q 180 678 129 658 q 308 699 231 699 q 406 687 367 699 q 469 651 446 675 q 499 592 492 628 q 497 508 506 557 l 457 217 q 415 78 444 128 q 334 8 385 28 q 208 -11 283 -11 m 222 83 q 261 94 247 83 q 282 122 275 104 q 292 164 289 140 l 342 525 q 344 567 346 549 q 331 594 342 585 q 294 604 319 604 q 256 594 269 604 q 235 567 242 585 q 225 525 228 549 l 174 164 q 172 122 171 140 q 185 94 174 104 q 222 83 196 83 m 274 758 l 163 904 l 258 904 l 328 829 l 421 904 l 515 904 l 363 758 l 274 758 z "},"ô":{"ha":515,"x_min":14,"x_max":506,"o":"m 208 -11 q 112 0 151 -11 q 49 36 72 11 q 20 105 26 61 q 22 217 14 149 l 64 508 q 101 616 74 574 q 180 678 129 658 q 308 699 231 699 q 406 687 367 699 q 469 651 446 675 q 499 592 492 628 q 497 508 506 557 l 457 217 q 415 78 444 128 q 334 8 385 28 q 208 -11 283 -11 m 222 83 q 261 94 247 83 q 282 122 275 104 q 292 164 289 140 l 342 525 q 344 567 346 549 q 331 594 342 585 q 294 604 319 604 q 256 594 269 604 q 235 567 242 585 q 225 525 228 549 l 174 164 q 172 122 171 140 q 185 94 174 104 q 222 83 196 83 m 140 758 l 292 904 l 382 904 l 493 758 l 399 758 l 328 836 l 238 758 l 140 758 z "},"ố":{"ha":515,"x_min":14,"x_max":729,"o":"m 208 -11 q 112 0 151 -11 q 49 36 72 11 q 20 105 26 61 q 22 217 14 149 l 64 508 q 101 616 74 574 q 180 678 129 658 q 308 699 231 699 q 406 687 367 699 q 469 651 446 675 q 499 592 492 628 q 497 508 506 557 l 457 217 q 415 78 444 128 q 334 8 385 28 q 208 -11 283 -11 m 222 83 q 261 94 247 83 q 282 122 275 104 q 292 164 289 140 l 342 525 q 344 567 346 549 q 331 594 342 585 q 294 604 319 604 q 256 594 269 604 q 235 567 242 585 q 225 525 228 549 l 174 164 q 172 122 171 140 q 185 94 174 104 q 222 83 196 83 m 140 758 l 292 904 l 382 904 l 493 758 l 399 758 l 328 836 l 238 758 l 140 758 m 488 844 l 576 983 l 729 983 l 586 844 l 488 844 z "},"ộ":{"ha":515,"x_min":14,"x_max":506,"o":"m 208 -11 q 112 0 151 -11 q 49 36 72 11 q 20 105 26 61 q 22 217 14 149 l 64 508 q 101 616 74 574 q 180 678 129 658 q 308 699 231 699 q 406 687 367 699 q 469 651 446 675 q 499 592 492 628 q 497 508 506 557 l 457 217 q 415 78 444 128 q 334 8 385 28 q 208 -11 283 -11 m 222 83 q 261 94 247 83 q 282 122 275 104 q 292 164 289 140 l 342 525 q 344 567 346 549 q 331 594 342 585 q 294 604 319 604 q 256 594 269 604 q 235 567 242 585 q 225 525 228 549 l 174 164 q 172 122 171 140 q 185 94 174 104 q 222 83 196 83 m 193 -179 q 145 -160 164 -179 q 126 -115 126 -142 q 145 -71 126 -89 q 193 -53 164 -53 q 239 -71 221 -53 q 257 -115 257 -89 q 239 -160 257 -142 q 193 -179 221 -179 m 140 758 l 292 904 l 382 904 l 493 758 l 399 758 l 328 836 l 238 758 l 140 758 z "},"ồ":{"ha":515,"x_min":14,"x_max":629,"o":"m 208 -11 q 112 0 151 -11 q 49 36 72 11 q 20 105 26 61 q 22 217 14 149 l 64 508 q 101 616 74 574 q 180 678 129 658 q 308 699 231 699 q 406 687 367 699 q 469 651 446 675 q 499 592 492 628 q 497 508 506 557 l 457 217 q 415 78 444 128 q 334 8 385 28 q 208 -11 283 -11 m 222 83 q 261 94 247 83 q 282 122 275 104 q 292 164 289 140 l 342 525 q 344 567 346 549 q 331 594 342 585 q 294 604 319 604 q 256 594 269 604 q 235 567 242 585 q 225 525 228 549 l 174 164 q 172 122 171 140 q 185 94 174 104 q 222 83 196 83 m 140 758 l 292 904 l 382 904 l 493 758 l 399 758 l 328 836 l 238 758 l 140 758 m 531 844 l 417 983 l 569 983 l 631 844 l 531 844 z "},"ổ":{"ha":515,"x_min":14,"x_max":679,"o":"m 208 -11 q 112 0 151 -11 q 49 36 72 11 q 20 105 26 61 q 22 217 14 149 l 64 508 q 101 616 74 574 q 180 678 129 658 q 308 699 231 699 q 406 687 367 699 q 469 651 446 675 q 499 592 492 628 q 497 508 506 557 l 457 217 q 415 78 444 128 q 334 8 385 28 q 208 -11 283 -11 m 222 83 q 261 94 247 83 q 282 122 275 104 q 292 164 289 140 l 342 525 q 344 567 346 549 q 331 594 342 585 q 294 604 319 604 q 256 594 269 604 q 235 567 242 585 q 225 525 228 549 l 174 164 q 172 122 171 140 q 185 94 174 104 q 222 83 196 83 m 140 758 l 292 904 l 382 904 l 493 758 l 399 758 l 328 836 l 238 758 l 140 758 m 514 831 l 518 861 q 535 890 521 882 q 564 906 550 899 q 579 931 578 913 l 582 943 q 580 965 583 956 q 561 974 576 974 q 533 944 540 974 l 463 956 q 500 1013 472 993 q 576 1032 528 1032 q 655 1008 631 1032 q 671 939 679 983 l 669 933 q 656 893 667 904 q 633 878 646 882 q 612 871 621 875 q 601 853 603 867 l 599 831 l 514 831 z "}}}
